<svg id="svg" version="1.1" xmlns="http://www.w3.org/2000/svg" xmlns:xlink="http://www.w3.org/1999/xlink" width="400" height="400" viewBox="0, 0, 400,400"><g id="svgg"><path id="path0" d="M250.852 34.167 L 251.466 35.167 250.513 34.333 C 249.846 33.750,249.619 33.666,249.758 34.054 C 249.927 34.526,249.812 34.566,248.978 34.327 C 248.216 34.108,248.000 34.154,248.000 34.532 C 248.000 34.941,247.831 34.930,246.917 34.457 C 245.994 33.980,245.897 33.974,246.263 34.415 C 246.638 34.867,246.542 34.933,245.504 34.933 C 244.850 34.933,244.132 35.085,243.908 35.271 C 243.683 35.457,242.112 35.934,240.417 36.332 C 238.721 36.730,237.333 37.177,237.333 37.325 C 237.333 37.473,236.958 37.689,236.500 37.804 C 236.042 37.919,235.667 38.158,235.667 38.336 C 235.667 38.514,234.504 39.249,233.083 39.969 C 230.113 41.475,228.237 42.793,228.578 43.133 C 228.707 43.263,228.579 43.279,228.293 43.169 C 228.001 43.057,227.568 43.223,227.303 43.549 C 226.894 44.053,226.898 44.093,227.333 43.855 C 227.608 43.705,226.558 44.855,225.000 46.410 C 221.090 50.313,220.930 50.513,220.796 51.664 C 220.523 54.016,219.290 55.452,217.016 56.068 C 214.073 56.866,213.949 57.712,216.373 60.466 C 217.690 61.962,217.795 63.013,216.667 63.389 C 216.480 63.451,216.265 63.825,216.189 64.219 C 216.113 64.612,215.832 65.362,215.565 65.884 C 213.948 69.045,212.576 73.164,212.612 74.750 C 212.619 75.070,212.161 76.345,211.593 77.583 C 210.617 79.711,208.713 84.795,207.947 87.319 C 207.755 87.952,207.241 88.995,206.805 89.636 C 206.287 90.398,206.138 90.879,206.373 91.024 C 206.606 91.169,206.312 92.039,205.533 93.507 C 204.873 94.750,204.333 95.976,204.333 96.230 C 204.333 96.485,204.030 97.287,203.660 98.013 C 202.680 99.934,203.150 99.630,204.323 97.583 C 204.875 96.621,205.328 95.950,205.330 96.092 C 205.338 96.725,202.933 101.025,201.697 102.589 C 200.301 104.354,199.946 105.069,200.829 104.337 C 201.784 103.544,201.805 104.925,200.860 106.353 C 200.373 107.088,200.054 107.817,200.150 107.972 C 200.356 108.307,199.404 109.627,197.549 111.576 C 196.812 112.352,196.312 113.089,196.438 113.216 C 196.565 113.342,196.420 113.721,196.116 114.056 C 195.812 114.392,195.665 114.667,195.789 114.667 C 196.073 114.667,195.180 116.092,193.805 117.833 C 192.511 119.472,189.934 123.712,190.119 123.897 C 190.295 124.073,186.932 130.691,186.003 131.995 C 185.412 132.826,185.379 133.000,185.811 133.000 C 186.470 133.000,186.482 133.461,185.837 133.997 C 185.564 134.224,185.409 134.520,185.493 134.655 C 185.577 134.791,185.430 135.186,185.167 135.534 C 184.610 136.270,184.519 136.798,185.000 136.500 C 185.492 136.196,185.412 136.538,184.639 138.055 C 184.257 138.804,184.017 139.696,184.106 140.038 C 184.196 140.379,183.993 141.010,183.655 141.439 C 183.318 141.868,182.939 142.626,182.814 143.124 C 182.690 143.621,182.188 144.434,181.701 144.931 C 181.213 145.427,179.474 147.470,177.836 149.471 C 173.472 154.801,159.584 169.232,155.988 172.172 C 147.569 179.057,141.240 185.458,137.423 190.950 C 136.831 191.803,136.049 192.815,135.686 193.200 C 131.555 197.583,126.933 212.635,126.179 224.167 C 126.071 225.817,125.901 227.710,125.802 228.375 C 125.703 229.040,125.508 233.340,125.368 237.932 L 125.114 246.280 124.030 248.390 C 121.472 253.370,120.072 254.759,105.181 267.086 C 103.356 268.597,100.656 270.969,99.181 272.357 C 97.707 273.745,94.100 277.037,91.167 279.673 C 81.946 287.958,80.622 290.184,87.719 285.465 C 90.561 283.576,90.651 283.640,88.939 286.346 C 86.137 290.774,83.565 296.654,81.437 303.500 C 79.966 308.233,80.046 315.705,81.641 322.537 C 81.979 323.983,82.355 325.733,82.478 326.426 C 82.600 327.119,82.814 327.615,82.952 327.529 C 83.091 327.444,83.468 328.360,83.789 329.566 C 84.333 331.609,85.640 334.813,85.841 334.596 C 85.890 334.543,85.570 332.925,85.131 331.000 C 84.224 327.025,84.217 325.276,85.122 328.833 C 85.448 330.117,86.084 332.292,86.534 333.667 C 86.985 335.042,87.505 336.767,87.690 337.500 C 87.875 338.233,88.212 338.983,88.438 339.167 C 88.664 339.350,89.272 340.587,89.787 341.917 C 90.726 344.335,91.176 344.844,91.408 343.750 C 91.476 343.429,92.013 344.592,92.601 346.333 C 93.189 348.075,94.053 350.100,94.521 350.833 L 95.372 352.167 95.165 350.884 C 94.849 348.927,95.456 349.667,96.488 352.497 C 97.405 355.010,98.769 357.000,99.574 357.000 C 100.134 357.000,100.131 356.964,99.191 352.236 C 98.101 346.756,97.849 344.846,98.524 347.167 C 99.566 350.754,101.829 354.166,101.120 351.083 C 100.240 347.249,101.467 329.279,102.781 326.772 C 103.251 325.874,103.254 325.878,103.485 327.685 C 103.921 331.090,104.985 334.994,106.206 337.665 C 107.453 340.393,108.181 341.192,107.650 339.250 C 102.070 318.845,106.384 297.376,118.632 284.592 L 121.563 281.533 121.865 285.350 C 122.031 287.449,122.167 292.767,122.167 297.167 L 122.167 305.167 120.567 309.833 C 118.168 316.833,117.667 319.474,117.667 325.120 C 117.667 330.413,117.221 333.081,114.509 344.000 C 111.658 355.483,110.140 360.191,107.422 365.977 C 103.715 373.869,102.452 377.837,102.918 380.133 C 103.108 381.068,103.572 383.341,103.950 385.184 C 104.480 387.769,104.606 389.402,104.505 392.331 C 104.373 396.152,104.584 397.535,105.064 395.997 C 105.217 395.508,105.265 396.161,105.181 397.583 L 105.039 400.000 116.528 400.000 L 128.018 400.000 126.863 397.750 C 124.647 393.433,123.404 385.943,123.807 379.333 C 123.924 377.408,124.037 375.533,124.057 375.167 C 124.894 359.764,129.841 340.912,136.829 326.500 C 139.949 320.066,140.630 318.006,140.879 314.235 C 140.991 312.547,141.322 310.642,141.614 310.000 C 142.470 308.119,147.013 299.957,148.049 298.440 C 148.572 297.674,149.000 296.964,149.000 296.864 C 149.000 296.763,149.734 295.665,150.632 294.424 C 151.529 293.182,153.197 290.517,154.339 288.500 C 155.481 286.483,157.198 283.633,158.154 282.167 C 161.878 276.458,162.906 274.811,163.120 274.211 C 163.243 273.868,164.929 271.207,166.868 268.297 L 170.393 263.007 173.103 263.087 C 175.764 263.165,175.834 263.189,176.928 264.398 C 177.542 265.075,178.715 266.022,179.536 266.503 C 181.792 267.826,183.000 269.694,183.000 271.862 C 183.000 274.793,181.456 280.863,180.294 282.500 C 180.163 282.683,179.677 283.842,179.213 285.074 C 178.407 287.217,175.038 293.925,172.639 298.167 C 170.440 302.054,172.868 316.320,177.052 324.094 C 177.426 324.789,177.925 326.509,180.359 335.500 C 185.798 355.594,187.027 372.603,184.289 389.925 C 183.766 393.234,184.191 393.241,188.520 389.989 C 189.324 389.385,190.088 389.055,190.401 389.175 C 191.400 389.558,194.000 396.551,194.000 398.855 L 194.000 399.974 208.663 399.993 L 223.326 400.012 221.747 397.482 C 220.878 396.090,219.902 394.532,219.579 394.021 L 218.992 393.091 219.913 393.230 C 220.951 393.387,221.087 393.538,218.117 391.238 C 210.938 385.676,209.582 383.569,207.985 375.500 C 207.416 372.625,205.689 367.733,203.748 363.500 C 202.824 361.483,201.839 359.083,201.559 358.167 C 201.278 357.250,200.671 355.277,200.209 353.783 C 196.931 343.192,195.082 330.342,195.442 320.670 C 195.794 311.220,197.770 305.991,203.883 298.333 C 204.981 296.958,207.135 294.258,208.671 292.333 C 214.356 285.207,216.796 278.127,219.181 261.838 C 219.985 256.347,221.028 251.508,223.781 240.484 C 225.152 234.993,226.349 230.016,226.440 229.425 C 226.607 228.342,226.906 227.899,229.686 224.624 C 231.042 223.027,232.247 221.229,237.252 213.333 C 238.007 212.142,239.703 209.294,241.022 207.005 C 242.340 204.717,243.758 202.392,244.174 201.839 C 247.835 196.969,254.301 181.826,255.991 174.167 C 257.010 169.547,256.872 169.842,257.753 170.404 C 259.506 171.524,265.560 173.336,277.014 176.169 C 284.796 178.095,290.039 180.486,291.139 182.612 C 295.093 190.260,295.167 215.366,291.254 222.026 C 290.839 222.732,289.759 224.538,288.854 226.041 C 286.829 229.401,286.333 231.232,286.333 235.347 C 286.333 238.820,285.777 241.064,284.605 242.323 C 284.131 242.831,284.028 243.145,284.284 243.303 C 284.541 243.462,284.292 244.300,283.496 245.962 C 281.876 249.342,281.629 254.319,283.038 255.190 C 283.190 255.284,283.608 256.024,283.966 256.834 C 285.681 260.710,288.812 264.588,291.998 266.780 C 293.881 268.076,297.667 269.457,297.667 268.848 C 297.667 268.617,298.206 267.260,298.865 265.833 C 300.417 262.475,300.758 260.176,300.819 252.667 C 300.877 245.620,300.981 245.183,304.242 238.215 C 306.630 233.114,306.830 231.251,307.214 210.500 C 307.867 175.292,307.577 173.122,301.430 167.239 C 300.369 166.223,297.319 163.278,294.652 160.696 C 290.340 156.518,288.379 154.887,289.709 156.583 C 290.123 157.111,290.112 157.123,289.587 156.712 C 289.268 156.462,289.084 156.133,289.178 155.981 C 289.272 155.829,288.094 154.609,286.561 153.269 C 283.836 150.889,281.632 149.179,273.500 143.138 C 263.270 135.539,257.441 126.132,258.166 118.393 C 258.294 117.029,258.388 114.771,258.376 113.374 C 258.346 109.999,259.239 101.328,259.869 98.876 C 260.960 94.633,267.674 88.431,277.138 82.925 C 282.901 79.572,283.565 78.732,283.972 74.287 C 284.112 72.754,284.522 70.825,284.884 70.000 C 285.878 67.733,285.882 65.352,284.896 63.249 C 284.445 62.287,283.850 60.966,283.573 60.313 C 283.070 59.124,278.821 57.353,276.006 57.159 C 273.212 56.967,268.823 55.347,268.317 54.321 C 268.184 54.053,267.721 53.012,267.288 52.008 C 265.922 48.842,263.464 46.634,260.061 45.515 C 258.790 45.096,258.340 44.796,258.472 44.453 C 258.728 43.785,257.310 37.308,256.956 37.527 C 256.797 37.626,256.667 37.547,256.667 37.353 C 256.667 37.159,256.442 37.000,256.167 37.000 C 255.892 37.000,255.667 36.804,255.667 36.564 C 255.667 36.324,255.447 35.836,255.177 35.480 C 254.730 34.889,254.715 34.934,255.000 36.000 C 255.266 36.996,255.248 37.082,254.873 36.589 C 254.632 36.271,254.362 36.082,254.274 36.171 C 254.186 36.259,253.762 35.956,253.332 35.499 C 252.902 35.041,252.399 34.667,252.213 34.667 C 252.028 34.667,251.508 34.329,251.057 33.917 L 250.237 33.167 250.852 34.167 M189.293 124.750 C 189.075 125.162,188.679 125.875,188.413 126.333 C 187.949 127.133,187.952 127.140,188.490 126.500 C 189.155 125.710,190.087 124.000,189.854 124.000 C 189.764 124.000,189.512 124.337,189.293 124.750 " stroke="none" fill="#381705" fill-rule="evenodd"></path><path id="path1" d="M187.000 7.673 C 123.301 12.151,68.261 43.719,34.162 95.333 C -28.463 190.125,3.019 318.823,102.246 373.671 C 103.935 374.604,103.618 374.898,105.313 370.833 C 106.078 369.000,106.782 367.325,106.877 367.111 C 106.979 366.882,105.654 365.921,103.660 364.778 C 94.095 359.291,77.188 347.100,73.572 343.083 C 72.935 342.375,73.198 338.339,74.490 329.000 C 74.757 327.075,75.213 323.100,75.504 320.167 C 75.794 317.233,76.251 313.258,76.518 311.333 C 77.099 307.152,77.852 300.351,78.494 293.492 C 78.752 290.738,79.110 287.213,79.291 285.659 C 79.472 284.105,79.714 281.333,79.830 279.500 C 79.946 277.667,80.328 272.717,80.678 268.500 C 81.028 264.283,81.471 258.958,81.661 256.667 C 82.257 249.502,85.311 221.718,86.021 217.000 C 87.804 205.159,88.304 201.546,88.651 198.000 C 88.858 195.892,89.319 191.992,89.676 189.333 C 90.034 186.675,90.470 183.150,90.646 181.500 C 91.832 170.388,92.715 162.216,93.149 158.333 C 93.942 151.236,94.304 146.920,95.663 128.333 C 95.831 126.042,96.121 122.517,96.308 120.500 C 96.495 118.483,96.804 114.658,96.993 112.000 C 97.542 104.297,97.915 100.325,98.822 92.500 C 99.289 88.467,99.891 83.142,100.158 80.667 C 100.426 78.192,100.954 73.842,101.332 71.000 C 102.339 63.430,103.272 55.653,104.010 48.682 C 104.904 40.241,104.800 40.629,106.439 39.712 C 119.391 32.473,135.482 26.068,150.423 22.204 C 158.869 20.021,172.856 17.498,173.223 18.092 C 173.687 18.842,173.328 32.436,172.704 37.706 C 172.349 40.709,171.965 45.867,171.851 49.167 C 171.737 52.467,171.432 57.717,171.173 60.833 C 170.915 63.950,170.608 68.150,170.493 70.167 C 170.230 74.750,169.759 79.407,167.881 96.000 C 167.061 103.242,166.293 110.667,166.173 112.500 C 166.054 114.333,165.752 118.008,165.502 120.667 C 165.252 123.325,164.887 127.675,164.691 130.333 C 163.968 140.124,162.946 152.687,162.318 159.476 C 161.964 163.312,161.728 166.506,161.794 166.572 C 162.015 166.793,174.947 153.000,177.901 149.392 C 179.503 147.435,181.213 145.427,181.701 144.931 C 182.188 144.434,182.690 143.621,182.814 143.124 C 182.939 142.626,183.318 141.868,183.655 141.439 C 183.993 141.010,184.196 140.379,184.106 140.038 C 184.017 139.696,184.257 138.804,184.639 138.055 C 185.412 136.538,185.492 136.196,185.000 136.500 C 184.519 136.798,184.610 136.270,185.167 135.534 C 185.430 135.186,185.577 134.791,185.493 134.655 C 185.409 134.520,185.564 134.224,185.837 133.997 C 186.482 133.461,186.470 133.000,185.811 133.000 C 185.379 133.000,185.412 132.826,186.003 131.995 C 186.932 130.691,190.295 124.073,190.119 123.897 C 189.934 123.712,192.511 119.472,193.805 117.833 C 195.180 116.092,196.073 114.667,195.789 114.667 C 195.665 114.667,195.812 114.392,196.116 114.056 C 196.420 113.721,196.565 113.342,196.438 113.216 C 196.312 113.089,196.812 112.352,197.549 111.576 C 199.404 109.627,200.356 108.307,200.150 107.972 C 200.054 107.817,200.373 107.088,200.860 106.353 C 201.805 104.925,201.784 103.544,200.829 104.337 C 199.946 105.069,200.301 104.354,201.697 102.589 C 202.933 101.025,205.338 96.725,205.330 96.092 C 205.328 95.950,204.875 96.621,204.323 97.583 C 203.150 99.630,202.680 99.934,203.660 98.013 C 204.030 97.287,204.333 96.485,204.333 96.230 C 204.333 95.976,204.873 94.750,205.533 93.507 C 206.312 92.039,206.606 91.169,206.373 91.024 C 206.138 90.879,206.287 90.398,206.805 89.636 C 207.241 88.995,207.755 87.952,207.947 87.319 C 208.713 84.795,210.617 79.711,211.593 77.583 C 212.161 76.345,212.619 75.070,212.612 74.750 C 212.576 73.164,213.948 69.045,215.565 65.884 C 215.832 65.362,216.113 64.612,216.189 64.219 C 216.265 63.825,216.480 63.451,216.667 63.389 C 217.795 63.013,217.690 61.962,216.373 60.466 C 213.949 57.712,214.073 56.866,217.016 56.068 C 219.290 55.452,220.523 54.016,220.796 51.664 C 220.930 50.513,221.090 50.313,225.000 46.410 C 226.558 44.855,227.608 43.705,227.333 43.855 C 226.898 44.093,226.894 44.053,227.303 43.549 C 227.568 43.223,228.001 43.057,228.293 43.169 C 228.579 43.279,228.707 43.263,228.578 43.133 C 228.237 42.793,230.113 41.475,233.083 39.969 C 234.504 39.249,235.667 38.514,235.667 38.336 C 235.667 38.158,236.042 37.919,236.500 37.804 C 236.958 37.689,237.333 37.477,237.333 37.333 C 237.333 37.189,238.383 36.814,239.667 36.500 C 240.950 36.186,242.007 35.832,242.015 35.714 C 242.023 35.596,242.095 34.750,242.175 33.833 C 242.254 32.917,242.482 29.919,242.682 27.172 C 242.881 24.426,243.080 22.143,243.123 22.099 C 243.265 21.957,254.410 25.260,258.000 26.508 C 274.070 32.096,295.872 43.401,306.049 51.424 C 306.557 51.824,306.538 52.437,305.801 59.678 C 305.364 63.980,304.779 70.177,304.502 73.448 C 304.225 76.719,303.551 83.394,303.005 88.281 C 302.458 93.168,301.859 99.267,301.674 101.833 C 301.488 104.400,301.185 108.150,300.999 110.167 C 300.318 117.548,299.671 137.526,299.669 151.220 L 299.667 165.273 301.539 167.220 C 307.625 173.546,307.866 175.380,307.214 210.500 C 306.830 231.251,306.630 233.114,304.242 238.215 C 300.981 245.183,300.877 245.620,300.819 252.667 C 300.758 260.176,300.417 262.475,298.865 265.833 C 298.206 267.260,297.667 268.640,297.667 268.900 C 297.667 269.160,297.538 269.293,297.382 269.197 C 297.009 268.966,296.733 272.630,295.341 296.333 C 295.152 299.542,294.705 305.767,294.347 310.167 C 293.989 314.567,293.459 321.542,293.171 325.667 C 292.882 329.792,292.426 336.167,292.158 339.833 C 291.890 343.500,291.523 350.466,291.344 355.312 C 291.109 361.669,290.900 364.237,290.592 364.529 C 289.897 365.191,281.187 369.763,276.167 372.103 C 260.264 379.514,242.390 384.964,225.588 387.525 C 220.955 388.231,221.373 388.521,221.704 384.833 C 221.852 383.183,222.581 371.483,223.324 358.833 C 224.067 346.183,224.750 334.633,224.841 333.167 C 224.933 331.700,225.380 323.900,225.835 315.833 C 226.290 307.767,226.894 297.492,227.177 293.000 C 227.460 288.508,228.433 271.633,229.340 255.500 C 230.247 239.367,231.067 225.417,231.162 224.500 L 231.336 222.833 230.152 224.167 C 227.321 227.352,226.604 228.365,226.444 229.400 C 226.351 230.005,225.152 234.993,223.781 240.484 C 221.028 251.508,219.985 256.347,219.181 261.838 C 216.796 278.127,214.356 285.207,208.671 292.333 C 207.135 294.258,204.981 296.958,203.883 298.333 C 197.770 305.991,195.794 311.220,195.442 320.670 C 195.082 330.342,196.931 343.192,200.209 353.783 C 200.671 355.277,201.278 357.250,201.559 358.167 C 201.839 359.083,202.824 361.483,203.748 363.500 C 205.689 367.733,207.416 372.625,207.985 375.500 C 209.582 383.569,210.938 385.676,218.117 391.238 C 221.086 393.537,220.950 393.387,219.927 393.233 C 218.904 393.079,218.895 393.048,220.609 395.596 C 221.627 397.109,221.915 397.335,222.647 397.191 C 223.116 397.100,225.225 396.783,227.333 396.488 C 339.778 380.746,415.147 269.927,389.190 158.500 C 367.666 66.104,280.524 1.099,187.000 7.673 M189.534 124.917 C 189.268 125.421,188.799 126.133,188.490 126.500 C 187.952 127.140,187.949 127.133,188.413 126.333 C 188.679 125.875,189.075 125.162,189.293 124.750 C 189.512 124.337,189.764 124.000,189.854 124.000 C 189.944 124.000,189.800 124.412,189.534 124.917 M166.868 268.297 C 164.929 271.207,163.243 273.868,163.120 274.211 C 162.906 274.811,161.878 276.458,158.154 282.167 C 157.198 283.633,155.481 286.483,154.339 288.500 C 153.197 290.517,151.529 293.182,150.632 294.424 C 149.734 295.665,149.000 296.756,149.000 296.848 C 149.000 296.939,148.618 297.592,148.151 298.298 C 147.514 299.260,147.226 300.280,147.003 302.374 C 146.447 307.584,145.644 314.482,144.992 319.667 C 144.634 322.508,144.185 326.483,143.995 328.500 C 143.804 330.517,143.352 334.492,142.989 337.333 C 142.379 342.118,141.667 348.347,140.492 359.167 C 139.798 365.565,137.975 379.802,137.833 379.945 C 137.646 380.132,132.850 378.484,128.359 376.690 C 123.639 374.805,123.973 374.563,123.747 380.044 L 123.587 383.921 126.377 385.001 C 146.172 392.661,166.818 397.124,187.983 398.317 C 194.826 398.703,194.313 398.948,193.375 395.741 C 191.546 389.495,190.627 388.406,188.520 389.989 C 184.191 393.241,183.766 393.234,184.289 389.925 C 187.027 372.603,185.798 355.594,180.359 335.500 C 177.925 326.509,177.426 324.789,177.052 324.094 C 172.868 316.320,170.440 302.054,172.639 298.167 C 175.038 293.925,178.407 287.217,179.213 285.074 C 179.677 283.842,180.163 282.683,180.294 282.500 C 181.456 280.863,183.000 274.793,183.000 271.862 C 183.000 269.694,181.792 267.826,179.536 266.503 C 178.715 266.022,177.542 265.075,176.928 264.398 C 175.834 263.189,175.764 263.165,173.103 263.087 L 170.393 263.007 166.868 268.297 " stroke="none" fill="#c2327c" fill-rule="evenodd"></path><path id="path2" d="M0.000 200.000 L 0.000 400.000 52.318 400.000 L 104.636 400.000 104.849 398.868 C 104.965 398.246,104.897 397.431,104.697 397.057 C 104.497 396.683,104.328 396.030,104.322 395.605 L 104.310 394.833 103.888 395.594 C 103.142 396.936,103.058 396.032,103.699 393.566 C 104.642 389.933,104.480 386.985,103.034 381.500 C 102.543 379.637,102.583 377.653,103.145 376.062 L 103.623 374.708 99.728 372.466 C 18.938 325.959,-17.833 229.081,11.810 140.833 C 57.988 3.363,234.150 -38.128,336.694 64.314 C 439.953 167.471,398.852 342.449,260.435 388.968 C 250.709 392.236,233.884 396.023,223.917 397.186 L 222.000 397.410 222.728 398.705 L 223.456 400.000 311.728 400.000 L 400.000 400.000 400.000 200.000 L 400.000 0.000 200.000 0.000 L 0.000 0.000 0.000 200.000 M170.167 18.385 C 149.076 21.591,129.382 27.993,110.501 37.779 L 105.169 40.543 104.920 42.188 C 104.784 43.093,104.524 45.483,104.344 47.500 C 103.958 51.808,102.591 63.338,101.874 68.333 C 101.597 70.258,100.986 75.208,100.516 79.333 C 100.046 83.458,99.438 88.783,99.166 91.167 C 98.198 99.654,96.730 116.611,94.982 139.500 C 94.604 144.450,94.074 150.750,93.806 153.500 C 92.582 166.018,91.954 172.116,91.520 175.667 C 91.263 177.775,90.957 180.475,90.840 181.667 C 90.724 182.858,90.344 185.858,89.997 188.333 C 89.651 190.808,89.140 195.008,88.862 197.667 C 88.316 202.899,87.354 209.919,86.349 216.000 C 86.001 218.108,85.623 220.808,85.510 222.000 C 85.165 225.626,84.339 233.271,83.834 237.500 C 82.855 245.694,82.323 251.103,81.507 261.167 C 79.058 291.332,78.432 297.829,76.658 311.500 C 76.301 314.250,75.777 318.975,75.493 322.000 C 75.210 325.025,74.771 328.850,74.518 330.500 C 74.266 332.150,73.873 335.566,73.645 338.091 L 73.232 342.682 74.666 343.925 C 83.077 351.207,94.290 359.168,103.819 364.624 C 107.320 366.628,107.085 366.578,107.569 365.417 C 113.258 351.753,117.626 333.413,117.630 323.172 C 117.631 319.511,117.756 317.470,117.983 317.395 C 118.176 317.330,118.334 316.953,118.335 316.556 C 118.335 316.158,118.997 313.927,119.805 311.597 C 122.428 304.032,122.621 301.578,121.795 286.265 L 121.567 282.030 120.700 282.707 C 115.206 286.996,109.355 297.475,106.600 307.961 C 105.575 311.860,105.462 326.939,106.421 331.833 C 106.744 333.483,107.252 336.076,107.549 337.594 C 108.404 341.963,107.538 341.615,105.657 336.833 C 105.080 335.367,104.400 333.840,104.146 333.441 C 103.888 333.036,103.581 331.269,103.452 329.441 C 103.163 325.360,102.543 326.266,101.992 331.575 C 101.808 333.352,101.486 335.787,101.277 336.986 C 100.783 339.823,100.809 349.079,101.317 350.950 C 102.047 353.641,100.612 353.155,99.404 350.302 C 98.533 348.247,98.587 348.842,99.696 353.552 C 101.056 359.326,98.267 358.521,96.342 352.583 C 95.531 350.082,95.198 349.684,95.506 351.583 C 95.915 354.113,93.926 350.761,92.648 346.768 C 92.009 344.770,91.815 344.458,91.491 344.902 C 91.030 345.533,91.040 345.547,89.674 342.250 C 89.086 340.829,88.486 339.667,88.342 339.667 C 88.197 339.667,87.798 338.746,87.456 337.621 C 87.074 336.368,86.618 335.517,86.277 335.423 C 85.693 335.262,84.792 333.406,83.806 330.333 C 83.483 329.325,83.078 328.406,82.907 328.292 C 82.603 328.089,81.912 325.165,80.748 319.167 C 79.928 314.937,80.023 307.693,80.941 304.500 C 82.622 298.649,85.140 292.422,87.367 288.609 C 88.152 287.266,88.727 286.141,88.647 286.110 C 88.566 286.079,88.864 285.667,89.308 285.194 C 90.411 284.019,89.976 284.114,88.084 285.460 C 83.825 288.489,81.577 288.815,84.167 286.028 C 85.764 284.309,96.292 274.605,100.941 270.567 C 108.589 263.924,117.844 256.117,118.865 255.449 C 119.878 254.785,122.800 250.503,124.022 247.890 C 124.997 245.808,125.023 245.612,125.187 239.296 C 125.746 217.695,128.264 205.404,134.246 195.080 C 135.775 192.441,136.435 191.573,140.249 187.181 C 146.085 180.460,146.786 179.785,157.675 170.416 C 160.512 167.976,161.301 167.107,161.460 166.250 C 161.723 164.835,162.827 152.409,163.496 143.333 C 163.786 139.392,164.325 132.642,164.693 128.333 C 165.060 124.025,165.498 118.550,165.666 116.167 C 166.067 110.448,166.633 104.080,166.850 102.833 C 167.486 99.185,169.885 76.042,170.323 69.333 C 170.509 66.492,170.876 61.842,171.139 59.000 C 171.401 56.158,171.714 51.058,171.832 47.667 C 171.951 44.275,172.268 39.775,172.536 37.667 C 173.537 29.796,173.561 17.944,172.577 18.040 C 172.351 18.062,171.267 18.217,170.167 18.385 M243.182 22.750 C 242.727 24.198,242.348 34.470,242.741 34.719 C 243.419 35.150,245.080 35.065,244.801 34.614 C 244.639 34.352,244.784 34.286,245.256 34.410 C 245.739 34.536,245.899 34.459,245.783 34.155 C 245.609 33.701,246.210 33.671,246.894 34.098 C 247.110 34.233,247.382 34.191,247.497 34.004 C 247.613 33.817,248.073 33.756,248.520 33.868 C 249.034 33.997,249.333 33.929,249.333 33.683 C 249.333 33.469,249.471 33.379,249.638 33.482 C 249.806 33.586,250.010 33.482,250.092 33.252 C 250.195 32.964,250.515 33.085,251.121 33.641 C 251.704 34.177,252.000 34.294,252.000 33.987 C 252.000 33.733,252.460 34.045,253.023 34.679 C 253.894 35.661,254.023 35.721,253.888 35.083 C 253.631 33.868,254.757 34.164,255.477 35.500 C 256.110 36.677,256.658 37.019,256.677 36.250 C 256.721 34.427,258.314 40.299,258.574 43.245 C 258.726 44.970,258.744 44.995,260.108 45.363 C 263.472 46.268,268.000 50.896,268.000 53.429 C 268.000 54.709,271.934 56.606,275.000 56.805 C 279.570 57.100,284.333 59.501,284.333 61.509 C 284.333 61.760,284.712 62.677,285.175 63.548 C 286.157 65.394,286.081 67.734,284.957 70.318 C 284.575 71.195,284.257 72.832,284.179 74.318 C 283.974 78.246,282.569 80.178,278.205 82.528 C 271.245 86.277,262.283 93.700,260.732 97.000 C 258.871 100.959,257.668 119.355,258.986 123.695 C 261.762 132.834,265.410 137.247,277.122 145.630 C 282.918 149.778,289.061 155.074,296.154 162.037 C 297.797 163.650,299.208 164.903,299.288 164.823 C 299.369 164.742,299.470 158.562,299.514 151.088 C 299.668 124.774,300.564 107.645,302.797 88.333 C 303.252 84.392,303.864 78.392,304.155 75.000 C 304.447 71.608,305.068 65.033,305.535 60.389 C 306.356 52.228,306.364 51.928,305.776 51.467 C 292.889 41.362,268.505 29.536,248.775 23.822 C 242.904 22.121,243.352 22.207,243.182 22.750 M256.002 174.947 C 254.252 182.286,248.205 196.348,244.513 201.667 C 243.940 202.492,242.742 204.442,241.851 206.000 C 240.960 207.558,239.382 210.183,238.344 211.833 C 237.306 213.483,235.322 216.633,233.935 218.833 L 231.413 222.833 230.871 232.333 C 230.573 237.558,229.806 250.833,229.166 261.833 C 228.526 272.833,227.854 284.533,227.673 287.833 C 227.492 291.133,226.971 300.058,226.516 307.667 C 226.061 315.275,225.532 324.350,225.340 327.833 C 224.983 334.302,223.839 353.807,222.662 373.500 C 222.300 379.550,221.920 385.264,221.818 386.197 L 221.632 387.894 223.733 387.612 C 244.525 384.817,268.644 376.646,288.198 365.773 L 290.896 364.273 291.130 357.220 C 291.527 345.263,292.019 336.968,292.999 325.667 C 293.182 323.558,293.484 319.208,293.671 316.000 C 293.858 312.792,294.083 309.792,294.171 309.333 C 294.336 308.471,295.590 289.190,296.547 272.787 L 296.764 269.074 295.732 268.848 C 293.408 268.337,288.623 264.629,286.680 261.833 C 285.268 259.800,282.333 254.396,282.333 253.828 C 282.333 253.551,282.155 253.038,281.936 252.688 C 281.380 251.798,282.000 248.680,283.273 245.963 C 283.906 244.613,284.144 243.756,283.924 243.620 C 283.711 243.488,283.926 242.949,284.481 242.222 C 285.706 240.616,286.286 238.193,286.286 234.683 C 286.286 230.424,287.037 228.260,290.085 223.739 C 291.521 221.608,292.310 219.622,292.862 216.748 C 293.713 212.317,293.828 210.424,293.803 201.333 L 293.778 192.500 292.703 188.360 C 290.477 179.786,290.465 179.780,268.000 173.964 C 263.215 172.726,260.603 171.917,258.627 171.061 L 257.088 170.395 256.002 174.947 M145.936 302.268 C 141.218 310.669,141.271 310.539,140.977 314.560 C 140.798 317.015,140.486 318.777,140.062 319.726 C 139.708 320.519,139.102 322.028,138.715 323.081 C 138.328 324.135,137.610 325.631,137.121 326.406 C 132.357 333.952,125.171 359.345,124.468 371.119 L 124.243 374.871 129.038 376.719 C 135.838 379.340,137.287 379.824,137.548 379.563 C 137.932 379.179,139.717 364.951,141.654 346.833 C 142.007 343.533,142.519 339.333,142.791 337.500 C 143.064 335.667,143.458 332.142,143.667 329.667 C 143.876 327.192,144.327 323.142,144.671 320.667 C 145.014 318.192,145.388 315.192,145.501 314.000 C 145.615 312.808,146.014 309.387,146.389 306.396 C 147.159 300.243,147.145 300.115,145.936 302.268 M124.130 386.786 C 124.472 390.553,125.816 395.602,127.073 397.838 L 128.195 399.833 160.931 399.918 C 193.499 400.003,193.667 400.000,193.667 399.335 C 193.667 398.724,193.446 398.667,191.083 398.665 C 173.842 398.652,145.722 392.808,126.741 385.294 C 125.407 384.765,124.224 384.333,124.112 384.333 C 124.000 384.333,124.008 385.437,124.130 386.786 " stroke="none" fill="#fbfbfb" fill-rule="evenodd"></path><path id="path3" d="M173.077 31.000 C 173.077 31.642,173.146 31.904,173.230 31.583 C 173.314 31.262,173.314 30.738,173.230 30.417 C 173.146 30.096,173.077 30.358,173.077 31.000 M170.417 67.500 C 170.421 68.233,170.489 68.494,170.569 68.079 C 170.649 67.665,170.646 67.065,170.562 66.746 C 170.479 66.427,170.414 66.767,170.417 67.500 M170.084 72.833 C 170.088 73.567,170.156 73.827,170.236 73.413 C 170.315 72.998,170.312 72.398,170.229 72.079 C 170.146 71.761,170.080 72.100,170.084 72.833 M97.744 103.000 C 97.744 103.642,97.813 103.904,97.896 103.583 C 97.980 103.263,97.980 102.737,97.896 102.417 C 97.813 102.096,97.744 102.358,97.744 103.000 M97.077 111.333 C 97.077 111.975,97.146 112.237,97.230 111.917 C 97.314 111.596,97.314 111.071,97.230 110.750 C 97.146 110.429,97.077 110.692,97.077 111.333 M300.107 122.333 C 300.107 123.525,300.167 124.013,300.241 123.417 C 300.315 122.821,300.315 121.846,300.241 121.250 C 300.167 120.654,300.107 121.142,300.107 122.333 M299.751 131.500 C 299.754 132.233,299.823 132.494,299.902 132.079 C 299.982 131.665,299.979 131.065,299.896 130.746 C 299.812 130.427,299.747 130.767,299.751 131.500 M394.077 192.333 C 394.077 192.975,394.146 193.237,394.230 192.917 C 394.314 192.596,394.314 192.071,394.230 191.750 C 394.146 191.429,394.077 191.692,394.077 192.333 M1.744 211.333 C 1.744 211.975,1.813 212.237,1.896 211.917 C 1.980 211.596,1.980 211.071,1.896 210.750 C 1.813 210.429,1.744 210.692,1.744 211.333 M229.077 260.667 C 229.077 261.308,229.146 261.571,229.230 261.250 C 229.314 260.929,229.314 260.404,229.230 260.083 C 229.146 259.762,229.077 260.025,229.077 260.667 M295.744 286.333 C 295.744 286.975,295.813 287.237,295.896 286.917 C 295.980 286.596,295.980 286.071,295.896 285.750 C 295.813 285.429,295.744 285.692,295.744 286.333 M294.751 302.167 C 294.754 302.900,294.823 303.161,294.902 302.746 C 294.982 302.331,294.979 301.731,294.896 301.413 C 294.812 301.094,294.747 301.433,294.751 302.167 M292.417 333.500 C 292.421 334.233,292.489 334.494,292.569 334.079 C 292.649 333.665,292.646 333.065,292.562 332.746 C 292.479 332.427,292.414 332.767,292.417 333.500 M338.812 339.750 L 337.833 340.833 338.917 339.854 C 339.512 339.316,340.000 338.828,340.000 338.771 C 340.000 338.513,339.725 338.740,338.812 339.750 M291.084 356.167 C 291.088 356.900,291.156 357.161,291.236 356.746 C 291.315 356.331,291.312 355.731,291.229 355.413 C 291.146 355.094,291.080 355.433,291.084 356.167 M222.744 369.333 C 222.744 369.975,222.813 370.238,222.896 369.917 C 222.980 369.596,222.980 369.071,222.896 368.750 C 222.813 368.429,222.744 368.692,222.744 369.333 M187.750 398.563 C 188.071 398.647,188.596 398.647,188.917 398.563 C 189.237 398.479,188.975 398.411,188.333 398.411 C 187.692 398.411,187.429 398.479,187.750 398.563 " stroke="none" fill="#d89bbc" fill-rule="evenodd"></path><path id="path4" d="M80.077 311.000 C 80.077 311.642,80.146 311.904,80.230 311.583 C 80.314 311.262,80.314 310.737,80.230 310.417 C 80.146 310.096,80.077 310.358,80.077 311.000 M85.517 332.049 C 85.778 333.030,85.994 334.155,85.996 334.548 C 85.998 334.941,86.198 335.338,86.439 335.431 C 86.765 335.555,86.695 334.962,86.169 333.141 C 85.349 330.295,84.811 329.395,85.517 332.049 M103.667 331.758 C 103.667 332.420,103.826 333.059,104.021 333.180 C 104.263 333.329,104.302 332.990,104.144 332.116 C 103.836 330.414,103.667 330.287,103.667 331.758 M105.084 396.500 C 105.088 397.233,105.156 397.494,105.236 397.079 C 105.315 396.665,105.312 396.065,105.229 395.746 C 105.146 395.427,105.080 395.767,105.084 396.500 " stroke="none" fill="#929191" fill-rule="evenodd"></path><path id="path5" d="M173.411 23.667 C 173.411 24.308,173.479 24.571,173.563 24.250 C 173.647 23.929,173.647 23.404,173.563 23.083 C 173.479 22.762,173.411 23.025,173.411 23.667 M104.084 48.167 C 104.088 48.900,104.156 49.161,104.236 48.746 C 104.315 48.331,104.312 47.731,104.229 47.413 C 104.146 47.094,104.080 47.433,104.084 48.167 M339.333 67.104 C 339.333 67.162,339.821 67.649,340.417 68.188 L 341.500 69.167 340.521 68.083 C 339.608 67.074,339.333 66.847,339.333 67.104 M165.751 116.167 C 165.754 116.900,165.823 117.161,165.902 116.746 C 165.982 116.331,165.979 115.731,165.896 115.413 C 165.812 115.094,165.747 115.433,165.751 116.167 M1.757 196.667 C 1.757 197.492,1.822 197.829,1.902 197.417 C 1.981 197.004,1.981 196.329,1.902 195.917 C 1.822 195.504,1.757 195.842,1.757 196.667 M1.762 208.833 C 1.765 209.750,1.829 210.085,1.906 209.579 C 1.982 209.072,1.980 208.322,1.901 207.912 C 1.822 207.502,1.760 207.917,1.762 208.833 M296.084 281.833 C 296.088 282.567,296.156 282.827,296.236 282.413 C 296.315 281.998,296.312 281.398,296.229 281.079 C 296.146 280.761,296.080 281.100,296.084 281.833 M295.084 297.833 C 295.088 298.567,295.156 298.827,295.236 298.413 C 295.315 297.998,295.312 297.398,295.229 297.079 C 295.146 296.761,295.080 297.100,295.084 297.833 M293.411 321.000 C 293.411 321.642,293.479 321.904,293.563 321.583 C 293.647 321.262,293.647 320.737,293.563 320.417 C 293.479 320.096,293.411 320.358,293.411 321.000 M335.989 342.583 L 334.167 344.500 336.083 342.678 C 337.864 340.985,338.153 340.667,337.905 340.667 C 337.853 340.667,336.991 341.529,335.989 342.583 M291.411 351.667 C 291.411 352.308,291.479 352.571,291.563 352.250 C 291.647 351.929,291.647 351.404,291.563 351.083 C 291.479 350.762,291.411 351.025,291.411 351.667 M291.103 359.167 C 291.105 360.267,291.167 360.676,291.242 360.077 C 291.316 359.478,291.314 358.578,291.238 358.077 C 291.162 357.576,291.101 358.067,291.103 359.167 M189.921 398.569 C 190.335 398.649,190.935 398.646,191.254 398.562 C 191.573 398.479,191.233 398.414,190.500 398.417 C 189.767 398.421,189.506 398.489,189.921 398.569 " stroke="none" fill="#d474ac" fill-rule="evenodd"></path><path id="path6" d="M245.778 34.511 C 245.778 34.719,245.971 34.889,246.208 34.889 C 246.444 34.889,246.544 34.738,246.431 34.554 C 246.306 34.353,246.452 34.307,246.796 34.440 C 247.114 34.562,247.283 34.522,247.177 34.351 C 246.912 33.921,245.778 34.051,245.778 34.511 M135.744 192.667 C 135.515 193.033,135.443 193.333,135.584 193.333 C 135.724 193.333,136.027 193.033,136.256 192.667 C 136.485 192.300,136.557 192.000,136.416 192.000 C 136.276 192.000,135.973 192.300,135.744 192.667 M294.100 199.000 C 294.100 200.008,294.162 200.421,294.239 199.917 C 294.315 199.412,294.315 198.588,294.239 198.083 C 294.162 197.579,294.100 197.992,294.100 199.000 M104.176 392.681 C 104.294 392.873,104.207 393.251,103.982 393.522 C 103.644 393.929,103.668 393.978,104.120 393.805 C 104.719 393.575,104.882 392.333,104.314 392.333 C 104.120 392.333,104.057 392.490,104.176 392.681 " stroke="none" fill="#7c7c74" fill-rule="evenodd"></path><path id="path7" d="M197.083 7.245 C 197.954 7.314,199.379 7.314,200.250 7.245 C 201.121 7.176,200.408 7.120,198.667 7.120 C 196.925 7.120,196.213 7.176,197.083 7.245 M299.411 148.333 C 299.411 148.975,299.479 149.237,299.563 148.917 C 299.647 148.596,299.647 148.071,299.563 147.750 C 299.479 147.429,299.411 147.692,299.411 148.333 M394.450 201.667 C 394.450 203.225,394.507 203.862,394.577 203.083 C 394.648 202.304,394.648 201.029,394.577 200.250 C 394.507 199.471,394.450 200.108,394.450 201.667 M394.424 206.333 C 394.424 207.158,394.489 207.496,394.569 207.083 C 394.648 206.671,394.648 205.996,394.569 205.583 C 394.489 205.171,394.424 205.508,394.424 206.333 M125.084 242.500 C 125.088 243.233,125.156 243.494,125.236 243.079 C 125.315 242.665,125.312 242.065,125.229 241.746 C 125.146 241.427,125.080 241.767,125.084 242.500 M122.084 293.833 C 122.088 294.567,122.156 294.827,122.236 294.413 C 122.315 293.998,122.312 293.398,122.229 293.079 C 122.146 292.761,122.080 293.100,122.084 293.833 " stroke="none" fill="#c2c2c2" fill-rule="evenodd"></path><path id="path8" d="M122.077 297.000 C 122.077 297.642,122.146 297.904,122.230 297.583 C 122.314 297.262,122.314 296.737,122.230 296.417 C 122.146 296.096,122.077 296.358,122.077 297.000 M80.107 314.000 C 80.107 315.192,80.167 315.679,80.241 315.083 C 80.315 314.487,80.315 313.512,80.241 312.917 C 80.167 312.321,80.107 312.808,80.107 314.000 " stroke="none" fill="#bcbcb4" fill-rule="evenodd"></path></g></svg>