<svg id="svg" version="1.1" xmlns="http://www.w3.org/2000/svg" xmlns:xlink="http://www.w3.org/1999/xlink" width="400" height="400" viewBox="0, 0, 400,400"><g id="svgg"><path id="path0" d="M0.000 23.600 L 0.000 47.200 31.200 47.200 L 62.400 47.200 62.400 23.600 L 62.400 0.000 31.200 0.000 L 0.000 0.000 0.000 23.600 M130.000 23.600 L 130.000 47.200 160.400 47.200 L 190.800 47.200 190.800 23.600 L 190.800 0.000 160.400 0.000 L 130.000 0.000 130.000 23.600 M230.100 119.491 C 230.925 119.578,232.275 119.578,233.100 119.491 C 233.925 119.405,233.250 119.334,231.600 119.334 C 229.950 119.334,229.275 119.405,230.100 119.491 M191.314 181.000 C 191.317 182.100,191.395 182.503,191.487 181.895 C 191.579 181.286,191.577 180.386,191.482 179.895 C 191.387 179.403,191.311 179.900,191.314 181.000 M277.693 181.600 C 277.693 182.370,277.775 182.685,277.876 182.300 C 277.976 181.915,277.976 181.285,277.876 180.900 C 277.775 180.515,277.693 180.830,277.693 181.600 M203.301 302.200 C 203.305 303.080,203.387 303.393,203.483 302.895 C 203.579 302.398,203.575 301.678,203.475 301.295 C 203.375 300.913,203.296 301.320,203.301 302.200 M50.514 318.200 C 50.517 319.300,50.595 319.703,50.687 319.095 C 50.779 318.486,50.777 317.586,50.682 317.095 C 50.587 316.603,50.511 317.100,50.514 318.200 M271.293 324.000 C 271.293 324.770,271.375 325.085,271.476 324.700 C 271.576 324.315,271.576 323.685,271.476 323.300 C 271.375 322.915,271.293 323.230,271.293 324.000 M200.524 327.800 C 200.526 329.120,200.601 329.612,200.690 328.893 C 200.779 328.174,200.777 327.094,200.686 326.493 C 200.595 325.892,200.522 326.480,200.524 327.800 M266.501 341.800 C 266.505 342.680,266.587 342.993,266.683 342.495 C 266.779 341.998,266.775 341.278,266.675 340.895 C 266.575 340.513,266.496 340.920,266.501 341.800 M171.700 373.487 C 172.305 373.578,173.295 373.578,173.900 373.487 C 174.505 373.395,174.010 373.320,172.800 373.320 C 171.590 373.320,171.095 373.395,171.700 373.487 M86.600 374.800 L 85.400 375.105 86.476 375.153 C 87.068 375.179,87.664 375.020,87.800 374.800 C 87.936 374.580,87.992 374.421,87.924 374.447 C 87.856 374.473,87.260 374.632,86.600 374.800 " stroke="none" fill="#a4c4b0" fill-rule="evenodd"></path><path id="path1" d="M63.200 23.600 L 63.200 47.200 96.200 47.200 L 129.200 47.200 129.200 23.600 L 129.200 0.000 96.200 0.000 L 63.200 0.000 63.200 23.600 M281.219 30.364 C 280.957 30.854,280.554 31.107,280.280 30.955 C 280.016 30.808,280.070 30.967,280.400 31.309 C 283.424 34.442,293.589 36.881,293.921 34.553 C 294.305 31.861,282.502 27.968,281.219 30.364 M232.780 31.386 C 229.319 33.189,225.600 37.123,225.600 38.980 C 225.600 39.948,226.286 39.708,226.552 38.647 C 226.823 37.567,231.029 33.516,232.864 32.567 C 235.888 31.003,233.839 33.718,229.900 36.495 C 227.291 38.334,227.244 38.400,228.556 38.400 C 230.806 38.400,236.776 32.645,236.169 31.062 C 235.826 30.171,234.952 30.254,232.780 31.386 M287.064 31.661 C 290.466 32.515,293.689 34.366,291.800 34.381 C 289.551 34.400,281.293 31.640,281.871 31.063 C 282.308 30.626,283.466 30.759,287.064 31.661 M246.200 43.875 C 231.621 47.200,225.000 49.426,225.000 51.001 C 225.000 51.837,225.668 51.894,232.400 51.632 C 238.998 51.376,251.833 47.654,252.549 45.789 C 253.226 44.026,249.916 43.028,246.200 43.875 M273.780 44.371 C 273.571 44.576,272.771 44.801,272.003 44.871 C 270.437 45.016,269.818 46.210,271.070 46.671 C 271.472 46.819,271.949 47.187,272.131 47.489 C 274.033 50.651,291.948 53.430,294.429 50.949 C 296.203 49.175,295.232 48.683,286.721 47.048 C 282.475 46.232,277.992 45.212,276.759 44.782 C 274.158 43.874,274.272 43.890,273.780 44.371 M258.262 58.731 C 257.360 59.728,257.431 60.363,258.487 60.754 C 259.127 60.991,259.504 61.629,259.840 63.041 L 260.305 65.000 260.352 63.332 C 260.399 61.698,260.440 61.651,262.400 61.000 C 264.682 60.242,264.937 59.498,263.220 58.610 C 261.576 57.760,259.086 57.821,258.262 58.731 M66.400 59.864 C 65.194 60.116,63.926 61.178,64.124 61.771 C 64.216 62.048,65.597 62.154,68.033 62.070 C 73.839 61.870,80.409 63.246,85.813 65.792 C 88.737 67.171,90.000 67.433,90.000 66.664 C 90.000 63.497,72.772 58.533,66.400 59.864 M24.600 63.029 C 15.030 64.360,10.000 65.747,10.000 67.054 C 10.000 67.799,10.355 67.770,20.200 66.235 C 28.711 64.908,33.292 64.425,37.476 64.411 C 41.079 64.399,41.898 63.933,40.419 62.735 C 39.146 61.705,33.348 61.812,24.600 63.029 M271.600 63.078 C 271.600 63.231,272.090 63.868,272.689 64.493 C 275.683 67.618,268.887 69.816,264.009 67.300 C 260.514 65.498,260.750 65.467,253.688 68.649 C 250.916 69.898,249.823 69.913,250.148 68.700 C 250.281 68.205,250.392 67.582,250.395 67.316 C 250.398 67.049,250.779 66.478,251.243 66.046 C 252.280 65.080,251.929 64.196,250.757 64.823 C 249.255 65.627,248.351 69.494,249.417 70.559 C 250.259 71.401,251.303 71.213,256.091 69.355 C 260.358 67.699,260.264 67.700,262.838 69.300 C 268.910 73.074,279.426 68.091,274.369 63.836 C 273.231 62.877,271.600 62.431,271.600 63.078 M78.400 76.873 C 76.090 77.072,71.545 77.182,68.300 77.117 C 59.863 76.950,60.308 78.342,68.907 79.019 L 72.414 79.296 74.032 81.758 C 78.018 87.819,84.284 87.964,88.591 82.094 C 89.355 81.052,89.986 79.930,89.993 79.600 C 89.999 79.270,90.274 78.484,90.602 77.854 C 90.931 77.224,91.200 76.639,91.200 76.554 C 91.200 76.286,82.776 76.496,78.400 76.873 M32.744 76.981 C 32.603 77.126,27.147 77.247,20.620 77.250 C 7.351 77.255,5.640 77.663,13.632 78.916 C 18.131 79.621,28.570 79.635,35.760 78.945 L 38.120 78.719 37.886 80.987 C 37.609 83.676,37.187 84.270,34.800 85.329 C 29.682 87.600,22.843 85.195,22.788 81.106 C 22.777 80.286,22.736 80.268,22.359 80.915 C 21.785 81.903,23.339 85.053,24.856 85.976 C 28.415 88.140,34.803 87.662,37.440 85.035 C 38.680 83.799,39.596 80.564,38.985 79.576 C 38.840 79.341,39.021 78.819,39.387 78.415 C 39.901 77.846,39.938 77.609,39.550 77.369 C 38.900 76.967,33.079 76.635,32.744 76.981 M89.600 78.307 C 89.600 78.476,89.124 79.331,88.543 80.207 C 84.400 86.451,79.008 87.028,74.917 81.664 C 72.868 78.978,72.544 79.112,82.600 78.484 C 85.680 78.292,88.515 78.104,88.900 78.067 C 89.285 78.030,89.600 78.138,89.600 78.307 M50.057 99.956 C 49.686 100.191,49.599 100.686,49.783 101.524 C 50.038 102.684,49.920 102.832,47.526 104.366 C 43.404 107.006,41.987 106.999,41.070 104.333 C 40.532 102.769,39.737 102.517,39.926 103.971 C 40.474 108.183,42.749 108.570,48.121 105.363 L 51.242 103.500 52.121 104.300 C 53.787 105.816,54.942 106.172,58.200 106.171 C 63.755 106.169,65.632 104.604,63.200 102.000 C 61.852 100.557,61.707 100.674,62.629 102.457 C 62.976 103.127,63.201 103.711,63.129 103.756 C 59.704 105.921,51.713 104.529,53.269 102.039 C 54.209 100.533,51.707 98.911,50.057 99.956 M227.400 116.819 C 226.080 117.024,223.200 117.644,221.000 118.196 C 216.795 119.252,214.835 119.516,214.187 119.116 C 213.521 118.704,202.390 119.510,201.783 120.014 C 201.471 120.273,201.237 120.871,201.263 121.342 C 201.289 121.814,201.109 122.697,200.863 123.305 C 200.394 124.465,200.938 126.350,202.790 129.981 C 204.187 132.718,201.459 133.113,198.220 130.643 C 192.350 126.165,179.149 127.576,165.841 134.103 C 155.214 139.314,143.706 152.285,138.781 164.600 C 131.934 181.722,135.045 208.099,145.803 224.140 C 146.791 225.613,147.601 227.130,147.602 227.509 C 147.603 227.889,148.593 229.309,149.802 230.664 C 152.215 233.369,152.459 234.000,151.091 234.000 C 149.177 234.000,142.206 237.053,137.259 240.057 C 135.862 240.906,134.439 241.600,134.097 241.600 C 133.755 241.600,132.886 242.050,132.164 242.600 C 131.443 243.150,130.628 243.600,130.352 243.600 C 130.077 243.600,129.480 243.941,129.026 244.358 C 128.238 245.081,124.254 246.850,120.400 248.187 C 114.143 250.359,110.189 251.600,109.530 251.600 C 109.113 251.600,108.373 251.859,107.886 252.175 C 106.705 252.942,101.998 254.218,96.600 255.235 C 94.180 255.691,90.670 256.604,88.800 257.263 C 85.030 258.593,83.498 259.067,81.980 259.371 C 80.635 259.640,74.822 263.542,71.800 266.204 C 61.787 275.024,56.486 282.425,50.889 295.400 C 48.719 300.431,47.525 307.209,49.520 303.169 C 50.051 302.093,50.318 301.792,50.201 302.400 C 47.437 316.767,46.881 326.883,48.672 330.229 C 49.152 331.126,49.664 333.016,49.811 334.429 C 52.268 358.138,61.449 372.186,77.911 377.427 C 81.826 378.674,88.570 377.639,91.200 375.388 C 91.530 375.105,92.562 374.672,93.492 374.424 C 96.120 373.724,99.879 371.828,104.935 368.651 C 110.711 365.021,120.164 353.168,119.534 350.345 C 119.376 349.635,120.393 347.200,120.849 347.200 C 121.042 347.200,121.200 347.578,121.200 348.040 C 121.200 348.501,121.448 349.446,121.750 350.140 C 122.053 350.833,122.593 353.153,122.950 355.295 C 125.277 369.246,132.788 380.400,139.853 380.400 C 140.608 380.400,141.895 380.688,142.713 381.039 C 145.988 382.446,158.407 380.904,161.164 378.747 C 162.748 377.508,164.262 375.026,164.556 373.182 C 164.775 371.814,164.943 371.573,165.511 371.809 C 167.659 372.703,170.000 373.200,172.064 373.200 C 174.379 373.200,174.421 373.221,176.735 375.535 C 179.840 378.640,182.860 379.546,186.948 378.597 C 188.883 378.149,189.821 378.104,190.652 378.420 C 193.888 379.650,197.615 377.306,202.398 371.034 L 203.796 369.200 206.475 369.200 C 208.010 369.200,209.270 369.010,209.428 368.755 C 209.596 368.482,210.752 369.411,212.402 371.146 C 215.521 374.423,215.840 374.578,220.624 375.150 C 231.117 376.404,234.627 375.841,238.263 372.317 L 239.926 370.706 241.663 371.328 C 244.688 372.411,251.576 372.597,253.869 371.658 C 254.931 371.222,256.273 370.764,256.851 370.638 C 257.429 370.512,258.765 369.696,259.820 368.824 C 260.875 367.952,261.889 367.331,262.073 367.445 C 264.355 368.855,271.025 355.029,269.361 352.338 C 269.267 352.185,269.445 350.292,269.757 348.130 C 270.069 345.969,270.439 342.670,270.578 340.800 C 270.717 338.930,271.008 336.037,271.225 334.371 C 271.495 332.295,271.461 327.320,271.119 318.571 C 270.502 302.799,270.534 298.547,271.311 293.200 C 271.647 290.890,271.922 288.280,271.922 287.400 C 271.923 286.520,272.250 283.370,272.649 280.400 C 273.048 277.430,273.386 273.110,273.400 270.800 C 273.422 267.189,274.071 261.403,275.574 251.400 C 276.592 244.630,276.792 242.984,277.198 238.038 C 277.440 235.089,277.787 232.389,277.969 232.038 C 278.151 231.687,278.423 227.710,278.574 223.200 C 278.725 218.690,279.211 212.120,279.653 208.600 C 280.209 204.180,280.444 200.066,280.413 195.300 C 280.362 187.409,280.438 187.282,282.579 191.643 C 284.428 195.407,287.022 197.900,289.482 198.278 C 290.317 198.406,291.230 198.692,291.512 198.914 C 291.878 199.202,292.303 199.055,293.003 198.397 L 293.983 197.476 293.741 203.838 C 293.249 216.747,295.712 231.157,298.639 232.490 C 299.167 232.731,299.600 233.066,299.600 233.234 C 299.600 234.183,301.762 236.000,302.892 236.000 C 308.305 236.000,315.855 231.372,318.396 226.497 C 318.855 225.617,319.611 224.560,320.076 224.148 C 321.953 222.488,325.529 216.320,328.743 209.200 C 328.991 208.650,329.355 207.930,329.552 207.600 C 329.749 207.270,330.189 205.650,330.530 204.000 C 330.871 202.350,331.418 199.830,331.746 198.400 C 334.962 184.349,333.368 167.525,327.823 157.020 C 314.610 131.985,286.806 117.978,268.954 127.364 L 266.508 128.651 265.354 127.688 C 255.372 119.362,239.767 114.893,227.400 116.819 M242.375 120.247 C 249.901 121.548,257.621 125.176,263.323 130.093 L 265.647 132.096 266.523 131.313 C 273.729 124.879,287.989 125.781,302.884 133.614 C 309.924 137.317,319.218 147.283,324.469 156.761 C 335.262 176.244,331.140 209.002,315.958 224.400 C 312.863 227.539,308.237 230.456,307.879 229.495 C 307.777 229.220,307.503 229.483,307.263 230.085 C 306.664 231.590,303.007 233.470,302.117 232.731 C 298.112 229.408,295.858 218.299,296.071 202.943 C 296.225 191.882,296.238 191.920,293.019 194.350 C 291.800 195.271,290.547 196.122,290.235 196.242 C 289.018 196.709,286.513 193.669,284.171 188.881 C 282.911 186.307,281.523 183.504,281.088 182.652 C 280.512 181.528,280.204 179.797,279.963 176.328 C 279.107 164.008,275.081 148.864,270.644 141.278 L 270.105 140.357 269.856 141.278 C 269.711 141.818,270.006 143.361,270.568 145.000 C 272.583 150.874,273.299 153.402,274.005 157.140 C 274.406 159.263,275.293 163.700,275.976 167.000 C 278.558 179.469,278.414 192.190,275.405 217.600 C 273.712 231.887,273.511 234.116,273.725 236.200 C 273.972 238.613,273.386 245.869,272.610 250.000 C 272.300 251.650,271.760 255.700,271.411 259.000 C 271.062 262.300,270.603 265.900,270.391 267.000 C 268.672 275.922,266.977 302.196,267.617 310.000 C 268.017 314.884,267.736 331.536,267.175 336.200 C 266.963 337.960,266.611 342.881,266.392 347.135 C 266.173 351.390,265.802 355.620,265.567 356.535 C 265.075 358.452,262.049 362.597,261.134 362.606 C 260.795 362.610,259.479 363.561,258.210 364.721 C 250.859 371.440,241.853 368.387,243.394 359.699 C 244.299 354.592,244.935 338.353,244.651 327.600 C 244.378 317.277,244.790 307.850,245.549 307.091 C 245.836 306.804,246.000 304.806,246.000 301.593 C 246.000 294.209,247.312 289.114,249.959 286.222 C 250.373 285.770,252.180 282.970,253.975 280.000 C 255.769 277.030,257.967 273.430,258.858 272.000 C 262.614 265.976,263.954 261.951,260.800 266.165 C 257.376 270.740,253.614 274.856,253.128 274.556 C 252.570 274.210,248.389 279.778,246.637 283.200 C 243.073 290.160,240.716 308.848,241.593 323.194 C 242.118 331.786,241.452 357.157,240.689 357.655 C 240.474 357.796,240.401 358.078,240.528 358.283 C 240.896 358.880,239.401 364.124,238.166 366.562 C 236.988 368.889,236.400 369.368,236.400 368.000 C 236.400 366.952,236.236 366.982,234.265 368.392 C 229.763 371.615,220.676 371.185,216.254 367.541 C 213.635 365.382,208.893 357.314,207.707 353.000 C 207.466 352.120,207.059 350.680,206.804 349.800 C 206.549 348.920,206.185 344.240,205.995 339.400 C 205.805 334.560,205.467 328.620,205.244 326.200 C 205.021 323.780,204.730 319.190,204.598 316.000 C 204.466 312.810,204.105 308.670,203.796 306.800 C 203.486 304.930,203.142 300.790,203.032 297.600 C 202.762 289.826,201.303 284.079,200.870 289.086 C 200.799 289.913,200.599 290.682,200.427 290.795 C 200.255 290.908,200.374 292.890,200.691 295.200 C 201.222 299.060,201.214 299.502,200.590 300.666 C 200.216 301.362,200.042 302.145,200.203 302.405 C 200.364 302.666,200.540 309.566,200.594 317.739 C 200.648 325.913,200.923 336.481,201.205 341.224 C 202.123 356.655,199.980 371.062,196.821 370.689 C 196.479 370.649,194.167 371.291,191.682 372.116 C 185.368 374.213,177.234 374.585,177.816 372.750 C 177.947 372.338,177.864 372.000,177.633 372.000 C 176.447 372.000,172.130 361.553,170.195 354.000 C 169.828 352.570,169.364 351.201,169.163 350.957 C 168.961 350.713,168.172 346.303,167.408 341.157 C 166.644 336.011,165.470 328.740,164.799 325.000 C 164.127 321.260,163.661 317.864,163.763 317.454 C 163.866 317.044,163.802 316.414,163.621 316.054 C 162.594 314.006,161.494 309.824,159.986 302.236 C 159.314 298.851,158.178 296.357,157.437 296.641 C 157.082 296.777,156.340 296.357,155.600 295.600 C 152.896 292.834,152.637 294.657,154.974 300.000 C 155.695 301.650,156.695 304.170,157.196 305.600 C 157.697 307.030,158.712 309.435,159.453 310.944 C 160.751 313.589,161.062 314.805,160.565 315.301 C 159.875 315.992,149.918 311.794,148.665 310.285 C 148.261 309.798,148.047 309.625,148.189 309.900 C 148.331 310.175,148.257 310.400,148.024 310.400 C 147.066 310.400,143.843 306.348,141.818 302.600 C 140.987 301.060,139.908 299.170,139.422 298.400 C 138.935 297.630,137.841 295.836,136.991 294.413 C 135.381 291.720,134.051 290.000,133.581 290.000 C 132.937 290.000,133.722 295.890,134.641 297.948 C 135.168 299.130,135.600 300.363,135.600 300.688 C 135.600 303.020,145.832 314.400,147.929 314.400 C 148.129 314.400,148.756 314.765,149.322 315.210 C 150.193 315.896,151.538 316.195,154.600 316.387 C 155.903 316.469,156.107 317.127,155.216 318.378 C 154.722 319.072,154.052 320.926,153.726 322.498 C 153.401 324.071,152.804 325.777,152.400 326.291 C 151.900 326.926,151.589 328.209,151.425 330.312 C 151.293 332.010,150.995 335.313,150.763 337.651 C 150.323 342.106,150.676 344.913,151.729 345.318 C 152.016 345.428,152.590 347.004,153.005 348.820 C 153.419 350.636,154.155 352.706,154.639 353.420 C 155.124 354.134,155.654 355.141,155.817 355.659 C 155.981 356.176,156.707 357.902,157.431 359.493 C 158.156 361.086,158.580 362.489,158.374 362.616 C 157.776 362.986,157.940 364.388,158.716 365.538 C 160.171 367.695,161.600 370.736,161.600 371.676 C 161.600 375.314,153.879 379.009,147.976 378.197 C 146.782 378.032,145.988 378.096,145.820 378.368 C 145.372 379.092,143.109 378.828,141.027 377.809 C 139.942 377.277,138.901 376.938,138.713 377.054 C 138.270 377.328,134.887 375.154,133.518 373.716 C 129.509 369.504,126.018 356.979,126.003 346.751 C 126.001 345.435,125.686 343.775,125.243 342.751 C 124.827 341.788,124.364 339.920,124.214 338.600 C 123.873 335.609,122.638 330.004,121.392 325.800 C 120.870 324.040,120.266 321.970,120.049 321.200 C 119.833 320.430,119.097 318.270,118.414 316.400 C 115.863 309.412,114.818 306.071,113.724 301.400 C 110.988 289.715,113.412 273.133,119.617 261.094 L 120.394 259.587 118.342 260.759 C 113.174 263.711,107.940 277.422,109.168 284.788 C 109.445 286.445,109.818 289.600,109.997 291.800 C 110.301 295.522,111.840 305.417,112.207 306.012 C 112.297 306.157,112.819 307.968,113.367 310.038 C 113.915 312.107,114.884 315.060,115.520 316.600 C 119.943 327.314,120.129 336.115,116.209 349.179 C 114.196 355.888,107.472 364.382,106.026 362.042 C 105.509 361.206,103.904 363.164,104.186 364.288 C 104.381 365.063,104.074 365.351,101.905 366.435 C 100.527 367.123,99.040 368.011,98.600 368.408 C 97.401 369.489,87.784 373.068,84.105 373.803 C 82.727 374.078,82.202 374.557,82.591 375.185 C 82.729 375.408,83.200 375.432,83.714 375.243 C 85.364 374.634,88.241 374.318,87.762 374.798 C 86.880 375.681,82.182 376.147,79.173 375.650 C 72.753 374.590,63.171 367.832,60.407 362.414 C 59.970 361.556,59.440 360.749,59.232 360.619 C 58.298 360.043,55.166 352.242,53.843 347.200 C 51.355 337.712,49.685 312.775,51.357 310.069 C 51.518 309.810,51.814 308.023,52.016 306.099 C 52.506 301.440,55.563 291.231,57.803 286.778 C 60.554 281.307,68.758 271.906,73.141 269.201 C 74.603 268.299,77.510 266.465,79.600 265.126 C 89.222 258.960,93.497 257.423,104.400 256.208 C 111.486 255.419,116.146 254.581,117.546 253.845 C 121.239 251.904,124.584 250.405,127.009 249.605 C 128.544 249.099,130.430 248.204,131.200 247.616 C 131.970 247.029,133.590 246.069,134.800 245.484 C 136.010 244.898,138.236 243.602,139.746 242.604 C 142.498 240.784,145.406 239.509,149.700 238.239 C 150.965 237.865,152.000 237.378,152.000 237.156 C 152.000 236.934,152.135 236.834,152.300 236.933 C 152.465 237.032,154.208 236.965,156.173 236.784 C 159.060 236.518,159.971 236.571,160.916 237.060 C 162.416 237.835,163.573 237.529,165.253 235.913 C 166.496 234.717,166.816 234.613,169.400 234.570 C 172.187 234.524,178.532 232.717,180.554 231.394 C 181.019 231.090,182.390 230.570,183.600 230.239 C 187.593 229.146,192.900 226.949,196.800 224.775 C 197.570 224.346,200.000 223.164,202.200 222.148 C 206.677 220.080,209.261 218.382,209.983 217.031 C 210.521 216.026,212.937 215.141,217.300 214.351 C 220.916 213.696,220.701 213.329,216.500 212.986 C 211.942 212.613,208.676 211.573,206.200 209.704 C 205.100 208.874,203.750 207.906,203.200 207.553 C 198.341 204.437,194.767 199.529,191.792 191.890 L 190.737 189.181 191.222 183.290 C 191.488 180.051,191.680 176.590,191.649 175.600 C 191.274 163.621,191.498 158.581,192.565 155.000 C 193.156 153.020,193.824 150.500,194.049 149.400 C 194.496 147.225,196.023 144.272,199.120 139.600 C 201.286 136.333,202.221 135.278,205.776 132.096 C 208.217 129.911,208.303 129.689,206.813 129.403 C 205.806 129.208,204.674 128.392,204.984 128.083 C 205.096 127.971,204.896 127.666,204.539 127.405 C 202.334 125.792,204.267 121.940,206.778 122.944 C 210.752 124.534,221.123 123.288,223.697 120.911 C 225.563 119.188,234.428 118.873,242.375 120.247 M193.416 131.018 C 198.869 132.432,199.659 133.487,197.575 136.575 C 195.501 139.647,192.420 146.002,191.550 149.000 C 191.104 150.540,190.581 152.160,190.390 152.600 C 189.160 155.426,188.000 165.544,188.000 173.442 C 188.000 179.475,187.893 180.850,187.385 181.357 C 186.493 182.250,185.600 184.582,185.600 186.021 C 185.600 192.695,179.416 198.287,175.469 195.182 C 174.020 194.043,173.976 194.265,173.817 203.494 C 173.647 213.395,172.405 220.999,170.600 223.200 C 170.329 223.530,169.983 224.323,169.831 224.961 C 169.213 227.556,163.700 233.862,161.716 234.246 C 160.637 234.454,160.233 234.295,159.185 233.247 C 158.500 232.561,157.752 232.000,157.524 232.000 C 156.234 232.000,150.190 225.979,147.858 222.371 C 137.455 206.279,134.832 180.072,142.036 164.186 C 147.302 152.571,158.698 140.111,167.800 136.017 C 173.800 133.318,178.504 131.704,183.400 130.663 C 185.375 130.243,191.227 130.451,193.416 131.018 M244.600 144.486 C 244.160 144.740,243.562 145.185,243.271 145.474 C 242.981 145.763,242.605 146.000,242.436 146.000 C 241.788 146.000,241.187 148.028,241.603 148.806 C 242.049 149.639,243.073 149.866,247.648 150.145 C 249.580 150.262,251.264 150.621,252.250 151.124 C 257.109 153.602,259.005 150.514,254.936 146.749 C 252.594 144.583,246.677 143.287,244.600 144.486 M207.536 147.356 C 205.411 147.853,203.161 148.594,202.536 149.003 C 196.394 153.015,199.431 156.985,206.110 153.675 C 208.953 152.267,211.181 151.611,213.200 151.590 C 216.121 151.558,216.895 149.578,214.655 147.869 C 212.732 146.403,211.872 146.341,207.536 147.356 M243.738 158.109 C 244.248 162.451,246.967 168.929,248.591 169.669 C 251.030 170.780,251.563 168.744,250.578 162.073 L 249.874 157.307 247.802 156.653 C 243.973 155.446,243.447 155.634,243.738 158.109 M209.007 157.418 C 205.188 158.465,205.349 158.161,205.686 163.717 C 206.051 169.739,206.265 171.008,207.043 171.786 C 209.572 174.315,213.567 162.149,211.757 157.433 C 211.478 156.704,211.608 156.705,209.007 157.418 M231.058 175.643 C 230.210 175.842,229.012 176.364,228.395 176.804 C 227.273 177.602,227.272 177.602,225.403 176.801 C 221.691 175.210,217.200 175.850,217.200 177.970 C 217.200 180.101,219.343 181.821,222.700 182.385 C 224.343 182.661,225.603 183.074,225.606 183.336 C 225.610 183.666,225.697 183.673,225.906 183.361 C 226.068 183.119,226.470 182.921,226.800 182.921 C 227.977 182.922,233.090 181.609,234.235 181.012 C 234.876 180.678,235.599 180.404,235.842 180.402 C 236.623 180.398,238.400 178.465,238.400 177.619 C 238.400 175.455,235.351 174.634,231.058 175.643 M223.536 189.077 C 223.297 189.365,222.897 189.600,222.647 189.600 C 222.397 189.600,221.973 189.951,221.705 190.380 C 220.840 191.765,218.536 191.880,217.206 190.605 C 216.578 190.004,215.850 189.583,215.589 189.670 C 215.324 189.759,215.841 190.486,216.758 191.314 C 218.969 193.312,220.921 193.372,223.044 191.508 C 224.936 189.847,228.328 189.725,230.458 191.241 C 232.978 193.035,238.673 191.813,239.502 189.300 C 239.779 188.461,238.352 188.742,236.964 189.800 C 235.344 191.036,233.707 191.077,230.562 189.963 C 227.300 188.807,224.096 188.403,223.536 189.077 M188.341 193.500 C 188.757 194.325,189.233 195.450,189.399 196.000 C 189.565 196.550,190.461 197.900,191.391 199.000 C 192.321 200.100,193.367 201.540,193.715 202.200 C 194.721 204.110,197.967 207.571,199.341 208.199 C 200.034 208.515,201.744 209.492,203.143 210.369 C 204.578 211.270,206.452 212.079,207.447 212.228 C 208.417 212.373,209.286 212.616,209.380 212.767 C 209.671 213.238,207.270 215.526,205.290 216.664 C 204.251 217.262,201.837 218.683,199.926 219.823 C 196.646 221.781,187.921 225.046,187.186 224.591 C 186.668 224.271,181.450 226.031,180.600 226.812 C 180.160 227.216,178.360 228.107,176.600 228.792 C 174.840 229.476,172.987 230.208,172.481 230.418 C 169.601 231.615,169.148 230.882,170.975 227.982 C 173.432 224.083,173.621 223.631,174.863 218.684 C 175.950 214.355,176.113 212.936,176.298 206.200 L 176.506 198.600 179.420 198.600 C 182.920 198.600,183.746 198.014,185.382 194.368 C 186.617 191.617,187.291 191.419,188.341 193.500 M160.000 318.151 C 160.000 318.454,160.248 318.908,160.552 319.160 C 160.855 319.412,161.223 320.199,161.370 320.909 C 162.115 324.519,163.207 331.468,163.616 335.200 C 164.296 341.412,165.940 351.939,166.351 352.720 C 166.549 353.094,167.017 355.374,167.393 357.788 C 168.335 363.830,170.400 369.025,170.400 365.351 C 170.400 364.485,170.500 364.385,170.974 364.779 C 171.880 365.530,172.208 367.652,171.482 368.058 C 171.100 368.272,170.958 368.717,171.099 369.259 C 171.315 370.084,171.237 370.108,169.200 369.838 C 165.406 369.334,164.616 368.684,163.079 364.800 C 161.601 361.066,160.076 357.564,159.396 356.345 C 159.073 355.765,158.547 354.051,158.229 352.536 C 157.542 349.273,155.973 343.874,154.818 340.800 C 154.066 338.799,154.027 338.239,154.386 334.600 C 154.604 332.400,154.863 329.700,154.962 328.600 C 155.234 325.586,156.183 322.953,157.562 321.382 C 158.243 320.607,158.800 319.558,158.800 319.053 C 158.800 318.547,158.920 318.013,159.067 317.867 C 159.513 317.420,160.000 317.568,160.000 318.151 M207.918 363.437 C 207.894 364.338,207.990 365.261,208.131 365.488 C 208.384 365.897,206.708 366.400,205.093 366.400 C 204.300 366.400,204.297 358.338,205.089 357.056 C 205.557 356.298,207.963 361.724,207.918 363.437 " stroke="none" fill="#a4a7ae" fill-rule="evenodd"></path><path id="path2" d="M129.697 23.700 L 129.600 47.600 64.800 47.600 L 0.000 47.600 0.000 223.800 L 0.000 400.000 200.000 400.000 L 400.000 400.000 400.000 200.000 L 400.000 0.000 295.600 0.000 L 191.200 0.000 191.200 23.800 L 191.200 47.600 160.603 47.600 L 130.006 47.600 129.900 23.700 L 129.794 -0.200 129.697 23.700 M288.850 30.240 C 296.637 32.761,296.790 37.648,289.025 35.819 C 283.664 34.556,276.551 30.400,279.751 30.400 C 280.054 30.400,280.526 30.130,280.800 29.800 C 281.582 28.858,285.189 29.055,288.850 30.240 M236.167 30.243 C 238.906 31.294,231.658 39.200,227.955 39.200 C 227.356 39.200,226.796 39.412,226.709 39.672 C 226.431 40.507,225.200 39.668,225.200 38.644 C 225.200 35.369,233.319 29.150,236.167 30.243 M287.200 32.822 C 290.817 34.051,291.605 34.224,290.980 33.652 C 290.413 33.133,285.568 31.595,284.622 31.633 C 284.170 31.652,285.330 32.187,287.200 32.822 M252.471 43.864 C 253.877 45.137,252.804 47.600,250.842 47.600 C 250.524 47.600,249.979 47.850,249.631 48.155 C 248.132 49.474,236.343 52.149,232.910 51.950 C 232.300 51.914,230.677 52.127,229.305 52.422 C 226.060 53.119,224.600 52.686,224.600 51.025 C 224.600 49.013,228.271 47.577,241.200 44.533 C 243.510 43.988,246.030 43.388,246.800 43.198 C 248.711 42.726,251.586 43.064,252.471 43.864 M278.824 44.756 C 281.341 45.392,285.290 46.237,287.600 46.633 C 294.754 47.861,296.658 48.986,295.247 51.153 C 292.647 55.148,270.000 50.248,270.000 45.690 C 270.000 44.765,271.674 43.751,272.430 44.219 C 272.630 44.342,273.110 44.259,273.497 44.034 C 273.884 43.809,274.211 43.619,274.224 43.612 C 274.238 43.605,276.308 44.120,278.824 44.756 M263.089 57.992 C 265.607 59.209,265.614 60.877,263.103 61.414 C 258.434 62.412,262.594 68.000,268.006 68.000 C 271.710 68.000,273.661 66.148,271.800 64.400 C 269.787 62.509,272.230 61.407,274.492 63.186 C 280.675 68.050,269.238 74.104,262.246 69.670 C 260.115 68.319,260.178 68.313,255.133 70.357 C 250.246 72.338,248.400 71.995,248.400 69.107 C 248.400 66.029,250.176 63.621,252.015 64.205 C 252.808 64.456,253.132 65.600,252.410 65.600 C 251.945 65.600,250.800 67.707,250.800 68.562 C 250.800 69.176,253.381 68.558,254.565 67.660 C 254.804 67.479,256.029 66.923,257.287 66.424 L 259.573 65.518 259.325 63.659 C 259.188 62.637,258.902 61.733,258.688 61.650 C 256.765 60.907,256.579 58.971,258.327 57.887 C 259.752 57.003,261.103 57.033,263.089 57.992 M77.439 60.182 C 85.137 61.915,90.800 64.731,90.800 66.827 C 90.800 68.147,87.733 67.846,85.752 66.331 C 83.567 64.661,74.414 62.690,68.600 62.639 C 63.738 62.596,62.972 62.373,63.609 61.183 C 64.810 58.938,70.187 58.549,77.439 60.182 M40.370 62.117 C 41.137 62.485,41.400 62.916,41.400 63.805 L 41.400 65.000 34.400 65.262 C 30.550 65.406,25.870 65.802,24.000 66.143 C 22.130 66.484,19.160 66.956,17.400 67.191 C 15.640 67.427,13.456 67.813,12.547 68.049 C 9.740 68.777,8.075 67.229,10.180 65.850 C 11.848 64.757,18.735 63.192,24.600 62.574 C 27.680 62.250,31.280 61.823,32.600 61.626 C 35.433 61.204,38.925 61.425,40.370 62.117 M91.816 76.425 C 91.960 76.659,91.791 77.168,91.439 77.557 C 91.088 77.945,90.800 78.554,90.800 78.909 C 90.800 80.670,87.936 84.292,85.341 85.813 C 81.245 88.214,76.954 86.847,73.585 82.071 L 71.922 79.712 67.947 79.493 C 63.685 79.258,62.000 78.608,62.000 77.198 C 62.000 76.444,62.373 76.410,71.700 76.300 C 77.035 76.237,83.684 76.143,86.476 76.093 C 89.727 76.033,91.647 76.153,91.816 76.425 M40.069 77.110 C 40.475 77.515,40.479 77.781,40.090 78.405 C 39.820 78.836,39.600 79.917,39.600 80.807 C 39.600 89.835,22.316 90.546,21.867 81.537 L 21.800 80.200 16.699 79.744 C 8.693 79.029,7.598 78.697,8.389 77.222 C 8.841 76.377,39.229 76.270,40.069 77.110 M80.068 79.362 L 74.337 79.800 75.510 81.400 C 77.697 84.384,79.303 85.123,82.440 84.593 C 84.138 84.306,88.400 80.561,88.400 79.356 C 88.400 78.725,88.398 78.725,80.068 79.362 M32.400 79.632 C 28.986 79.890,24.168 80.306,23.700 80.384 C 23.645 80.393,23.604 80.895,23.609 81.500 C 23.643 85.767,32.653 87.383,36.266 83.771 C 37.169 82.867,37.698 79.106,36.900 79.257 C 36.735 79.288,34.710 79.457,32.400 79.632 M53.725 100.482 C 54.416 101.412,54.452 101.656,53.979 102.225 C 52.876 103.555,55.900 104.665,59.646 104.305 C 62.269 104.053,62.670 103.624,61.840 101.960 C 60.782 99.839,61.711 99.634,63.577 101.576 C 65.826 103.917,65.736 104.517,62.916 105.946 C 59.772 107.540,54.776 106.996,51.516 104.705 C 50.947 104.305,50.517 104.445,48.970 105.536 C 43.393 109.467,39.200 108.471,39.200 103.216 C 39.200 101.084,40.907 101.524,41.519 103.813 C 42.145 106.153,42.787 106.350,45.322 104.980 C 48.807 103.097,49.617 102.380,49.181 101.565 C 47.934 99.235,52.065 98.250,53.725 100.482 M241.471 116.416 C 248.331 117.330,257.735 121.254,263.005 125.402 C 266.486 128.142,266.674 128.230,267.515 127.510 C 277.009 119.376,301.685 125.602,315.685 139.663 C 320.607 144.607,327.600 153.850,327.600 155.412 C 327.600 155.591,327.838 156.021,328.130 156.369 C 333.729 163.045,335.477 185.937,331.582 201.573 C 330.955 204.088,330.525 206.279,330.626 206.443 C 330.871 206.838,329.963 208.800,329.536 208.800 C 329.351 208.800,329.200 208.988,329.200 209.217 C 329.200 210.703,323.745 220.630,321.406 223.400 C 320.478 224.500,319.423 225.973,319.062 226.673 C 317.178 230.334,310.262 235.600,307.338 235.600 C 306.876 235.600,305.820 235.883,304.992 236.229 C 302.287 237.359,297.491 233.892,296.376 230.000 C 296.092 229.010,295.718 228.009,295.544 227.776 C 295.371 227.543,294.944 225.563,294.596 223.376 C 294.248 221.189,293.763 218.230,293.518 216.800 C 293.008 213.816,292.851 201.931,293.301 200.325 C 293.593 199.286,293.558 199.257,292.252 199.469 C 291.461 199.597,290.788 199.504,290.627 199.244 C 290.476 199.000,289.849 198.800,289.233 198.800 C 287.245 198.800,283.533 195.258,282.181 192.071 C 281.119 189.568,280.786 191.006,280.872 197.727 C 280.931 202.369,280.766 205.218,280.288 207.800 C 279.897 209.909,279.452 215.592,279.213 221.521 C 278.989 227.088,278.616 231.996,278.384 232.430 C 278.152 232.863,277.777 236.408,277.550 240.309 C 277.323 244.209,277.000 247.670,276.831 248.000 C 276.513 248.620,276.139 250.893,274.721 260.800 C 273.978 265.991,273.793 268.938,274.037 271.700 C 274.080 272.195,273.812 275.030,273.441 278.000 C 273.069 280.970,272.592 285.380,272.381 287.800 C 272.169 290.220,271.749 294.720,271.447 297.800 C 271.073 301.619,271.000 304.736,271.219 307.600 C 272.124 319.429,271.641 342.724,270.385 347.800 C 270.168 348.680,269.896 350.840,269.781 352.600 C 269.257 360.653,265.681 368.258,262.582 367.909 C 262.132 367.858,261.322 368.240,260.782 368.756 C 259.394 370.085,257.526 371.197,256.678 371.199 C 256.281 371.199,255.111 371.587,254.078 372.060 C 252.996 372.556,251.437 372.911,250.400 372.898 C 245.271 372.834,244.022 372.712,242.017 372.075 L 239.834 371.382 238.481 372.879 C 235.438 376.248,232.039 376.775,220.335 375.694 C 215.930 375.288,215.278 374.965,212.150 371.648 L 210.030 369.400 206.815 369.530 C 204.426 369.627,203.600 369.801,203.600 370.208 C 203.600 370.509,203.267 370.990,202.860 371.277 C 202.452 371.565,201.828 372.364,201.473 373.054 C 199.635 376.622,194.732 379.426,191.001 379.044 C 189.450 378.885,187.772 378.971,186.672 379.265 C 183.240 380.183,178.186 378.346,175.495 375.203 L 174.123 373.600 171.146 373.600 C 169.045 373.600,167.744 373.383,166.725 372.864 L 165.282 372.128 165.028 373.717 C 164.703 375.749,162.767 378.447,160.875 379.506 C 157.220 381.552,147.931 382.840,143.758 381.880 C 142.241 381.531,140.323 381.137,139.495 381.004 C 135.720 380.397,129.746 375.607,127.717 371.561 C 125.147 366.436,123.070 360.023,122.386 355.109 C 121.923 351.778,120.598 348.135,120.246 349.229 C 120.145 349.543,119.851 350.743,119.592 351.895 C 119.334 353.048,118.805 354.398,118.416 354.895 C 118.028 355.393,117.343 356.520,116.895 357.400 C 113.976 363.129,100.163 373.587,93.657 374.992 C 92.918 375.152,91.692 375.704,90.933 376.220 C 85.200 380.110,77.155 379.091,68.121 373.328 C 61.594 369.165,53.913 358.273,52.375 351.000 C 52.096 349.680,51.733 348.420,51.569 348.200 C 51.404 347.980,50.978 345.730,50.621 343.200 C 50.265 340.670,49.799 337.731,49.587 336.669 C 49.374 335.608,49.200 334.159,49.200 333.449 C 49.200 332.740,49.042 331.989,48.849 331.780 C 47.055 329.836,46.734 319.623,48.178 310.416 C 48.693 307.132,48.770 305.790,48.448 305.683 C 46.272 304.957,48.802 297.836,56.417 283.254 C 61.176 274.141,77.052 259.494,83.400 258.360 C 84.280 258.203,85.990 257.708,87.200 257.260 C 90.924 255.882,94.854 254.862,98.200 254.403 C 99.960 254.162,101.760 253.804,102.200 253.607 C 102.640 253.410,104.080 252.950,105.400 252.585 C 106.720 252.219,107.890 251.802,108.000 251.657 C 108.110 251.512,109.550 251.058,111.200 250.648 C 112.850 250.238,114.380 249.763,114.600 249.594 C 114.820 249.425,116.170 248.969,117.600 248.580 C 119.030 248.192,120.380 247.747,120.600 247.590 C 120.820 247.433,121.706 247.077,122.570 246.798 C 124.745 246.097,128.338 244.423,128.609 243.986 C 128.732 243.786,129.591 243.255,130.517 242.806 C 131.442 242.357,132.650 241.749,133.200 241.454 C 133.750 241.160,135.010 240.509,136.000 240.007 C 136.990 239.505,139.501 238.214,141.579 237.139 C 143.658 236.064,146.043 234.980,146.879 234.729 C 147.716 234.478,148.400 234.102,148.400 233.892 C 148.400 233.675,148.988 233.621,149.769 233.768 C 151.183 234.033,152.170 233.394,151.025 232.954 C 150.681 232.822,150.400 232.576,150.400 232.408 C 150.400 232.239,149.675 231.313,148.789 230.351 C 147.903 229.388,147.068 228.150,146.934 227.600 C 146.800 227.050,145.911 225.415,144.959 223.966 C 143.449 221.671,141.633 218.104,139.476 213.200 C 139.137 212.430,138.640 210.900,138.372 209.800 C 138.104 208.700,137.748 207.620,137.580 207.400 C 137.413 207.180,136.981 205.380,136.620 203.400 C 136.260 201.420,135.790 199.240,135.576 198.555 C 134.545 195.248,134.392 176.030,135.385 174.424 C 135.483 174.265,135.929 172.462,136.375 170.417 C 136.822 168.371,137.346 166.496,137.541 166.249 C 137.736 166.002,138.125 165.088,138.406 164.217 C 139.054 162.210,142.786 155.131,143.582 154.400 C 143.702 154.290,144.546 153.111,145.457 151.780 C 148.787 146.918,155.368 140.070,159.400 137.271 C 165.175 133.262,174.013 129.440,179.802 128.448 C 181.341 128.185,183.646 127.769,184.924 127.525 C 187.751 126.984,196.822 128.408,197.563 129.509 C 197.693 129.702,198.430 130.187,199.200 130.587 C 202.434 132.267,202.800 132.349,202.800 131.400 C 202.800 131.070,202.612 130.800,202.382 130.800 C 202.153 130.800,202.001 130.575,202.045 130.300 C 202.088 130.025,201.625 128.720,201.014 127.400 C 200.009 125.228,199.946 124.838,200.352 123.294 C 200.598 122.356,200.800 121.235,200.800 120.803 C 200.800 119.109,202.139 118.821,210.849 118.641 C 217.297 118.508,219.391 118.330,220.627 117.809 C 224.346 116.244,234.883 115.540,241.471 116.416 M226.863 120.182 C 225.687 120.484,224.337 121.076,223.863 121.499 C 221.589 123.523,211.965 124.743,207.230 123.607 C 205.459 123.182,205.053 123.189,204.761 123.649 C 204.132 124.642,204.367 126.332,205.217 126.927 C 205.666 127.241,205.981 127.747,205.917 128.049 C 205.844 128.391,206.218 128.648,206.900 128.727 C 209.139 128.984,209.003 130.137,206.492 132.184 C 203.949 134.257,200.281 138.350,199.308 140.200 C 198.715 141.326,198.406 141.814,196.410 144.770 C 195.975 145.414,195.325 147.079,194.966 148.470 C 194.606 149.862,194.157 151.360,193.968 151.800 C 192.062 156.240,191.212 166.937,192.168 174.437 C 192.387 176.153,192.353 177.549,192.070 178.437 C 191.168 181.276,191.318 189.589,192.309 191.678 C 192.799 192.711,193.200 193.684,193.200 193.839 C 193.200 194.375,195.543 199.080,196.544 200.556 C 197.715 202.281,207.310 210.400,208.178 210.400 C 208.305 210.400,209.172 210.756,210.104 211.191 C 212.138 212.140,217.162 212.739,220.955 212.485 C 222.933 212.352,223.631 212.427,223.431 212.750 C 223.278 212.997,222.887 213.200,222.562 213.200 C 222.238 213.200,221.573 213.460,221.086 213.778 C 220.599 214.096,218.760 214.645,217.000 214.998 C 212.308 215.939,211.337 216.321,210.199 217.674 C 208.854 219.272,206.947 220.543,203.451 222.169 C 199.305 224.097,195.546 225.939,194.400 226.604 C 192.897 227.476,188.970 229.144,187.711 229.445 C 187.100 229.591,186.420 229.842,186.200 230.003 C 185.980 230.164,185.148 230.413,184.351 230.556 C 183.554 230.700,182.039 231.254,180.984 231.788 C 177.754 233.423,172.790 234.880,169.478 235.165 C 166.956 235.381,166.195 235.603,165.664 236.275 C 164.291 238.010,162.818 238.403,160.698 237.598 C 159.654 237.201,158.720 237.006,158.622 237.164 C 158.525 237.322,157.088 237.479,155.428 237.512 C 153.521 237.551,152.077 237.793,151.501 238.171 C 151.000 238.499,149.649 238.970,148.499 239.216 C 145.996 239.753,142.104 241.577,139.521 243.424 C 138.488 244.163,136.328 245.417,134.721 246.210 C 133.115 247.004,131.440 247.980,131.000 248.380 C 130.560 248.781,129.750 249.235,129.200 249.390 C 126.528 250.144,119.017 253.418,117.858 254.334 C 117.031 254.986,110.921 256.041,101.200 257.209 C 91.893 258.327,89.050 259.588,74.600 269.005 C 67.227 273.810,59.672 282.845,56.885 290.189 C 54.560 296.320,52.206 305.428,52.649 306.583 C 52.774 306.908,52.544 308.035,52.138 309.087 C 51.251 311.387,51.140 327.575,51.983 331.800 C 52.246 333.120,52.539 335.010,52.634 336.000 C 53.150 341.400,53.763 345.283,54.464 347.600 C 55.662 351.557,57.908 357.211,58.991 359.000 C 59.524 359.880,60.408 361.410,60.956 362.400 C 64.853 369.441,81.010 378.628,82.109 374.427 C 82.243 373.914,82.895 373.508,84.055 373.217 C 90.306 371.650,97.894 368.713,98.723 367.540 C 99.010 367.133,99.417 366.800,99.627 366.800 C 101.059 366.800,103.600 365.042,103.600 364.052 C 103.600 362.232,106.421 359.862,106.895 361.284 C 107.098 361.895,110.768 358.495,112.605 355.993 C 115.683 351.801,119.117 336.914,118.601 330.000 C 118.324 326.297,115.008 315.253,113.615 313.400 C 113.450 313.180,112.990 311.380,112.593 309.400 C 112.196 307.420,111.734 305.618,111.566 305.396 C 111.081 304.753,109.957 296.549,109.804 292.533 C 109.727 290.517,109.436 288.447,109.156 287.933 C 108.070 285.935,108.367 276.251,109.566 274.600 C 109.725 274.380,110.104 273.390,110.408 272.400 C 112.128 266.796,115.462 261.806,118.712 259.971 C 121.278 258.524,121.528 258.623,120.467 260.665 C 111.843 277.267,110.974 297.815,118.202 314.200 C 118.658 315.234,120.174 319.865,122.196 326.400 C 122.502 327.390,122.955 329.280,123.203 330.600 C 123.450 331.920,123.817 333.540,124.019 334.200 C 124.220 334.860,124.573 336.750,124.803 338.400 C 125.033 340.050,125.577 342.352,126.011 343.515 C 126.509 344.850,126.800 346.624,126.800 348.325 C 126.800 354.344,128.774 365.077,130.197 366.800 C 130.469 367.130,130.800 367.850,130.930 368.400 C 131.625 371.322,136.528 376.400,138.654 376.400 C 139.195 376.400,140.482 376.850,141.515 377.400 C 143.689 378.557,144.675 378.643,145.904 377.782 C 146.600 377.295,146.966 377.261,147.637 377.620 C 149.174 378.443,156.104 376.991,158.471 375.351 C 161.564 373.208,161.631 371.648,158.838 366.865 C 157.128 363.938,156.928 363.232,157.610 362.550 C 158.060 362.100,157.082 359.609,154.386 354.337 C 153.407 352.422,152.646 350.223,152.357 348.470 C 152.007 346.355,151.718 345.619,151.178 345.478 C 150.088 345.193,149.853 342.414,150.369 335.918 C 151.043 327.440,151.147 326.729,151.779 326.244 C 152.097 326.000,152.726 324.375,153.177 322.633 C 153.627 320.891,154.274 319.041,154.614 318.522 C 155.445 317.255,155.062 316.795,153.236 316.867 C 152.381 316.901,150.933 316.548,149.931 316.063 C 148.950 315.589,147.986 315.200,147.788 315.200 C 147.590 315.200,147.062 314.843,146.614 314.407 C 146.166 313.971,144.675 312.704,143.300 311.592 C 141.925 310.480,140.800 309.400,140.800 309.191 C 140.800 308.983,140.016 308.044,139.059 307.106 C 137.028 305.117,135.200 302.343,135.200 301.253 C 135.200 300.833,134.651 299.317,133.981 297.884 C 131.754 293.127,132.622 288.040,135.190 290.789 C 136.464 292.153,136.805 292.703,140.961 300.091 C 144.016 305.522,146.195 308.454,146.958 308.161 C 147.424 307.982,149.600 309.796,149.600 310.364 C 149.600 311.223,159.692 315.241,160.306 314.627 C 160.430 314.503,160.065 313.456,159.496 312.301 C 157.888 309.041,156.886 306.682,156.563 305.396 C 156.303 304.359,155.342 302.055,153.349 297.686 C 152.073 294.891,153.635 292.835,155.566 294.766 C 156.015 295.215,156.975 295.829,157.699 296.132 C 159.305 296.803,160.901 302.026,162.702 312.505 C 162.807 313.113,163.051 313.708,163.246 313.829 C 163.441 313.949,163.600 314.457,163.600 314.957 C 163.600 315.457,163.735 316.002,163.900 316.168 C 164.065 316.333,164.220 317.038,164.244 317.734 C 164.298 319.263,165.726 327.916,166.566 331.798 C 166.899 333.338,167.280 335.858,167.412 337.398 C 167.545 338.939,167.894 341.370,168.188 342.800 C 168.482 344.230,168.847 346.480,169.000 347.800 C 169.152 349.120,169.434 350.392,169.627 350.627 C 169.819 350.861,170.427 352.661,170.978 354.627 C 173.639 364.116,176.544 371.078,178.279 372.125 C 178.575 372.303,178.696 372.644,178.549 372.882 C 178.154 373.522,187.325 372.999,189.800 372.241 C 199.405 369.299,199.540 369.099,200.504 356.353 C 200.986 349.976,201.054 346.782,200.773 343.800 C 200.565 341.600,200.300 331.257,200.183 320.815 C 200.047 308.686,199.825 301.739,199.566 301.579 C 199.322 301.428,199.426 301.110,199.830 300.775 C 200.413 300.291,200.467 299.608,200.252 295.410 C 199.877 288.070,200.665 284.314,202.043 286.876 C 202.950 288.563,203.279 290.932,203.585 298.000 C 203.752 301.850,204.180 306.710,204.537 308.800 C 205.142 312.338,205.610 319.970,206.404 339.200 C 206.581 343.490,206.922 347.629,207.163 348.397 C 207.403 349.166,207.600 350.370,207.600 351.074 C 207.600 351.777,207.760 352.452,207.956 352.573 C 208.151 352.694,208.434 353.289,208.584 353.896 C 209.711 358.451,216.582 368.400,218.602 368.400 C 218.917 368.400,220.576 368.864,222.288 369.432 C 227.003 370.995,231.886 370.174,234.886 367.313 C 235.743 366.496,236.089 366.376,236.532 366.744 C 237.575 367.609,240.000 362.088,240.000 358.852 C 240.000 357.943,240.151 357.200,240.336 357.200 C 240.521 357.200,240.818 352.115,240.997 345.900 C 241.403 331.777,241.401 333.371,241.037 320.800 C 240.821 313.325,240.866 309.433,241.190 307.600 C 241.443 306.170,241.811 303.110,242.009 300.800 C 242.709 292.608,245.349 282.930,247.602 280.294 C 247.834 280.022,248.737 278.810,249.608 277.600 C 251.941 274.360,252.742 273.514,253.298 273.699 C 253.572 273.791,254.518 272.963,255.398 271.860 C 256.761 270.153,258.803 267.716,261.398 264.700 C 262.139 263.838,263.200 263.785,263.200 264.610 C 263.200 265.487,260.788 270.050,258.236 274.000 C 257.027 275.870,255.379 278.570,254.572 280.000 C 252.744 283.241,251.263 285.545,250.294 286.653 C 247.627 289.704,246.292 295.404,246.675 302.102 C 246.877 305.634,246.812 306.528,246.312 307.102 C 245.172 308.408,244.733 319.240,245.365 330.465 C 245.602 334.677,245.569 338.544,245.263 342.265 C 245.013 345.309,244.621 350.410,244.393 353.600 C 244.164 356.790,243.874 360.259,243.747 361.310 C 243.374 364.415,244.240 365.716,247.511 366.966 C 251.918 368.650,253.667 368.147,258.262 363.874 C 259.489 362.733,260.747 361.798,261.059 361.796 C 261.960 361.791,264.343 358.474,265.051 356.241 C 265.509 354.797,265.797 351.579,266.037 345.244 C 266.223 340.318,266.562 335.722,266.790 335.030 C 267.061 334.210,267.177 326.182,267.125 311.986 C 267.069 296.744,267.189 289.239,267.524 287.000 C 267.787 285.240,268.281 280.650,268.622 276.800 C 268.962 272.950,269.417 269.260,269.632 268.600 C 269.848 267.940,270.374 264.160,270.802 260.200 C 271.231 256.240,271.858 251.380,272.195 249.400 C 272.539 247.384,272.884 242.339,272.979 237.934 C 273.072 233.607,273.335 229.377,273.564 228.534 C 273.792 227.690,274.265 223.760,274.614 219.800 C 274.963 215.840,275.412 212.060,275.611 211.400 C 276.009 210.081,276.154 208.120,276.840 194.800 C 277.533 181.333,276.997 172.398,275.016 164.400 C 274.662 162.970,274.212 160.810,274.016 159.600 C 273.511 156.481,272.081 150.727,271.608 149.913 C 271.389 149.535,271.018 148.373,270.785 147.331 C 270.551 146.289,270.079 144.844,269.735 144.120 C 269.026 142.625,269.300 140.000,270.165 140.000 C 271.417 140.000,276.095 151.302,277.201 157.000 C 277.458 158.320,277.919 160.300,278.226 161.400 C 279.080 164.462,280.027 170.913,280.342 175.818 C 280.569 179.340,280.835 180.679,281.657 182.418 C 282.225 183.618,282.932 185.230,283.231 186.000 C 284.776 189.992,288.758 196.000,289.858 196.000 C 289.973 196.000,291.099 195.190,292.359 194.200 C 296.625 190.848,296.867 191.411,296.742 204.426 C 296.615 217.582,297.731 225.264,300.225 228.400 C 300.487 228.730,300.942 229.681,301.236 230.514 C 301.568 231.453,302.090 232.108,302.612 232.239 C 303.675 232.506,306.800 230.520,306.800 229.578 C 306.800 228.553,307.841 227.810,308.150 228.615 C 308.372 229.191,308.476 229.192,309.286 228.625 C 309.777 228.281,310.424 228.000,310.726 228.000 C 311.401 228.000,313.273 226.598,314.717 225.010 C 315.313 224.356,316.254 223.366,316.808 222.810 C 320.253 219.358,326.710 207.423,326.818 204.309 C 326.827 204.029,327.102 203.080,327.429 202.200 C 329.664 196.177,330.538 179.823,329.079 171.351 C 327.901 164.516,325.170 158.132,320.701 151.766 C 320.096 150.905,319.142 149.514,318.579 148.675 C 314.733 142.938,305.483 135.195,299.200 132.453 C 293.739 130.070,292.632 129.659,288.882 128.625 C 281.191 126.504,269.853 128.121,266.824 131.771 C 266.039 132.717,265.078 132.534,263.795 131.195 C 256.593 123.677,236.541 117.698,226.863 120.182 M246.847 122.669 C 247.481 122.796,248.000 123.078,248.000 123.295 C 248.000 123.844,245.239 123.281,244.220 122.524 C 243.431 121.937,243.443 121.924,244.547 122.176 C 245.177 122.321,246.212 122.542,246.847 122.669 M184.066 131.244 C 181.294 131.566,176.044 133.026,173.400 134.211 C 172.740 134.506,170.670 135.425,168.800 136.251 C 166.930 137.078,165.130 137.968,164.800 138.229 C 164.470 138.490,163.625 138.995,162.921 139.351 C 157.856 141.916,147.014 155.068,143.024 163.490 C 134.767 180.915,139.306 215.055,151.322 225.910 C 152.025 226.545,152.796 227.404,153.035 227.820 C 153.275 228.235,153.933 228.850,154.497 229.187 C 155.495 229.783,156.606 230.630,159.368 232.900 C 161.529 234.677,161.825 234.564,165.386 230.600 C 166.177 229.720,167.067 228.730,167.365 228.400 C 168.105 227.581,170.525 222.330,171.513 219.400 C 172.699 215.881,173.198 210.775,173.199 202.127 C 173.200 193.306,173.313 193.051,176.369 194.980 C 178.368 196.243,178.801 196.247,180.605 195.022 C 182.564 193.693,185.731 187.183,184.997 185.995 C 184.750 185.596,186.302 181.231,186.844 180.800 C 186.982 180.690,187.216 177.990,187.363 174.800 C 187.879 163.630,188.812 154.869,189.600 153.800 C 189.763 153.580,190.117 152.410,190.388 151.200 C 191.408 146.637,194.350 140.369,197.703 135.611 C 198.841 133.997,198.578 133.421,196.269 132.464 C 194.582 131.765,188.148 130.623,187.200 130.855 C 187.090 130.882,185.680 131.057,184.066 131.244 M158.800 134.738 C 158.800 135.269,157.225 136.558,156.933 136.267 C 156.789 136.123,156.998 135.644,157.398 135.202 C 158.152 134.369,158.800 134.154,158.800 134.738 M250.068 143.845 C 253.101 144.617,253.847 144.971,255.336 146.349 C 259.652 150.344,257.508 154.388,252.436 151.818 C 250.990 151.085,249.547 150.767,246.749 150.564 C 240.696 150.123,239.173 148.530,242.100 145.700 C 244.614 143.268,246.280 142.880,250.068 143.845 M215.147 147.509 C 217.492 149.402,216.657 152.000,213.704 152.000 C 212.066 152.000,208.191 153.139,206.050 154.250 C 203.351 155.650,200.873 155.921,199.712 154.941 C 194.552 150.585,209.839 143.225,215.147 147.509 M247.695 156.169 C 250.435 156.572,250.596 156.872,251.190 162.698 C 252.551 176.052,245.808 172.087,243.200 158.000 C 242.814 155.912,243.455 155.018,244.941 155.571 C 245.414 155.747,246.653 156.016,247.695 156.169 M212.400 161.844 C 212.400 165.896,212.297 166.542,211.341 168.467 C 207.669 175.864,205.558 173.957,205.046 162.778 L 204.853 158.556 206.126 158.005 C 212.147 155.401,212.400 155.556,212.400 161.844 M238.016 175.415 C 240.918 178.041,236.572 181.755,228.869 183.231 C 226.588 183.668,226.360 183.800,226.563 184.558 C 226.687 185.021,226.792 186.075,226.795 186.900 C 226.798 187.982,226.972 188.400,227.416 188.400 C 227.755 188.400,228.757 188.770,229.643 189.222 C 232.355 190.605,234.923 190.704,236.377 189.481 C 238.652 187.567,240.302 187.659,239.796 189.672 C 239.175 192.148,232.859 193.706,230.611 191.937 C 228.454 190.241,225.343 190.497,222.441 192.610 C 220.260 194.199,218.677 193.885,215.847 191.301 C 213.414 189.081,214.604 187.944,217.205 190.004 C 218.974 191.405,219.932 191.245,222.321 189.147 C 223.428 188.176,223.956 187.971,224.883 188.157 C 225.951 188.370,226.025 188.314,225.752 187.495 C 225.588 187.003,225.352 185.888,225.227 185.018 C 224.977 183.273,224.352 182.914,221.436 182.840 C 218.871 182.774,215.524 178.636,216.706 176.991 C 218.072 175.089,220.821 174.774,224.822 176.063 L 227.500 176.925 228.683 176.083 C 231.024 174.416,236.481 174.025,238.016 175.415 M185.683 194.882 C 183.983 198.475,183.318 198.958,179.831 199.134 L 176.933 199.281 176.881 205.740 C 176.853 209.293,176.652 213.010,176.436 214.000 C 176.220 214.990,175.767 217.150,175.429 218.800 C 174.742 222.161,173.873 224.422,172.587 226.200 C 171.648 227.497,170.400 229.796,170.400 230.227 C 170.400 231.029,178.654 227.676,180.800 226.002 C 181.880 225.160,185.871 224.000,187.689 224.000 C 188.306 224.000,189.123 223.825,189.505 223.611 C 189.887 223.398,191.462 222.863,193.004 222.423 C 194.547 221.983,196.887 220.973,198.204 220.178 C 199.522 219.383,201.770 218.083,203.200 217.288 C 207.832 214.715,209.658 212.807,207.500 212.795 C 205.070 212.781,194.439 205.860,194.407 204.270 C 194.399 203.871,189.934 197.855,189.506 197.667 C 189.339 197.594,188.924 196.574,188.583 195.401 C 187.600 192.021,187.081 191.928,185.683 194.882 M257.600 197.200 C 257.600 197.860,257.420 198.400,257.200 198.400 C 256.980 198.400,256.800 197.860,256.800 197.200 C 256.800 196.540,256.980 196.000,257.200 196.000 C 257.420 196.000,257.600 196.540,257.600 197.200 M159.200 319.522 C 159.200 319.920,158.730 320.865,158.155 321.622 C 156.128 324.296,155.667 325.930,155.143 332.300 L 154.642 338.382 156.077 342.891 C 157.835 348.414,158.640 351.309,158.997 353.388 C 159.147 354.261,160.127 356.781,161.176 358.989 C 162.225 361.196,163.223 363.451,163.393 364.001 C 164.148 366.438,165.288 368.078,166.611 368.630 C 168.407 369.381,170.449 369.393,170.165 368.653 C 170.040 368.328,170.290 368.018,170.779 367.890 C 171.353 367.740,171.525 367.470,171.346 367.003 C 171.157 366.510,171.008 366.463,170.785 366.825 C 169.570 368.790,167.733 364.309,166.622 356.671 C 166.308 354.511,165.864 352.518,165.636 352.243 C 165.407 351.968,164.943 349.416,164.604 346.572 C 164.264 343.727,163.817 340.500,163.610 339.400 C 163.403 338.300,162.941 334.790,162.582 331.600 C 161.934 325.826,161.179 321.995,160.278 319.900 C 159.738 318.645,159.200 318.456,159.200 319.522 M205.061 361.100 C 204.585 366.132,204.767 366.601,206.881 365.790 C 207.884 365.405,206.525 358.400,205.448 358.400 C 205.375 358.400,205.201 359.615,205.061 361.100 M268.800 369.000 C 268.800 369.330,268.541 369.600,268.224 369.600 C 267.555 369.600,267.104 369.029,267.478 368.656 C 267.956 368.178,268.800 368.398,268.800 369.000 " stroke="none" fill="#fcfcfc" fill-rule="evenodd"></path><path id="path3" d="M129.297 23.498 L 129.200 47.195 96.100 47.300 L 63.000 47.405 96.113 47.502 C 122.306 47.580,129.265 47.496,129.416 47.100 C 129.522 46.825,129.559 36.070,129.501 23.200 L 129.393 -0.200 129.297 23.498 M282.000 31.145 C 282.000 31.334,282.450 31.403,283.000 31.298 C 283.550 31.193,284.000 31.038,284.000 30.953 C 284.000 30.869,283.550 30.800,283.000 30.800 C 282.450 30.800,282.000 30.955,282.000 31.145 M232.575 34.100 L 231.400 35.400 232.700 34.225 C 233.415 33.579,234.000 32.994,234.000 32.925 C 234.000 32.616,233.670 32.888,232.575 34.100 M15.500 47.500 C 24.135 47.560,38.265 47.560,46.900 47.500 C 55.535 47.440,48.470 47.390,31.200 47.390 C 13.930 47.390,6.865 47.440,15.500 47.500 M145.100 47.500 C 153.515 47.560,167.285 47.560,175.700 47.500 C 184.115 47.440,177.230 47.390,160.400 47.390 C 143.570 47.390,136.685 47.440,145.100 47.500 M33.905 64.683 C 34.402 64.779,35.122 64.775,35.505 64.675 C 35.887 64.575,35.480 64.496,34.600 64.501 C 33.720 64.505,33.407 64.587,33.905 64.683 M29.300 65.076 C 29.685 65.176,30.315 65.176,30.700 65.076 C 31.085 64.975,30.770 64.893,30.000 64.893 C 29.230 64.893,28.915 64.975,29.300 65.076 M267.300 71.076 C 267.685 71.176,268.315 71.176,268.700 71.076 C 269.085 70.975,268.770 70.893,268.000 70.893 C 267.230 70.893,266.915 70.975,267.300 71.076 M86.500 76.291 C 87.325 76.378,88.675 76.378,89.500 76.291 C 90.325 76.205,89.650 76.134,88.000 76.134 C 86.350 76.134,85.675 76.205,86.500 76.291 M78.900 76.676 C 79.285 76.776,79.915 76.776,80.300 76.676 C 80.685 76.575,80.370 76.493,79.600 76.493 C 78.830 76.493,78.515 76.575,78.900 76.676 M8.661 77.100 C 8.558 77.265,9.493 77.349,10.737 77.287 C 14.644 77.092,15.115 76.922,11.924 76.860 C 10.232 76.827,8.763 76.935,8.661 77.100 M27.900 77.089 C 28.615 77.178,29.785 77.178,30.500 77.089 C 31.215 77.001,30.630 76.928,29.200 76.928 C 27.770 76.928,27.185 77.001,27.900 77.089 M66.882 77.096 C 68.358 77.173,70.878 77.173,72.482 77.097 C 74.087 77.021,72.880 76.958,69.800 76.958 C 66.720 76.957,65.407 77.019,66.882 77.096 M35.500 79.082 C 35.995 79.178,36.805 79.178,37.300 79.082 C 37.795 78.987,37.390 78.909,36.400 78.909 C 35.410 78.909,35.005 78.987,35.500 79.082 M77.700 79.087 C 78.305 79.178,79.295 79.178,79.900 79.087 C 80.505 78.995,80.010 78.920,78.800 78.920 C 77.590 78.920,77.095 78.995,77.700 79.087 M70.400 79.355 C 70.400 79.440,70.930 79.587,71.579 79.682 C 72.227 79.777,72.667 79.708,72.555 79.528 C 72.357 79.207,70.400 79.050,70.400 79.355 M21.382 79.948 C 22.188 80.121,22.653 80.519,22.842 81.201 L 23.120 82.200 23.160 81.122 C 23.197 80.130,23.353 80.032,25.100 79.894 C 26.145 79.812,25.470 79.733,23.600 79.719 C 21.730 79.706,20.732 79.809,21.382 79.948 M52.848 100.200 C 53.204 100.640,53.595 101.270,53.716 101.600 C 53.903 102.109,53.942 102.104,53.968 101.562 C 53.986 101.211,53.595 100.581,53.100 100.162 C 52.208 99.406,52.206 99.407,52.848 100.200 M232.700 116.289 C 233.415 116.378,234.585 116.378,235.300 116.289 C 236.015 116.201,235.430 116.128,234.000 116.128 C 232.570 116.128,231.985 116.201,232.700 116.289 M279.091 127.089 C 279.801 127.177,281.061 127.179,281.891 127.092 C 282.721 127.005,282.140 126.933,280.600 126.931 C 279.060 126.929,278.381 127.000,279.091 127.089 M315.983 140.500 C 316.964 141.545,317.819 142.400,317.883 142.400 C 318.184 142.400,317.866 142.041,316.100 140.383 L 314.200 138.600 315.983 140.500 M313.983 142.900 C 314.964 143.945,315.819 144.800,315.883 144.800 C 316.184 144.800,315.866 144.441,314.100 142.783 L 312.200 141.000 313.983 142.900 M157.775 142.900 L 156.600 144.200 157.900 143.025 C 159.112 141.930,159.384 141.600,159.075 141.600 C 159.006 141.600,158.421 142.185,157.775 142.900 M152.378 143.900 L 151.000 145.400 152.500 144.022 C 153.325 143.263,154.000 142.588,154.000 142.522 C 154.000 142.216,153.662 142.504,152.378 143.900 M154.181 146.500 L 152.600 148.200 154.300 146.619 C 155.881 145.148,156.184 144.800,155.881 144.800 C 155.816 144.800,155.051 145.565,154.181 146.500 M198.954 151.777 C 198.832 152.094,198.803 152.679,198.889 153.077 C 198.987 153.528,199.124 153.312,199.254 152.500 C 199.471 151.138,199.330 150.796,198.954 151.777 M191.293 163.600 C 191.293 164.370,191.375 164.685,191.476 164.300 C 191.576 163.915,191.576 163.285,191.476 162.900 C 191.375 162.515,191.293 162.830,191.293 163.600 M233.900 175.082 C 234.395 175.178,235.205 175.178,235.700 175.082 C 236.195 174.987,235.790 174.909,234.800 174.909 C 233.810 174.909,233.405 174.987,233.900 175.082 M333.293 177.200 C 333.293 177.970,333.375 178.285,333.476 177.900 C 333.576 177.515,333.576 176.885,333.476 176.500 C 333.375 176.115,333.293 176.430,333.293 177.200 M134.946 186.200 C 134.947 188.400,135.014 189.249,135.095 188.087 C 135.176 186.924,135.176 185.124,135.093 184.087 C 135.011 183.049,134.945 184.000,134.946 186.200 M191.293 184.000 C 191.293 184.770,191.375 185.085,191.476 184.700 C 191.576 184.315,191.576 183.685,191.476 183.300 C 191.375 182.915,191.293 183.230,191.293 184.000 M225.840 186.266 C 226.208 187.799,226.400 187.944,226.400 186.690 C 226.400 186.117,226.213 185.532,225.984 185.390 C 225.711 185.221,225.662 185.523,225.840 186.266 M190.914 187.800 C 190.917 188.900,190.995 189.303,191.087 188.695 C 191.179 188.086,191.177 187.186,191.082 186.695 C 190.987 186.203,190.911 186.700,190.914 187.800 M280.432 189.300 C 280.449 189.795,280.554 189.974,280.666 189.698 C 280.777 189.421,281.078 189.321,281.334 189.474 C 281.590 189.628,281.553 189.449,281.251 189.077 C 280.528 188.186,280.394 188.222,280.432 189.300 M138.093 190.400 C 138.093 191.170,138.175 191.485,138.276 191.100 C 138.376 190.715,138.376 190.085,138.276 189.700 C 138.175 189.315,138.093 189.630,138.093 190.400 M214.800 189.725 C 214.800 189.794,215.385 190.379,216.100 191.025 L 217.400 192.200 216.225 190.900 C 215.130 189.688,214.800 189.416,214.800 189.725 M219.300 193.076 C 219.685 193.176,220.315 193.176,220.700 193.076 C 221.085 192.975,220.770 192.893,220.000 192.893 C 219.230 192.893,218.915 192.975,219.300 193.076 M276.924 200.600 C 276.926 201.920,277.001 202.412,277.090 201.693 C 277.179 200.974,277.177 199.894,277.086 199.293 C 276.995 198.692,276.922 199.280,276.924 200.600 M173.734 204.000 C 173.734 205.650,173.805 206.325,173.891 205.500 C 173.978 204.675,173.978 203.325,173.891 202.500 C 173.805 201.675,173.734 202.350,173.734 204.000 M197.800 202.800 C 198.659 203.680,199.452 204.400,199.562 204.400 C 199.672 204.400,199.059 203.680,198.200 202.800 C 197.341 201.920,196.548 201.200,196.438 201.200 C 196.328 201.200,196.941 201.920,197.800 202.800 M276.514 205.800 C 276.517 206.900,276.595 207.303,276.687 206.695 C 276.779 206.086,276.777 205.186,276.682 204.695 C 276.587 204.203,276.511 204.700,276.514 205.800 M293.331 206.600 C 293.333 208.140,293.405 208.721,293.492 207.891 C 293.579 207.061,293.577 205.801,293.489 205.091 C 293.400 204.381,293.329 205.060,293.331 206.600 M195.600 205.325 C 195.600 205.394,196.185 205.979,196.900 206.625 L 198.200 207.800 197.025 206.500 C 195.930 205.288,195.600 205.016,195.600 205.325 M219.307 213.087 C 219.974 213.188,220.307 213.427,220.145 213.689 C 219.983 213.951,220.063 214.008,220.345 213.834 C 221.089 213.374,220.453 212.794,219.276 212.860 L 218.200 212.920 219.307 213.087 M278.920 216.400 C 278.920 217.610,278.995 218.105,279.087 217.500 C 279.178 216.895,279.178 215.905,279.087 215.300 C 278.995 214.695,278.920 215.190,278.920 216.400 M278.501 224.600 C 278.505 225.480,278.587 225.793,278.683 225.295 C 278.779 224.798,278.775 224.078,278.675 223.695 C 278.575 223.313,278.496 223.720,278.501 224.600 M165.775 230.500 L 164.600 231.800 165.900 230.625 C 167.112 229.530,167.384 229.200,167.075 229.200 C 167.006 229.200,166.421 229.785,165.775 230.500 M315.178 230.700 L 313.800 232.200 315.300 230.822 C 316.696 229.538,316.984 229.200,316.678 229.200 C 316.612 229.200,315.937 229.875,315.178 230.700 M155.100 237.082 C 155.595 237.178,156.405 237.178,156.900 237.082 C 157.395 236.987,156.990 236.909,156.000 236.909 C 155.010 236.909,154.605 236.987,155.100 237.082 M276.909 241.600 C 276.909 242.590,276.987 242.995,277.082 242.500 C 277.178 242.005,277.178 241.195,277.082 240.700 C 276.987 240.205,276.909 240.610,276.909 241.600 M69.375 268.100 L 68.200 269.400 69.500 268.225 C 70.712 267.130,70.984 266.800,70.675 266.800 C 70.606 266.800,70.021 267.385,69.375 268.100 M68.386 273.100 L 66.200 275.400 68.500 273.214 C 69.765 272.011,70.800 270.976,70.800 270.914 C 70.800 270.617,70.418 270.963,68.386 273.100 M108.493 282.400 C 108.493 283.170,108.575 283.485,108.676 283.100 C 108.776 282.715,108.776 282.085,108.676 281.700 C 108.575 281.315,108.493 281.630,108.493 282.400 M112.546 291.400 C 112.547 293.600,112.614 294.449,112.695 293.287 C 112.776 292.124,112.776 290.324,112.693 289.287 C 112.611 288.249,112.545 289.200,112.546 291.400 M200.302 289.400 C 200.197 289.950,200.266 290.400,200.455 290.400 C 200.645 290.400,200.800 289.950,200.800 289.400 C 200.800 288.850,200.731 288.400,200.647 288.400 C 200.562 288.400,200.407 288.850,200.302 289.400 M200.493 296.000 C 200.493 296.770,200.575 297.085,200.676 296.700 C 200.776 296.315,200.776 295.685,200.676 295.300 C 200.575 294.915,200.493 295.230,200.493 296.000 M200.893 298.800 C 200.893 299.570,200.975 299.885,201.076 299.500 C 201.176 299.115,201.176 298.485,201.076 298.100 C 200.975 297.715,200.893 298.030,200.893 298.800 M203.309 299.200 C 203.309 300.190,203.387 300.595,203.482 300.100 C 203.578 299.605,203.578 298.795,203.482 298.300 C 203.387 297.805,203.309 298.210,203.309 299.200 M246.120 304.400 C 246.120 305.610,246.195 306.105,246.287 305.500 C 246.378 304.895,246.378 303.905,246.287 303.300 C 246.195 302.695,246.120 303.190,246.120 304.400 M48.046 304.300 C 47.994 305.310,48.701 305.522,49.054 304.602 C 49.181 304.274,49.473 304.121,49.704 304.264 C 49.966 304.426,50.003 304.328,49.801 304.001 C 49.546 303.590,49.371 303.625,48.974 304.168 C 48.500 304.817,48.459 304.814,48.281 304.129 C 48.130 303.545,48.084 303.579,48.046 304.300 M200.493 305.200 C 200.493 305.970,200.575 306.285,200.676 305.900 C 200.776 305.515,200.776 304.885,200.676 304.500 C 200.575 304.115,200.493 304.430,200.493 305.200 M147.600 309.200 C 147.600 309.420,147.791 309.600,148.024 309.600 C 148.257 309.600,148.355 309.750,148.241 309.933 C 148.128 310.117,148.298 310.267,148.619 310.267 C 149.102 310.267,149.089 310.140,148.540 309.533 C 147.784 308.698,147.600 308.633,147.600 309.200 M244.934 312.000 C 244.934 313.650,245.005 314.325,245.091 313.500 C 245.178 312.675,245.178 311.325,245.091 310.500 C 245.005 309.675,244.934 310.350,244.934 312.000 M204.509 312.400 C 204.509 313.390,204.587 313.795,204.682 313.300 C 204.778 312.805,204.778 311.995,204.682 311.500 C 204.587 311.005,204.509 311.410,204.509 312.400 M271.301 312.200 C 271.305 313.080,271.387 313.393,271.483 312.895 C 271.579 312.398,271.575 311.678,271.475 311.295 C 271.375 310.913,271.296 311.320,271.301 312.200 M267.740 316.400 C 267.740 318.270,267.809 319.035,267.893 318.100 C 267.977 317.165,267.977 315.635,267.893 314.700 C 267.809 313.765,267.740 314.530,267.740 316.400 M158.950 318.187 C 158.826 318.510,158.817 319.005,158.931 319.287 C 159.044 319.569,159.151 319.410,159.168 318.933 C 159.186 318.457,159.425 317.976,159.700 317.865 C 160.092 317.707,160.089 317.656,159.687 317.632 C 159.406 317.614,159.074 317.864,158.950 318.187 M271.328 320.400 C 271.328 321.830,271.401 322.415,271.489 321.700 C 271.578 320.985,271.578 319.815,271.489 319.100 C 271.401 318.385,271.328 318.970,271.328 320.400 M204.920 321.200 C 204.920 322.410,204.995 322.905,205.087 322.300 C 205.178 321.695,205.178 320.705,205.087 320.100 C 204.995 319.495,204.920 319.990,204.920 321.200 M50.909 325.200 C 50.909 326.190,50.987 326.595,51.082 326.100 C 51.178 325.605,51.178 324.795,51.082 324.300 C 50.987 323.805,50.909 324.210,50.909 325.200 M241.701 329.400 C 241.705 330.280,241.787 330.593,241.883 330.095 C 241.979 329.598,241.975 328.878,241.875 328.495 C 241.775 328.113,241.696 328.520,241.701 329.400 M244.965 334.800 C 244.965 338.650,245.025 340.225,245.098 338.300 C 245.171 336.375,245.171 333.225,245.098 331.300 C 245.025 329.375,244.965 330.950,244.965 334.800 M118.942 331.800 C 118.941 333.780,119.008 334.640,119.092 333.712 C 119.176 332.784,119.177 331.164,119.095 330.112 C 119.012 329.060,118.943 329.820,118.942 331.800 M200.528 332.400 C 200.528 333.830,200.601 334.415,200.689 333.700 C 200.778 332.985,200.778 331.815,200.689 331.100 C 200.601 330.385,200.528 330.970,200.528 332.400 M266.493 339.200 C 266.493 339.970,266.575 340.285,266.676 339.900 C 266.776 339.515,266.776 338.885,266.676 338.500 C 266.575 338.115,266.493 338.430,266.493 339.200 M200.920 340.400 C 200.920 341.610,200.995 342.105,201.087 341.500 C 201.178 340.895,201.178 339.905,201.087 339.300 C 200.995 338.695,200.920 339.190,200.920 340.400 M241.309 345.600 C 241.309 346.590,241.387 346.995,241.482 346.500 C 241.578 346.005,241.578 345.195,241.482 344.700 C 241.387 344.205,241.309 344.610,241.309 345.600 M120.246 347.823 C 120.116 348.163,120.172 348.341,120.370 348.218 C 120.569 348.095,120.823 348.221,120.934 348.498 C 121.060 348.810,121.149 348.744,121.168 348.324 C 121.211 347.413,120.543 347.050,120.246 347.823 M200.893 356.000 C 200.893 356.770,200.975 357.085,201.076 356.700 C 201.176 356.315,201.176 355.685,201.076 355.300 C 200.975 354.915,200.893 355.230,200.893 356.000 M240.893 356.400 C 240.893 357.170,240.975 357.485,241.076 357.100 C 241.176 356.715,241.176 356.085,241.076 355.700 C 240.975 355.315,240.893 355.630,240.893 356.400 M261.985 361.818 C 261.703 362.158,261.254 362.353,260.987 362.251 C 260.721 362.148,259.715 362.905,258.752 363.932 L 257.000 365.800 258.800 364.148 C 259.790 363.239,260.793 362.569,261.029 362.658 C 261.265 362.747,261.788 362.455,262.191 362.010 C 262.594 361.564,262.828 361.200,262.711 361.200 C 262.594 361.200,262.267 361.478,261.985 361.818 M110.181 364.500 L 108.600 366.200 110.300 364.619 C 111.881 363.148,112.184 362.800,111.881 362.800 C 111.816 362.800,111.051 363.565,110.181 364.500 M170.400 365.616 C 170.400 366.293,170.494 366.344,170.958 365.916 C 171.534 365.384,171.439 364.800,170.776 364.800 C 170.569 364.800,170.400 365.167,170.400 365.616 M214.400 365.725 C 214.400 365.794,214.985 366.379,215.700 367.025 L 217.000 368.200 215.825 366.900 C 214.730 365.688,214.400 365.416,214.400 365.725 M62.800 368.600 C 63.546 369.370,64.247 370.000,64.357 370.000 C 64.467 370.000,63.946 369.370,63.200 368.600 C 62.454 367.830,61.753 367.200,61.643 367.200 C 61.533 367.200,62.054 367.830,62.800 368.600 M205.091 369.489 C 205.801 369.577,207.061 369.579,207.891 369.492 C 208.721 369.405,208.140 369.333,206.600 369.331 C 205.060 369.329,204.381 369.400,205.091 369.489 M225.700 370.687 C 226.305 370.778,227.295 370.778,227.900 370.687 C 228.505 370.595,228.010 370.520,226.800 370.520 C 225.590 370.520,225.095 370.595,225.700 370.687 M238.181 372.500 L 236.600 374.200 238.394 372.600 C 239.380 371.720,240.265 370.955,240.361 370.900 C 240.456 370.845,240.360 370.800,240.148 370.800 C 239.936 370.800,239.051 371.565,238.181 372.500 M132.800 372.925 C 132.800 372.994,133.385 373.579,134.100 374.225 L 135.400 375.400 134.225 374.100 C 133.130 372.888,132.800 372.616,132.800 372.925 M82.200 374.400 C 82.064 374.620,82.064 374.980,82.200 375.200 C 82.344 375.433,81.895 375.619,81.124 375.646 C 80.334 375.674,80.105 375.771,80.558 375.887 C 81.906 376.232,86.647 375.570,85.884 375.143 C 85.446 374.898,84.917 374.923,84.374 375.214 C 83.334 375.770,82.238 375.400,82.546 374.597 C 82.805 373.922,82.576 373.792,82.200 374.400 M225.907 375.890 C 226.626 375.979,227.706 375.977,228.307 375.886 C 228.908 375.795,228.320 375.722,227.000 375.724 C 225.680 375.726,225.188 375.801,225.907 375.890 M143.300 378.676 C 143.685 378.776,144.315 378.776,144.700 378.676 C 145.085 378.575,144.770 378.493,144.000 378.493 C 143.230 378.493,142.915 378.575,143.300 378.676 " stroke="none" fill="#cccccc" fill-rule="evenodd"></path><path id="path4" d="M62.988 23.600 C 62.988 36.690,63.038 42.045,63.100 35.500 C 63.161 28.955,63.161 18.245,63.100 11.700 C 63.038 5.155,62.988 10.510,62.988 23.600 M190.988 23.600 C 190.988 36.690,191.038 42.045,191.100 35.500 C 191.161 28.955,191.161 18.245,191.100 11.700 C 191.038 5.155,190.988 10.510,190.988 23.600 M36.500 64.676 C 36.885 64.776,37.515 64.776,37.900 64.676 C 38.285 64.575,37.970 64.493,37.200 64.493 C 36.430 64.493,36.115 64.575,36.500 64.676 M191.320 166.800 C 191.320 168.010,191.395 168.505,191.487 167.900 C 191.578 167.295,191.578 166.305,191.487 165.700 C 191.395 165.095,191.320 165.590,191.320 166.800 M187.714 177.000 C 187.717 178.100,187.795 178.503,187.887 177.895 C 187.979 177.286,187.977 176.386,187.882 175.895 C 187.787 175.403,187.711 175.900,187.714 177.000 M176.509 204.800 C 176.509 205.790,176.587 206.195,176.682 205.700 C 176.778 205.205,176.778 204.395,176.682 203.900 C 176.587 203.405,176.509 203.810,176.509 204.800 M266.893 305.600 C 266.893 306.370,266.975 306.685,267.076 306.300 C 267.176 305.915,267.176 305.285,267.076 304.900 C 266.975 304.515,266.893 304.830,266.893 305.600 M200.101 313.800 C 200.105 314.680,200.187 314.993,200.283 314.495 C 200.379 313.998,200.375 313.278,200.275 312.895 C 200.175 312.513,200.096 312.920,200.101 313.800 M240.893 314.400 C 240.893 315.170,240.975 315.485,241.076 315.100 C 241.176 314.715,241.176 314.085,241.076 313.700 C 240.975 313.315,240.893 313.630,240.893 314.400 M271.324 315.800 C 271.326 317.120,271.401 317.612,271.490 316.893 C 271.579 316.174,271.577 315.094,271.486 314.493 C 271.395 313.892,271.322 314.480,271.324 315.800 M204.901 317.800 C 204.905 318.680,204.987 318.993,205.083 318.495 C 205.179 317.998,205.175 317.278,205.075 316.895 C 204.975 316.513,204.896 316.920,204.901 317.800 M154.893 330.800 C 154.893 331.570,154.975 331.885,155.076 331.500 C 155.176 331.115,155.176 330.485,155.076 330.100 C 154.975 329.715,154.893 330.030,154.893 330.800 M240.928 352.800 C 240.928 354.230,241.001 354.815,241.089 354.100 C 241.178 353.385,241.178 352.215,241.089 351.500 C 241.001 350.785,240.928 351.370,240.928 352.800 M204.901 359.000 C 204.905 359.880,204.987 360.193,205.083 359.695 C 205.179 359.198,205.175 358.478,205.075 358.095 C 204.975 357.713,204.896 358.120,204.901 359.000 " stroke="none" fill="#d4d4d4" fill-rule="evenodd"></path><path id="path5" d="M18.915 77.096 C 20.188 77.176,22.168 77.175,23.315 77.094 C 24.462 77.014,23.420 76.949,21.000 76.950 C 18.580 76.951,17.642 77.016,18.915 77.096 M205.309 161.200 C 205.309 162.190,205.387 162.595,205.482 162.100 C 205.578 161.605,205.578 160.795,205.482 160.300 C 205.387 159.805,205.309 160.210,205.309 161.200 M138.124 185.800 C 138.126 187.120,138.201 187.612,138.290 186.893 C 138.379 186.174,138.377 185.094,138.286 184.493 C 138.195 183.892,138.122 184.480,138.124 185.800 M176.501 201.800 C 176.505 202.680,176.587 202.993,176.683 202.495 C 176.779 201.998,176.775 201.278,176.675 200.895 C 176.575 200.513,176.496 200.920,176.501 201.800 M200.093 311.200 C 200.093 311.970,200.175 312.285,200.276 311.900 C 200.376 311.515,200.376 310.885,200.276 310.500 C 200.175 310.115,200.093 310.430,200.093 311.200 M50.901 316.200 C 50.905 317.080,50.987 317.393,51.083 316.895 C 51.179 316.398,51.175 315.678,51.075 315.295 C 50.975 314.913,50.896 315.320,50.901 316.200 M50.909 320.400 C 50.909 321.390,50.987 321.795,51.082 321.300 C 51.178 320.805,51.178 319.995,51.082 319.500 C 50.987 319.005,50.909 319.410,50.909 320.400 M200.109 320.800 C 200.109 321.790,200.187 322.195,200.282 321.700 C 200.378 321.205,200.378 320.395,200.282 319.900 C 200.187 319.405,200.109 319.810,200.109 320.800 M47.309 322.400 C 47.309 323.390,47.387 323.795,47.482 323.300 C 47.578 322.805,47.578 321.995,47.482 321.500 C 47.387 321.005,47.309 321.410,47.309 322.400 M244.509 347.200 C 244.509 348.190,244.587 348.595,244.682 348.100 C 244.778 347.605,244.778 346.795,244.682 346.300 C 244.587 345.805,244.509 346.210,244.509 347.200 M240.901 349.000 C 240.905 349.880,240.987 350.193,241.083 349.695 C 241.179 349.198,241.175 348.478,241.075 348.095 C 240.975 347.713,240.896 348.120,240.901 349.000 " stroke="none" fill="#dcdcdc" fill-rule="evenodd"></path><path id="path6" d="M68.900 59.476 C 69.285 59.576,69.915 59.576,70.300 59.476 C 70.685 59.375,70.370 59.293,69.600 59.293 C 68.830 59.293,68.515 59.375,68.900 59.476 M57.305 106.687 C 57.914 106.779,58.814 106.777,59.305 106.682 C 59.797 106.587,59.300 106.511,58.200 106.514 C 57.100 106.517,56.697 106.595,57.305 106.687 M187.693 172.800 C 187.693 173.570,187.775 173.885,187.876 173.500 C 187.976 173.115,187.976 172.485,187.876 172.100 C 187.775 171.715,187.693 172.030,187.693 172.800 M277.293 176.800 C 277.293 177.570,277.375 177.885,277.476 177.500 C 277.576 177.115,277.576 176.485,277.476 176.100 C 277.375 175.715,277.293 176.030,277.293 176.800 M277.293 189.600 C 277.293 190.370,277.375 190.685,277.476 190.300 C 277.576 189.915,277.576 189.285,277.476 188.900 C 277.375 188.515,277.293 188.830,277.293 189.600 M280.528 194.000 C 280.528 195.430,280.601 196.015,280.689 195.300 C 280.778 194.585,280.778 193.415,280.689 192.700 C 280.601 191.985,280.528 192.570,280.528 194.000 M233.300 192.676 C 233.685 192.776,234.315 192.776,234.700 192.676 C 235.085 192.575,234.770 192.493,234.000 192.493 C 233.230 192.493,232.915 192.575,233.300 192.676 M296.537 199.000 C 296.539 200.760,296.609 201.430,296.693 200.489 C 296.778 199.549,296.777 198.109,296.691 197.289 C 296.605 196.470,296.536 197.240,296.537 199.000 M176.501 209.400 C 176.505 210.280,176.587 210.593,176.683 210.095 C 176.779 209.598,176.775 208.878,176.675 208.495 C 176.575 208.113,176.496 208.520,176.501 209.400 M278.493 230.400 C 278.493 231.170,278.575 231.485,278.676 231.100 C 278.776 230.715,278.776 230.085,278.676 229.700 C 278.575 229.315,278.493 229.630,278.493 230.400 M267.324 296.600 C 267.326 297.920,267.401 298.412,267.490 297.693 C 267.579 296.974,267.577 295.894,267.486 295.293 C 267.395 294.692,267.322 295.280,267.324 296.600 M204.920 313.200 C 204.920 314.410,204.995 314.905,205.087 314.300 C 205.178 313.695,205.178 312.705,205.087 312.100 C 204.995 311.495,204.920 311.990,204.920 313.200 M244.537 320.200 C 244.539 321.960,244.609 322.630,244.693 321.689 C 244.778 320.749,244.777 319.309,244.691 318.489 C 244.605 317.670,244.536 318.440,244.537 320.200 M200.101 323.800 C 200.105 324.680,200.187 324.993,200.283 324.495 C 200.379 323.998,200.375 323.278,200.275 322.895 C 200.175 322.513,200.096 322.920,200.101 323.800 M241.693 332.800 C 241.693 333.570,241.775 333.885,241.876 333.500 C 241.976 333.115,241.976 332.485,241.876 332.100 C 241.775 331.715,241.693 332.030,241.693 332.800 M245.334 334.800 C 245.334 336.450,245.405 337.125,245.491 336.300 C 245.578 335.475,245.578 334.125,245.491 333.300 C 245.405 332.475,245.334 333.150,245.334 334.800 M154.509 335.200 C 154.509 336.190,154.587 336.595,154.682 336.100 C 154.778 335.605,154.778 334.795,154.682 334.300 C 154.587 333.805,154.509 334.210,154.509 335.200 M266.093 344.400 C 266.093 345.170,266.175 345.485,266.276 345.100 C 266.376 344.715,266.376 344.085,266.276 343.700 C 266.175 343.315,266.093 343.630,266.093 344.400 M240.893 346.400 C 240.893 347.170,240.975 347.485,241.076 347.100 C 241.176 346.715,241.176 346.085,241.076 345.700 C 240.975 345.315,240.893 345.630,240.893 346.400 M201.293 348.400 C 201.293 349.170,201.375 349.485,201.476 349.100 C 201.576 348.715,201.576 348.085,201.476 347.700 C 201.375 347.315,201.293 347.630,201.293 348.400 M204.509 364.000 C 204.509 364.990,204.587 365.395,204.682 364.900 C 204.778 364.405,204.778 363.595,204.682 363.100 C 204.587 362.605,204.509 363.010,204.509 364.000 " stroke="none" fill="#e4e4e4" fill-rule="evenodd"></path><path id="path7" d="M62.588 23.800 C 62.588 37.000,62.638 42.342,62.700 35.671 C 62.761 29.001,62.761 18.201,62.700 11.671 C 62.638 5.142,62.588 10.600,62.588 23.800 M71.300 59.476 C 71.685 59.576,72.315 59.576,72.700 59.476 C 73.085 59.375,72.770 59.293,72.000 59.293 C 71.230 59.293,70.915 59.375,71.300 59.476 M9.900 76.682 C 10.395 76.778,11.205 76.778,11.700 76.682 C 12.195 76.587,11.790 76.509,10.800 76.509 C 9.810 76.509,9.405 76.587,9.900 76.682 M65.905 76.683 C 66.402 76.779,67.122 76.775,67.505 76.675 C 67.887 76.575,67.480 76.496,66.600 76.501 C 65.720 76.505,65.407 76.587,65.905 76.683 M71.500 76.682 C 71.995 76.778,72.805 76.778,73.300 76.682 C 73.795 76.587,73.390 76.509,72.400 76.509 C 71.410 76.509,71.005 76.587,71.500 76.682 M212.093 163.600 C 212.093 164.370,212.175 164.685,212.276 164.300 C 212.376 163.915,212.376 163.285,212.276 162.900 C 212.175 162.515,212.093 162.830,212.093 163.600 M187.714 169.800 C 187.717 170.900,187.795 171.303,187.887 170.695 C 187.979 170.086,187.977 169.186,187.882 168.695 C 187.787 168.203,187.711 168.700,187.714 169.800 M220.100 175.476 C 220.485 175.576,221.115 175.576,221.500 175.476 C 221.885 175.375,221.570 175.293,220.800 175.293 C 220.030 175.293,219.715 175.375,220.100 175.476 M277.357 183.200 C 277.357 186.170,277.420 187.385,277.497 185.900 C 277.574 184.415,277.574 181.985,277.497 180.500 C 277.420 179.015,277.357 180.230,277.357 183.200 M226.501 187.000 C 226.505 187.880,226.587 188.193,226.683 187.695 C 226.779 187.198,226.775 186.478,226.675 186.095 C 226.575 185.713,226.496 186.120,226.501 187.000 M173.301 196.200 C 173.305 197.080,173.387 197.393,173.483 196.895 C 173.579 196.398,173.575 195.678,173.475 195.295 C 173.375 194.913,173.296 195.320,173.301 196.200 M296.520 204.000 C 296.520 205.210,296.595 205.705,296.687 205.100 C 296.778 204.495,296.778 203.505,296.687 202.900 C 296.595 202.295,296.520 202.790,296.520 204.000 M292.928 206.400 C 292.928 207.830,293.001 208.415,293.089 207.700 C 293.178 206.985,293.178 205.815,293.089 205.100 C 293.001 204.385,292.928 204.970,292.928 206.400 M173.328 206.800 C 173.328 208.230,173.401 208.815,173.489 208.100 C 173.578 207.385,173.578 206.215,173.489 205.500 C 173.401 204.785,173.328 205.370,173.328 206.800 M296.109 209.200 C 296.109 210.190,296.187 210.595,296.282 210.100 C 296.378 209.605,296.378 208.795,296.282 208.300 C 296.187 207.805,296.109 208.210,296.109 209.200 M156.287 230.809 C 156.995 231.551,157.642 232.078,157.725 231.979 C 157.808 231.881,157.229 231.273,156.438 230.629 L 155.000 229.458 156.287 230.809 M112.934 291.600 C 112.934 293.250,113.005 293.925,113.091 293.100 C 113.178 292.275,113.178 290.925,113.091 290.100 C 113.005 289.275,112.934 289.950,112.934 291.600 M109.693 291.200 C 109.693 291.970,109.775 292.285,109.876 291.900 C 109.976 291.515,109.976 290.885,109.876 290.500 C 109.775 290.115,109.693 290.430,109.693 291.200 M267.314 292.600 C 267.317 293.700,267.395 294.103,267.487 293.495 C 267.579 292.886,267.577 291.986,267.482 291.495 C 267.387 291.003,267.311 291.500,267.314 292.600 M246.509 304.800 C 246.509 305.790,246.587 306.195,246.682 305.700 C 246.778 305.205,246.778 304.395,246.682 303.900 C 246.587 303.405,246.509 303.810,246.509 304.800 M245.314 311.800 C 245.317 312.900,245.395 313.303,245.487 312.695 C 245.579 312.086,245.577 311.186,245.482 310.695 C 245.387 310.203,245.311 310.700,245.314 311.800 M267.314 312.600 C 267.317 313.700,267.395 314.103,267.487 313.495 C 267.579 312.886,267.577 311.986,267.482 311.495 C 267.387 311.003,267.311 311.500,267.314 312.600 M267.371 325.200 C 267.371 330.150,267.428 332.175,267.499 329.700 C 267.569 327.225,267.569 323.175,267.499 320.700 C 267.428 318.225,267.371 320.250,267.371 325.200 M47.293 318.000 C 47.293 318.770,47.375 319.085,47.476 318.700 C 47.576 318.315,47.576 317.685,47.476 317.300 C 47.375 316.915,47.293 317.230,47.293 318.000 M200.093 326.400 C 200.093 327.170,200.175 327.485,200.276 327.100 C 200.376 326.715,200.376 326.085,200.276 325.700 C 200.175 325.315,200.093 325.630,200.093 326.400 M241.320 327.200 C 241.320 328.410,241.395 328.905,241.487 328.300 C 241.578 327.695,241.578 326.705,241.487 326.100 C 241.395 325.495,241.320 325.990,241.320 327.200 M271.734 328.800 C 271.734 330.450,271.805 331.125,271.891 330.300 C 271.978 329.475,271.978 328.125,271.891 327.300 C 271.805 326.475,271.734 327.150,271.734 328.800 M241.301 337.800 C 241.305 338.680,241.387 338.993,241.483 338.495 C 241.579 337.998,241.575 337.278,241.475 336.895 C 241.375 336.513,241.296 336.920,241.301 337.800 M258.778 363.500 L 257.400 365.000 258.900 363.622 C 260.296 362.338,260.584 362.000,260.278 362.000 C 260.212 362.000,259.537 362.675,258.778 363.500 M179.105 373.483 C 179.602 373.579,180.322 373.575,180.705 373.475 C 181.087 373.375,180.680 373.296,179.800 373.301 C 178.920 373.305,178.607 373.387,179.105 373.483 M182.505 373.487 C 183.114 373.579,184.014 373.577,184.505 373.482 C 184.997 373.387,184.500 373.311,183.400 373.314 C 182.300 373.317,181.897 373.395,182.505 373.487 " stroke="none" fill="#ececec" fill-rule="evenodd"></path><path id="path8" d="M290.900 36.276 C 291.285 36.376,291.915 36.376,292.300 36.276 C 292.685 36.175,292.370 36.093,291.600 36.093 C 290.830 36.093,290.515 36.175,290.900 36.276 M287.300 52.687 C 287.905 52.778,288.895 52.778,289.500 52.687 C 290.105 52.595,289.610 52.520,288.400 52.520 C 287.190 52.520,286.695 52.595,287.300 52.687 M35.505 61.483 C 36.002 61.579,36.722 61.575,37.105 61.475 C 37.487 61.375,37.080 61.296,36.200 61.301 C 35.320 61.305,35.007 61.387,35.505 61.483 M260.800 63.976 C 260.800 64.623,260.942 65.241,261.116 65.348 C 261.290 65.456,261.361 64.927,261.273 64.172 C 261.076 62.491,260.800 62.377,260.800 63.976 M36.305 65.083 C 36.802 65.179,37.522 65.175,37.905 65.075 C 38.287 64.975,37.880 64.896,37.000 64.901 C 36.120 64.905,35.807 64.987,36.305 65.083 M68.705 76.683 C 69.202 76.779,69.922 76.775,70.305 76.675 C 70.687 76.575,70.280 76.496,69.400 76.501 C 68.520 76.505,68.207 76.587,68.705 76.683 M37.293 80.400 C 37.293 81.170,37.375 81.485,37.476 81.100 C 37.576 80.715,37.576 80.085,37.476 79.700 C 37.375 79.315,37.293 79.630,37.293 80.400 M23.338 80.617 C 23.208 80.957,23.213 81.347,23.351 81.484 C 23.488 81.621,23.600 81.447,23.600 81.096 C 23.600 80.745,23.915 80.376,24.300 80.276 C 24.956 80.104,24.955 80.090,24.287 80.046 C 23.896 80.021,23.468 80.278,23.338 80.617 M29.700 87.876 C 30.085 87.976,30.715 87.976,31.100 87.876 C 31.485 87.775,31.170 87.693,30.400 87.693 C 29.630 87.693,29.315 87.775,29.700 87.876 M244.406 122.313 C 244.399 122.912,244.915 123.145,246.700 123.348 C 247.415 123.429,248.000 123.339,248.000 123.148 C 248.000 122.811,246.784 122.623,245.643 122.783 C 245.336 122.826,244.934 122.623,244.749 122.331 C 244.484 121.914,244.411 121.910,244.406 122.313 M186.505 127.487 C 187.114 127.579,188.014 127.577,188.505 127.482 C 188.997 127.387,188.500 127.311,187.400 127.314 C 186.300 127.317,185.897 127.395,186.505 127.487 M279.905 127.483 C 280.402 127.579,281.122 127.575,281.505 127.475 C 281.887 127.375,281.480 127.296,280.600 127.301 C 279.720 127.305,279.407 127.387,279.905 127.483 M311.200 140.600 C 311.946 141.370,312.647 142.000,312.757 142.000 C 312.867 142.000,312.346 141.370,311.600 140.600 C 310.854 139.830,310.153 139.200,310.043 139.200 C 309.933 139.200,310.454 139.830,311.200 140.600 M156.575 144.500 L 155.400 145.800 156.700 144.625 C 157.912 143.530,158.184 143.200,157.875 143.200 C 157.806 143.200,157.221 143.785,156.575 144.500 M246.500 143.476 C 246.885 143.576,247.515 143.576,247.900 143.476 C 248.285 143.375,247.970 143.293,247.200 143.293 C 246.430 143.293,246.115 143.375,246.500 143.476 M194.154 149.777 C 194.032 150.094,194.003 150.679,194.089 151.077 C 194.187 151.528,194.324 151.312,194.454 150.500 C 194.671 149.138,194.530 148.796,194.154 149.777 M243.705 150.287 C 244.314 150.379,245.214 150.377,245.705 150.282 C 246.197 150.187,245.700 150.111,244.600 150.114 C 243.500 150.117,243.097 150.195,243.705 150.287 M280.142 175.800 C 280.141 177.780,280.208 178.640,280.292 177.712 C 280.376 176.784,280.377 175.164,280.295 174.112 C 280.212 173.060,280.143 173.820,280.142 175.800 M192.124 175.800 C 192.126 177.120,192.201 177.612,192.290 176.893 C 192.379 176.174,192.377 175.094,192.286 174.493 C 192.195 173.892,192.122 174.480,192.124 175.800 M187.334 177.200 C 187.334 178.850,187.405 179.525,187.491 178.700 C 187.578 177.875,187.578 176.525,187.491 175.700 C 187.405 174.875,187.334 175.550,187.334 177.200 M333.728 182.400 C 333.728 183.830,333.801 184.415,333.889 183.700 C 333.978 182.985,333.978 181.815,333.889 181.100 C 333.801 180.385,333.728 180.970,333.728 182.400 M138.546 186.200 C 138.547 188.400,138.614 189.249,138.695 188.087 C 138.776 186.924,138.776 185.124,138.693 184.087 C 138.611 183.049,138.545 184.000,138.546 186.200 M134.520 185.600 C 134.520 186.810,134.595 187.305,134.687 186.700 C 134.778 186.095,134.778 185.105,134.687 184.500 C 134.595 183.895,134.520 184.390,134.520 185.600 M256.800 197.200 C 256.800 197.860,256.870 198.400,256.955 198.400 C 257.040 198.400,257.188 197.860,257.285 197.200 C 257.382 196.540,257.313 196.000,257.131 196.000 C 256.949 196.000,256.800 196.540,256.800 197.200 M173.342 201.000 C 173.341 202.980,173.408 203.840,173.492 202.912 C 173.576 201.984,173.577 200.364,173.495 199.312 C 173.412 198.260,173.343 199.020,173.342 201.000 M176.901 204.600 C 176.905 205.480,176.987 205.793,177.083 205.295 C 177.179 204.798,177.175 204.078,177.075 203.695 C 176.975 203.313,176.896 203.720,176.901 204.600 M274.093 264.400 C 274.093 265.170,274.175 265.485,274.276 265.100 C 274.376 264.715,274.376 264.085,274.276 263.700 C 274.175 263.315,274.093 263.630,274.093 264.400 M272.101 287.000 C 272.105 287.880,272.187 288.193,272.283 287.695 C 272.379 287.198,272.375 286.478,272.275 286.095 C 272.175 285.713,272.096 286.120,272.101 287.000 M267.301 289.400 C 267.305 290.280,267.387 290.593,267.483 290.095 C 267.579 289.598,267.575 288.878,267.475 288.495 C 267.375 288.113,267.296 288.520,267.301 289.400 M246.501 301.800 C 246.505 302.680,246.587 302.993,246.683 302.495 C 246.779 301.998,246.775 301.278,246.675 300.895 C 246.575 300.513,246.496 300.920,246.501 301.800 M140.800 309.325 C 140.800 309.394,141.385 309.979,142.100 310.625 L 143.400 311.800 142.225 310.500 C 141.130 309.288,140.800 309.016,140.800 309.325 M241.293 330.400 C 241.293 331.170,241.375 331.485,241.476 331.100 C 241.576 330.715,241.576 330.085,241.476 329.700 C 241.375 329.315,241.293 329.630,241.293 330.400 M206.131 334.600 C 206.133 336.140,206.205 336.721,206.292 335.891 C 206.379 335.061,206.377 333.801,206.289 333.091 C 206.200 332.381,206.129 333.060,206.131 334.600 M206.093 342.800 C 206.093 343.570,206.175 343.885,206.276 343.500 C 206.376 343.115,206.376 342.485,206.276 342.100 C 206.175 341.715,206.093 342.030,206.093 342.800 M240.893 342.800 C 240.893 343.570,240.975 343.885,241.076 343.500 C 241.176 343.115,241.176 342.485,241.076 342.100 C 240.975 341.715,240.893 342.030,240.893 342.800 M244.128 356.000 C 244.128 357.430,244.201 358.015,244.289 357.300 C 244.378 356.585,244.378 355.415,244.289 354.700 C 244.201 353.985,244.128 354.570,244.128 356.000 M244.905 372.687 C 245.514 372.779,246.414 372.777,246.905 372.682 C 247.397 372.587,246.900 372.511,245.800 372.514 C 244.700 372.517,244.297 372.595,244.905 372.687 M131.200 376.200 C 131.946 376.970,132.647 377.600,132.757 377.600 C 132.867 377.600,132.346 376.970,131.600 376.200 C 130.854 375.430,130.153 374.800,130.043 374.800 C 129.933 374.800,130.454 375.430,131.200 376.200 M225.900 376.282 C 226.395 376.378,227.205 376.378,227.700 376.282 C 228.195 376.187,227.790 376.109,226.800 376.109 C 225.810 376.109,225.405 376.187,225.900 376.282 M81.500 378.682 C 81.995 378.778,82.805 378.778,83.300 378.682 C 83.795 378.587,83.390 378.509,82.400 378.509 C 81.410 378.509,81.005 378.587,81.500 378.682 M146.100 382.287 C 146.705 382.378,147.695 382.378,148.300 382.287 C 148.905 382.195,148.410 382.120,147.200 382.120 C 145.990 382.120,145.495 382.195,146.100 382.287 " stroke="none" fill="#f4f4f4" fill-rule="evenodd"></path></g></svg>