<svg id="svg" version="1.1" xmlns="http://www.w3.org/2000/svg" xmlns:xlink="http://www.w3.org/1999/xlink" width="400" height="400" viewBox="0, 0, 400,400"><g id="svgg"><path id="path0" d="M0.000 178.800 C 0.000 350.711,0.028 357.600,0.720 357.600 C 1.116 357.600,1.611 357.441,1.820 357.247 C 3.182 355.984,14.700 352.920,30.600 349.593 C 33.900 348.903,42.180 347.100,49.000 345.588 C 55.820 344.075,67.610 341.489,75.200 339.840 C 82.790 338.192,91.127 336.293,93.727 335.621 C 101.923 333.503,109.499 335.144,112.810 339.754 C 115.084 342.920,117.155 343.161,121.800 340.800 C 125.852 338.740,127.010 338.744,131.270 340.832 C 134.568 342.449,134.629 342.461,137.600 342.149 C 139.250 341.976,142.104 341.880,143.942 341.935 C 150.597 342.136,151.176 338.985,145.550 333.200 C 139.824 327.313,139.268 327.582,165.000 323.791 C 171.600 322.818,178.203 321.803,179.673 321.535 C 186.578 320.274,186.324 323.731,178.550 336.800 C 176.129 340.870,173.296 345.730,172.254 347.600 C 167.474 356.181,167.145 356.365,157.079 356.097 C 146.918 355.827,144.400 356.774,144.400 360.869 C 144.400 364.535,146.296 365.807,152.211 366.109 C 156.710 366.340,158.498 366.929,161.053 369.022 C 166.432 373.430,175.115 372.817,180.360 367.660 C 183.261 364.807,188.721 356.573,190.410 352.504 C 191.972 348.741,193.462 345.762,195.319 342.695 C 196.087 341.427,197.301 338.907,198.018 337.095 C 204.310 321.195,209.823 315.324,217.446 316.407 C 223.754 317.302,224.151 320.627,218.999 329.400 C 215.235 335.810,213.412 337.435,208.645 338.633 C 203.630 339.893,201.941 341.948,203.008 345.492 C 204.350 349.954,206.776 351.596,212.025 351.599 C 215.750 351.600,215.918 351.640,218.425 353.141 C 221.886 355.212,222.660 355.347,225.667 354.404 C 227.278 353.899,229.338 353.608,231.326 353.605 C 237.578 353.595,238.819 349.987,234.732 343.701 C 231.175 338.230,231.259 337.458,236.579 326.780 C 242.976 313.939,245.146 311.741,249.758 313.433 C 252.237 314.342,254.131 314.367,270.400 313.701 C 290.398 312.882,302.045 312.748,303.200 313.322 C 305.909 314.670,304.831 319.507,299.414 330.314 C 292.598 343.912,291.527 344.713,284.280 341.640 C 275.011 337.710,271.482 337.800,263.600 342.169 C 261.510 343.328,258.601 344.933,257.136 345.737 C 251.572 348.790,250.413 352.474,253.244 358.113 C 255.639 362.887,258.379 363.836,265.040 362.199 C 270.012 360.978,271.105 361.159,273.806 363.648 C 276.908 366.508,279.319 366.925,286.200 365.795 C 288.180 365.469,292.062 365.202,294.827 365.202 C 304.683 365.199,306.210 364.027,314.228 350.314 C 318.371 343.229,320.326 339.379,323.831 331.400 C 329.516 318.457,332.864 312.608,335.312 311.342 C 336.514 310.721,336.586 310.745,339.062 312.630 C 340.891 314.023,343.350 314.597,349.200 314.998 C 351.070 315.126,356.110 315.603,360.400 316.057 C 366.714 316.725,369.152 316.818,373.200 316.545 C 379.821 316.097,390.199 316.203,392.200 316.737 C 393.080 316.973,394.410 317.270,395.155 317.398 C 395.900 317.526,396.800 317.779,397.155 317.960 C 397.510 318.141,398.295 318.408,398.900 318.552 L 400.000 318.815 400.000 280.608 C 400.000 246.912,399.929 242.400,399.400 242.400 C 399.070 242.400,398.800 242.261,398.800 242.091 C 398.800 241.921,397.972 240.886,396.959 239.791 C 393.306 235.839,391.451 232.892,392.166 232.176 C 393.103 231.240,394.242 231.782,397.095 234.522 C 400.231 237.533,400.646 237.243,398.245 233.718 C 392.895 225.861,390.666 223.347,386.506 220.476 C 379.195 215.428,369.150 205.153,358.688 192.019 C 356.162 188.848,350.054 177.022,349.141 173.535 C 348.400 170.706,349.136 168.727,351.954 165.967 C 356.324 161.685,359.404 162.809,361.784 169.554 C 363.329 173.934,373.119 193.813,376.724 199.890 C 382.714 209.989,392.769 221.600,395.524 221.600 C 396.056 221.600,399.200 224.890,399.200 225.446 C 399.200 225.751,399.380 226.000,399.600 226.000 C 400.250 226.000,400.059 225.230,399.175 224.283 C 396.840 221.782,393.056 215.200,393.953 215.200 C 394.154 215.200,395.593 216.595,397.151 218.300 L 399.986 221.400 399.993 110.700 L 400.000 0.000 200.000 0.000 L 0.000 0.000 0.000 178.800 M200.784 10.075 C 201.915 11.289,201.811 13.128,200.500 15.064 C 199.895 15.957,198.815 17.558,198.100 18.622 C 196.567 20.903,196.482 22.139,197.614 25.664 C 198.086 27.133,198.584 30.257,198.798 33.089 C 199.264 39.242,199.984 40.800,202.363 40.800 C 203.407 40.800,204.508 39.425,207.005 35.000 C 210.743 28.375,211.845 27.600,217.533 27.600 C 222.038 27.600,222.464 27.289,225.172 22.016 C 228.428 15.677,230.516 15.082,233.743 19.573 C 236.318 23.159,238.443 23.653,244.928 22.174 C 250.560 20.890,263.520 21.198,268.200 22.728 C 269.520 23.159,273.660 24.179,277.400 24.995 C 287.178 27.126,288.055 27.411,290.865 29.362 C 292.259 30.330,295.290 32.349,297.600 33.849 C 314.139 44.586,319.739 49.616,325.605 59.000 C 327.118 61.420,329.625 65.110,331.176 67.200 C 334.617 71.836,336.542 75.465,339.010 81.969 C 341.198 87.735,343.800 93.243,348.570 102.200 C 353.361 111.196,356.045 119.536,358.176 132.040 C 358.751 135.415,359.749 139.476,360.539 141.660 C 364.110 151.524,366.454 164.841,364.491 164.111 C 363.821 163.862,361.605 162.426,361.200 161.979 C 354.849 154.967,341.709 169.420,346.601 178.037 C 348.857 182.012,350.900 186.462,350.900 187.400 C 350.900 187.950,351.068 188.400,351.274 188.400 C 351.479 188.400,351.536 188.580,351.400 188.800 C 350.765 189.828,348.639 187.258,346.376 182.724 C 341.805 173.569,338.068 178.221,339.115 191.765 C 339.773 200.278,340.499 202.608,344.793 210.000 C 346.739 213.349,355.196 230.236,356.570 233.517 C 361.393 245.031,360.960 255.812,355.177 268.200 C 353.012 272.837,352.586 274.047,351.161 279.600 C 349.805 284.885,348.278 288.400,346.418 290.519 C 345.115 292.002,344.027 292.438,343.969 291.500 C 343.939 291.005,343.891 290.717,343.389 288.014 C 343.038 286.126,342.188 284.568,340.218 282.200 C 339.303 281.100,338.587 279.975,338.627 279.700 C 338.667 279.425,338.723 278.962,338.750 278.672 C 338.778 278.381,340.339 276.986,342.221 275.572 C 344.103 274.157,346.164 272.217,346.802 271.260 C 353.308 261.502,350.549 232.122,342.177 222.000 C 339.509 218.775,331.726 200.486,330.610 194.821 C 330.283 193.159,329.644 189.910,329.192 187.600 C 328.739 185.290,328.067 182.140,327.699 180.600 C 326.212 174.380,327.085 151.364,329.036 145.322 C 332.455 134.738,341.978 139.406,341.995 151.674 C 342.009 161.407,347.470 157.608,348.767 146.964 C 350.024 136.649,348.508 127.591,343.359 114.645 C 337.544 100.025,334.482 94.755,323.518 80.495 C 321.292 77.600,319.108 74.129,317.405 70.780 C 315.763 67.551,313.760 64.346,312.140 62.356 C 310.701 60.589,308.481 57.581,307.206 55.671 C 303.063 49.469,295.736 43.862,284.257 38.111 C 278.323 35.137,277.930 35.024,270.200 34.048 C 266.460 33.576,260.880 32.833,257.800 32.396 C 247.589 30.949,243.145 30.900,238.609 32.187 C 235.523 33.063,234.246 33.241,232.457 33.045 C 223.684 32.085,223.568 32.128,220.331 37.462 C 216.407 43.929,214.939 44.900,209.322 44.751 C 205.123 44.639,204.380 45.000,203.567 47.548 C 201.039 55.473,197.104 54.656,196.107 46.000 C 195.802 43.349,195.446 42.159,194.492 40.600 C 193.819 39.500,192.689 36.800,191.982 34.600 C 187.887 21.873,186.017 21.217,177.470 29.509 C 171.497 35.305,169.267 37.082,164.950 39.486 C 160.709 41.847,157.654 44.759,153.920 50.000 C 152.901 51.430,151.327 53.410,150.422 54.400 C 148.270 56.756,147.785 57.701,146.374 62.285 C 143.168 72.699,135.697 83.243,126.131 90.855 C 123.084 93.280,123.042 93.258,123.095 89.293 C 123.236 78.744,130.580 66.479,140.284 60.588 C 144.552 57.997,146.655 56.188,148.188 53.792 C 148.908 52.666,150.645 50.283,152.049 48.497 C 154.917 44.846,155.126 44.546,159.657 37.600 C 165.147 29.183,173.239 21.740,179.662 19.201 C 183.647 17.625,184.711 17.018,189.352 13.677 C 195.679 9.122,198.939 8.095,200.784 10.075 M121.834 98.344 C 121.718 98.533,121.522 100.558,121.399 102.844 C 120.726 115.443,116.602 123.619,110.000 125.449 C 106.769 126.344,106.486 124.909,108.216 116.400 C 109.543 109.873,110.490 107.858,113.403 105.375 C 114.677 104.289,116.654 102.545,117.798 101.500 C 118.942 100.455,120.042 99.600,120.242 99.600 C 120.443 99.600,120.832 99.240,121.107 98.800 C 121.382 98.360,121.706 98.000,121.827 98.000 C 121.948 98.000,121.951 98.155,121.834 98.344 M218.619 126.756 C 221.123 130.187,222.473 133.285,228.421 149.255 C 229.047 150.935,229.997 153.995,230.532 156.055 C 231.067 158.115,232.082 161.510,232.786 163.600 C 234.348 168.234,234.316 168.592,231.592 176.948 C 229.275 184.052,228.582 184.962,227.194 182.713 C 225.691 180.278,224.059 174.205,223.015 167.166 C 222.630 164.569,221.710 161.012,220.637 157.966 C 219.522 154.801,218.507 150.825,217.837 147.000 C 217.259 143.700,216.332 139.290,215.779 137.200 C 213.087 127.042,214.645 121.311,218.619 126.756 M103.149 137.700 C 104.579 142.224,104.004 145.207,101.220 147.698 C 99.471 149.264,97.786 150.304,89.228 155.095 C 85.664 157.090,83.545 157.289,79.763 155.986 C 74.334 154.115,65.186 153.366,62.804 154.598 C 59.142 156.492,59.506 158.672,64.964 167.545 C 68.570 173.408,69.114 175.788,67.608 179.106 C 66.251 182.095,65.001 181.782,63.345 178.037 C 61.994 174.983,60.869 173.629,57.298 170.756 C 53.175 167.440,53.220 167.501,49.789 160.509 C 46.561 153.930,46.284 152.652,47.610 150.476 C 49.186 147.891,50.469 147.706,62.400 148.352 C 69.931 148.760,71.888 149.078,77.542 150.818 C 84.729 153.029,91.009 149.806,98.244 140.193 C 100.252 137.526,101.369 136.529,102.469 136.425 C 102.617 136.411,102.923 136.985,103.149 137.700 M242.809 153.212 C 244.578 155.445,245.494 158.087,246.386 163.532 C 248.612 177.114,247.435 180.507,242.639 174.330 C 239.206 169.908,238.314 164.100,239.816 155.944 C 240.769 150.769,240.830 150.713,242.809 153.212 M267.761 159.000 C 269.878 159.550,272.013 160.002,272.505 160.004 C 273.648 160.008,276.676 161.482,278.437 162.891 C 287.394 170.059,287.409 170.075,292.517 178.891 C 293.571 180.711,295.520 183.550,296.847 185.200 C 303.141 193.026,304.274 194.781,311.299 207.600 C 322.655 228.323,326.369 238.259,328.418 253.400 C 328.686 255.380,329.502 259.034,330.231 261.520 C 332.519 269.319,332.413 271.182,329.647 271.790 C 325.227 272.760,322.740 270.144,319.579 261.200 C 315.791 250.483,315.136 249.680,304.450 242.662 C 285.430 230.171,274.616 219.803,266.841 206.600 C 255.678 187.646,252.590 174.072,257.015 163.400 C 259.174 158.195,261.304 157.322,267.761 159.000 M79.574 164.044 C 83.053 165.381,86.465 166.083,87.949 165.767 C 88.527 165.643,90.442 165.179,92.205 164.736 C 95.728 163.849,95.513 163.830,103.889 165.743 C 112.008 167.597,113.842 169.403,114.813 176.496 C 115.531 181.738,116.561 183.454,122.556 189.400 C 125.440 192.260,128.778 195.750,129.973 197.156 C 131.328 198.750,133.393 200.517,135.459 201.850 C 139.451 204.425,140.000 205.323,140.000 209.283 C 140.000 210.890,140.280 214.544,140.622 217.402 C 141.487 224.622,141.398 228.403,140.192 235.751 C 139.134 242.201,138.536 244.174,135.694 250.600 C 134.818 252.580,133.609 255.787,133.007 257.727 L 131.912 261.255 133.189 262.313 C 136.372 264.950,136.393 265.060,136.629 280.621 C 136.746 288.278,136.920 294.670,137.016 294.826 C 137.112 294.982,137.199 302.487,137.209 311.504 C 137.231 331.430,137.202 331.293,142.142 334.699 C 146.544 337.733,146.529 338.982,142.088 339.308 C 140.610 339.417,138.406 339.736,137.191 340.016 C 135.017 340.519,134.930 340.504,131.741 339.063 C 127.509 337.153,125.821 337.142,121.944 339.000 C 118.238 340.776,116.494 340.832,114.890 339.228 C 112.356 336.695,111.770 333.929,113.436 332.370 C 114.860 331.038,116.971 328.050,117.512 326.600 C 117.759 325.940,119.170 322.340,120.647 318.600 L 123.335 311.800 123.644 304.470 C 123.815 300.439,124.186 295.759,124.468 294.070 C 125.065 290.509,125.134 275.129,124.566 272.450 L 124.195 270.699 122.495 272.399 C 119.276 275.619,114.457 288.432,113.591 296.077 C 113.115 300.282,111.990 303.111,110.003 305.100 C 108.427 306.678,107.946 306.699,104.948 305.319 C 100.519 303.280,97.234 304.043,93.400 307.999 C 88.846 312.698,86.268 312.422,85.037 307.102 C 83.123 298.831,79.141 296.035,71.800 297.808 C 64.006 299.690,62.730 297.606,64.387 285.695 C 65.722 276.099,66.748 272.457,70.459 264.155 C 80.072 242.643,80.784 234.409,73.908 224.267 C 70.457 219.178,69.200 214.544,69.200 206.907 C 69.200 198.614,70.777 191.355,75.045 180.000 C 77.119 174.483,76.669 170.579,73.404 165.767 C 70.978 162.192,73.167 161.581,79.574 164.044 M133.478 174.601 C 134.586 175.589,134.590 175.610,133.800 176.229 C 132.357 177.361,129.200 176.369,129.200 174.784 C 129.200 173.312,131.903 173.196,133.478 174.601 M174.455 185.636 C 175.034 185.946,177.420 188.034,179.758 190.275 C 184.674 194.986,186.319 196.167,191.800 198.913 C 195.772 200.903,199.315 203.227,202.000 205.602 C 202.770 206.283,205.049 207.999,207.064 209.415 C 213.088 213.647,216.476 218.740,219.253 227.734 C 219.944 229.970,221.567 234.546,222.861 237.903 C 226.029 246.122,226.545 248.453,226.252 253.200 C 225.475 265.794,219.361 277.211,215.274 273.700 C 213.645 272.301,207.748 264.467,205.681 260.956 C 202.985 256.378,197.934 250.694,189.371 242.603 C 177.347 231.244,174.004 227.888,169.864 223.025 C 167.629 220.399,164.128 216.349,162.084 214.025 C 156.078 207.196,154.880 203.004,157.132 196.707 C 160.002 188.682,169.189 182.811,174.455 185.636 M136.800 189.498 C 136.800 189.986,136.688 190.005,136.200 189.600 C 135.870 189.326,135.600 188.832,135.600 188.502 C 135.600 188.014,135.712 187.995,136.200 188.400 C 136.530 188.674,136.800 189.168,136.800 189.498 M149.072 189.900 C 149.594 191.138,149.659 192.377,149.445 197.000 L 149.186 202.600 150.948 205.600 C 151.916 207.250,153.741 210.036,155.003 211.792 C 159.729 218.368,160.010 220.040,156.665 221.680 C 154.713 222.638,153.745 223.562,150.000 228.044 C 148.602 229.717,147.814 229.005,146.849 225.200 C 144.613 216.385,144.503 213.183,146.234 207.342 C 147.821 201.989,147.546 201.025,143.389 197.375 C 141.201 195.454,138.800 192.390,138.800 191.518 C 138.800 191.401,139.546 191.205,140.458 191.083 C 141.370 190.961,143.125 190.318,144.358 189.655 C 147.453 187.990,148.287 188.034,149.072 189.900 M357.915 196.700 C 361.611 200.369,364.493 204.470,364.328 205.827 C 364.104 207.661,356.750 200.086,354.566 195.773 C 353.170 193.014,354.600 193.411,357.915 196.700 M233.076 201.237 C 236.073 202.697,236.664 202.731,247.738 202.065 L 255.677 201.588 257.547 202.961 C 260.748 205.311,262.828 208.741,264.606 214.600 C 266.198 219.847,266.680 220.589,271.460 225.166 C 278.346 231.760,280.389 234.617,277.300 233.338 C 274.842 232.320,270.784 228.759,267.579 224.807 C 265.131 221.791,264.172 220.970,261.424 219.544 C 254.780 216.097,252.431 216.743,252.384 222.028 C 252.358 224.940,250.422 229.372,249.110 229.525 C 246.789 229.795,246.235 224.314,248.057 219.095 C 249.400 215.245,248.502 212.438,245.153 210.012 C 240.014 206.289,232.829 213.331,232.720 222.198 C 232.690 224.581,232.626 224.827,232.290 223.844 C 232.073 223.208,231.623 222.368,231.289 221.979 C 227.949 218.078,226.432 208.382,228.288 202.800 C 229.368 199.553,229.519 199.504,233.076 201.237 M388.251 207.070 C 388.813 207.438,389.435 208.113,389.632 208.570 C 389.830 209.026,390.289 209.810,390.652 210.312 C 391.783 211.872,389.314 210.658,387.744 208.882 C 385.771 206.651,386.056 205.632,388.251 207.070 M105.800 214.577 C 102.260 215.860,99.325 220.948,97.157 229.564 C 96.008 234.132,96.242 236.011,98.498 240.334 C 99.493 242.240,100.626 244.970,101.017 246.400 C 102.582 252.132,104.106 253.462,108.686 253.094 C 119.909 252.193,126.742 238.490,122.399 225.598 C 120.083 218.723,111.002 212.693,105.800 214.577 M385.659 225.407 C 386.106 224.961,388.400 227.615,388.400 228.577 C 388.400 229.140,388.282 229.600,388.138 229.600 C 387.522 229.600,385.152 227.467,384.616 226.430 C 383.996 225.232,384.210 224.545,385.000 225.200 C 385.260 225.416,385.557 225.509,385.659 225.407 M114.572 226.213 C 119.094 228.359,117.645 241.738,112.424 246.041 C 108.344 249.404,105.734 247.386,104.767 240.122 C 103.704 232.136,106.959 226.370,112.940 225.641 C 113.126 225.619,113.861 225.876,114.572 226.213 M72.208 230.740 C 74.476 234.167,74.299 239.620,71.920 239.587 C 70.126 239.562,69.007 238.012,67.808 233.888 C 66.226 228.444,69.255 226.277,72.208 230.740 M286.561 238.420 C 291.313 240.198,292.424 243.319,289.494 246.657 C 288.556 247.726,286.929 249.627,285.878 250.882 C 279.956 257.958,277.904 255.666,281.401 245.881 C 282.261 243.477,282.800 241.228,282.800 240.050 C 282.800 237.238,283.079 237.117,286.561 238.420 M235.941 261.416 C 237.415 263.289,238.160 270.253,237.233 273.485 C 236.512 275.999,230.854 283.600,229.704 283.600 C 229.107 283.600,226.768 280.490,226.132 278.851 C 224.290 274.101,230.586 260.826,234.871 260.425 C 235.020 260.411,235.502 260.857,235.941 261.416 M312.955 265.619 C 315.113 268.184,316.083 274.801,314.300 274.799 C 311.550 274.794,308.958 271.062,309.292 267.587 C 309.612 264.250,311.121 263.440,312.955 265.619 M206.713 273.424 C 208.620 274.760,209.438 278.105,208.169 279.374 C 206.403 281.140,205.050 281.027,204.455 279.065 C 202.990 274.233,204.058 271.565,206.713 273.424 M321.749 277.844 C 324.241 278.693,325.156 279.997,324.241 281.394 C 322.752 283.666,320.165 283.204,318.634 280.392 C 316.968 277.331,317.931 276.544,321.749 277.844 M267.726 280.040 C 268.549 283.184,260.815 288.227,259.522 285.389 C 258.736 283.664,259.852 282.023,262.846 280.502 C 265.866 278.966,267.407 278.820,267.726 280.040 M253.245 281.632 C 257.750 284.840,256.137 290.520,246.085 306.849 C 239.172 318.079,231.045 333.964,230.615 337.088 C 230.306 339.337,230.642 340.396,232.804 344.000 C 235.932 349.213,235.409 351.160,230.761 351.603 C 229.133 351.758,226.619 352.214,225.176 352.615 L 222.552 353.346 220.185 351.973 C 216.702 349.952,216.542 349.909,212.299 349.820 C 208.173 349.734,207.124 349.272,205.893 347.000 C 204.103 343.695,205.297 341.503,209.595 340.202 C 215.656 338.366,220.246 332.154,225.808 318.254 C 228.026 312.713,230.499 308.086,234.851 301.341 C 236.575 298.668,239.276 294.078,240.853 291.141 C 245.263 282.925,245.865 282.171,249.000 280.922 C 250.432 280.352,251.759 280.574,253.245 281.632 M220.600 281.641 C 224.917 282.817,225.468 286.657,222.213 292.886 C 213.653 309.268,211.459 313.073,208.343 316.939 C 203.563 322.868,199.285 330.265,196.810 336.883 C 196.372 338.052,195.085 340.627,193.949 342.605 C 192.814 344.582,190.754 348.540,189.372 351.400 C 180.621 369.515,171.483 374.908,161.990 367.562 C 159.119 365.339,158.172 365.017,152.809 364.433 C 148.164 363.927,147.000 363.239,147.000 361.000 C 147.000 357.978,152.325 356.652,160.503 357.638 C 166.304 358.337,168.270 357.027,172.632 349.562 C 181.583 334.243,184.686 328.676,187.327 323.200 C 189.161 319.399,191.421 315.479,193.168 313.068 C 196.542 308.415,197.046 307.455,201.017 298.138 C 205.113 288.526,205.153 288.440,206.470 286.512 C 209.395 282.227,215.292 280.194,220.600 281.641 M337.306 283.372 C 342.987 286.061,342.327 288.985,330.303 314.400 C 329.106 316.930,327.844 319.630,327.499 320.400 C 327.153 321.170,325.709 324.320,324.290 327.400 C 322.870 330.480,321.121 334.350,320.403 336.000 C 317.900 341.750,311.506 353.169,308.147 357.889 C 304.584 362.895,302.828 363.638,293.600 364.042 C 289.750 364.211,286.150 364.458,285.600 364.590 C 281.204 365.648,277.727 364.915,274.897 362.332 C 272.018 359.704,270.166 359.433,264.731 360.842 C 258.087 362.564,254.034 359.824,254.009 353.593 C 253.997 350.585,255.121 349.044,259.279 346.363 C 270.401 339.194,274.075 338.621,283.304 342.614 C 289.592 345.335,291.989 344.986,294.976 340.915 C 296.607 338.691,304.094 323.840,306.192 318.666 C 307.956 314.314,309.729 310.797,312.308 306.532 C 313.396 304.734,315.053 301.494,315.993 299.332 C 322.831 283.590,328.616 279.258,337.306 283.372 M78.717 301.858 C 80.689 303.294,81.600 305.740,81.600 309.600 C 81.600 318.598,87.748 319.394,95.400 311.387 C 100.459 306.093,103.062 308.032,98.604 313.773 C 97.600 315.066,96.128 317.362,95.333 318.875 C 92.718 323.851,89.527 324.750,84.809 321.838 C 82.494 320.409,81.980 320.267,77.262 319.755 C 68.771 318.834,66.558 318.121,64.163 315.535 C 59.016 309.977,59.365 304.622,64.981 303.010 C 73.245 300.638,76.649 300.352,78.717 301.858 M107.919 313.613 C 108.068 315.386,106.709 317.536,104.849 318.471 C 101.410 320.198,101.476 316.996,104.954 313.284 C 106.587 311.543,107.756 311.672,107.919 313.613 " stroke="none" fill="#52534f" fill-rule="evenodd"></path><path id="path1" d="M399.310 238.328 C 398.926 238.569,398.922 238.980,399.294 240.218 C 399.743 241.712,399.777 241.739,399.912 240.695 C 400.132 238.987,399.874 237.974,399.310 238.328 M293.400 321.218 C 292.300 321.390,288.352 321.546,284.627 321.565 C 280.901 321.584,272.283 321.884,265.475 322.232 C 254.488 322.793,250.993 322.799,246.600 322.265 C 244.580 322.019,243.695 323.032,240.775 328.934 C 237.362 335.835,237.166 338.423,239.854 341.112 C 241.674 342.932,244.375 352.674,243.252 353.368 C 243.060 353.486,242.803 354.087,242.679 354.703 C 242.063 357.785,239.171 359.200,233.491 359.200 C 230.353 359.200,228.758 359.402,226.881 360.036 C 223.655 361.125,218.942 360.867,217.245 359.508 C 215.004 357.712,213.852 357.400,209.400 357.381 C 203.605 357.357,201.835 356.382,199.588 351.976 C 197.679 348.234,196.133 349.430,194.001 356.298 C 193.006 359.502,192.535 360.276,187.576 366.857 C 181.339 375.135,178.714 376.297,165.741 376.523 C 160.876 376.608,160.523 376.466,156.800 372.922 C 154.623 370.850,153.305 370.544,150.117 371.370 C 145.742 372.503,140.400 371.483,140.400 369.513 C 140.400 369.323,140.040 368.680,139.599 368.084 C 137.297 364.966,137.045 354.532,139.240 353.175 C 140.136 352.621,139.970 349.948,139.046 350.049 C 136.486 350.329,132.829 348.880,129.312 346.195 C 127.200 344.583,125.961 344.458,124.000 345.663 C 118.935 348.776,117.982 349.139,114.200 349.397 C 110.996 349.616,110.109 349.057,108.375 345.733 C 106.951 343.004,106.946 342.999,104.175 342.073 C 99.056 340.363,96.391 340.750,91.391 343.929 C 90.190 344.693,88.018 345.530,85.991 346.012 C 81.075 347.180,42.097 355.718,32.000 357.839 C 27.270 358.832,20.164 360.455,16.210 361.443 C 12.255 362.432,8.625 363.142,8.143 363.021 C 7.632 362.893,7.182 363.010,7.064 363.301 C 6.911 363.676,6.755 363.651,6.437 363.200 C 6.125 362.759,6.011 362.739,6.006 363.124 C 6.003 363.412,5.835 363.545,5.634 363.421 C 5.433 363.297,5.177 363.421,5.065 363.698 C 4.920 364.055,4.766 364.073,4.530 363.760 C 4.062 363.135,2.001 362.807,1.994 363.355 C 1.991 363.600,1.811 363.530,1.594 363.200 C 1.261 362.692,1.145 362.686,0.841 363.158 C 0.551 363.608,0.443 363.569,0.287 362.958 C 0.180 362.541,0.072 370.705,0.046 381.100 L 0.000 400.000 200.000 400.000 L 400.000 400.000 399.954 361.700 C 399.928 340.635,399.820 323.741,399.713 324.158 C 399.557 324.769,399.449 324.808,399.159 324.358 C 398.855 323.886,398.739 323.892,398.406 324.400 C 398.189 324.730,398.009 324.800,398.006 324.555 C 397.999 324.004,395.923 324.339,395.500 324.960 C 395.293 325.263,395.078 325.214,394.806 324.800 C 394.456 324.267,394.411 324.267,394.400 324.800 C 394.390 325.292,394.325 325.301,394.042 324.855 C 393.751 324.394,393.663 324.394,393.479 324.855 C 393.300 325.302,393.184 325.292,392.830 324.800 C 392.531 324.383,392.309 324.335,392.100 324.643 C 391.882 324.966,390.555 324.973,387.244 324.670 C 383.907 324.364,381.548 324.379,378.426 324.726 C 372.488 325.386,368.410 325.321,359.930 324.430 C 355.899 324.006,349.900 323.447,346.600 323.187 C 341.771 322.808,340.158 322.521,338.336 321.719 C 334.080 319.846,332.706 321.571,326.560 336.504 C 324.216 342.198,323.567 343.468,320.995 347.400 C 319.157 350.208,313.458 359.550,311.511 362.946 C 310.267 365.114,307.538 367.519,305.047 368.640 C 302.429 369.819,301.311 369.903,292.600 369.575 C 289.321 369.452,287.951 369.597,285.000 370.381 C 278.355 372.145,274.071 371.627,270.509 368.630 C 268.411 366.865,267.433 366.696,264.520 367.596 C 255.476 370.389,250.116 367.178,245.946 356.467 C 243.187 349.379,248.979 338.800,255.618 338.800 C 256.085 338.800,259.468 337.779,263.134 336.532 C 272.893 333.212,275.677 333.359,286.149 337.751 C 289.744 339.258,290.381 338.702,294.422 330.530 C 298.067 323.160,298.554 321.442,297.104 321.053 C 296.105 320.785,296.209 320.781,293.400 321.218 M210.179 323.781 C 207.976 324.708,205.275 328.616,204.619 331.828 C 203.920 335.247,210.400 333.941,213.249 330.090 C 215.816 326.619,215.951 324.825,213.711 323.959 C 211.939 323.273,211.447 323.249,210.179 323.781 M175.000 329.907 C 174.560 329.986,173.120 330.398,171.800 330.822 C 169.315 331.620,159.992 333.188,157.690 333.196 C 155.807 333.202,155.354 334.559,156.412 337.028 C 157.850 340.383,157.364 343.256,155.012 345.309 C 153.381 346.733,148.732 348.781,147.100 348.794 C 145.502 348.807,146.590 349.905,149.300 351.014 C 152.000 352.118,152.531 352.196,157.004 352.146 C 164.461 352.061,164.845 351.810,168.573 344.600 C 169.824 342.180,171.985 338.490,173.375 336.400 C 176.609 331.535,177.112 329.529,175.000 329.907 " stroke="none" fill="#1d1c17" fill-rule="evenodd"></path><path id="path2" d="M212.539 286.403 C 209.997 287.692,205.079 297.332,202.582 305.921 C 201.624 309.216,200.765 310.700,197.406 314.862 C 195.154 317.651,193.426 320.478,190.596 326.000 C 188.511 330.070,183.728 338.620,179.967 345.000 C 170.070 361.791,169.399 363.326,171.384 364.626 C 174.733 366.821,180.426 360.682,185.585 349.313 C 191.191 336.960,199.819 321.280,204.934 314.148 C 207.543 310.509,208.532 308.844,214.623 297.828 C 218.565 290.699,219.276 288.116,217.691 286.682 C 216.438 285.548,214.439 285.440,212.539 286.403 M328.492 286.846 C 325.233 288.459,322.998 291.903,320.183 299.646 C 318.802 303.446,317.723 305.529,315.064 309.530 C 311.170 315.388,311.223 315.290,307.553 323.542 C 301.428 337.316,295.852 346.622,292.768 348.217 C 289.029 350.150,285.812 349.788,282.266 347.034 C 276.235 342.351,270.909 342.625,264.541 347.946 C 256.472 354.689,258.619 358.576,268.800 355.657 C 278.095 352.993,279.358 353.067,279.827 356.301 C 280.368 360.029,281.557 360.662,286.856 360.043 C 288.695 359.828,292.090 359.535,294.400 359.393 C 305.083 358.735,305.662 357.883,328.087 309.800 C 337.432 289.764,337.751 288.392,333.472 286.604 C 331.531 285.793,330.519 285.843,328.492 286.846 M247.365 289.798 C 246.793 290.371,245.278 293.036,243.999 295.720 C 242.721 298.404,240.564 302.130,239.206 304.000 C 235.363 309.294,233.384 312.663,231.570 317.000 C 229.795 321.243,227.121 328.854,227.331 329.065 C 227.820 329.553,235.435 316.295,240.926 305.400 C 242.145 302.980,243.968 299.920,244.977 298.600 C 249.121 293.178,251.033 286.131,247.365 289.798 M128.133 314.883 C 122.845 322.280,121.575 331.200,125.810 331.200 C 130.669 331.200,133.905 321.957,131.481 315.000 C 130.697 312.749,129.683 312.713,128.133 314.883 " stroke="none" fill="#ce5e81" fill-rule="evenodd"></path><path id="path3" d="M97.613 188.592 C 95.704 189.822,91.918 192.999,89.451 195.443 C 87.216 197.656,81.308 198.408,80.300 196.608 C 79.199 194.641,76.051 196.406,75.027 199.564 C 72.523 207.285,73.376 215.480,77.383 222.214 C 84.974 234.969,84.463 242.389,74.421 265.200 C 71.169 272.587,70.250 275.441,69.158 281.543 C 68.705 284.070,67.992 287.232,67.573 288.569 C 65.707 294.517,67.061 296.211,72.726 295.017 C 80.961 293.281,82.633 294.475,87.429 305.512 C 88.494 307.965,89.949 307.762,93.529 304.662 C 96.760 301.864,98.675 301.279,102.473 301.930 C 109.016 303.052,110.378 301.949,110.991 295.034 C 111.147 293.267,111.720 291.098,112.577 289.028 C 113.315 287.246,114.500 283.915,115.212 281.625 C 117.574 274.020,119.782 270.093,124.710 264.730 C 129.154 259.894,130.885 256.001,129.632 253.660 C 129.011 252.500,127.930 252.550,121.743 254.030 C 97.690 259.783,97.563 259.765,96.580 250.600 C 96.247 247.503,95.689 246.213,93.672 243.883 C 88.521 237.932,90.008 227.135,98.236 210.729 C 104.019 199.198,105.728 192.987,104.032 189.663 C 102.594 186.844,100.793 186.543,97.613 188.592 M165.448 202.405 C 162.540 203.298,161.561 206.019,163.187 208.686 C 166.052 213.385,179.287 227.997,187.400 235.419 C 190.700 238.438,197.023 244.486,201.451 248.859 C 212.150 259.425,213.112 260.146,214.565 258.692 C 220.484 252.773,210.335 231.925,195.093 218.691 C 192.811 216.709,187.922 213.200,187.443 213.200 C 186.990 213.200,181.908 210.105,177.600 207.206 C 170.617 202.507,168.211 201.556,165.448 202.405 M120.974 259.590 C 122.522 260.179,122.283 261.198,119.378 266.411 C 116.488 271.596,115.584 273.735,114.143 278.800 C 112.649 284.051,112.049 285.549,110.055 289.000 C 108.454 291.770,108.173 292.599,107.963 295.168 C 107.608 299.502,106.121 300.505,102.588 298.794 C 100.844 297.950,100.000 296.682,100.000 294.905 C 100.000 294.324,99.790 292.833,99.534 291.593 C 99.107 289.523,99.171 288.931,100.325 284.369 C 101.063 281.450,101.750 277.373,101.992 274.485 C 102.799 264.838,103.862 262.757,108.956 260.851 C 112.360 259.577,119.085 258.872,120.974 259.590 M95.009 283.545 C 94.593 286.007,92.526 289.274,91.478 289.125 C 90.198 288.943,90.162 287.495,91.373 285.018 C 93.478 280.716,95.635 279.842,95.009 283.545 " stroke="none" fill="#808184" fill-rule="evenodd"></path><path id="path4" d="M114.062 259.671 C 104.921 260.817,102.931 263.259,101.992 274.485 C 101.750 277.373,101.063 281.450,100.325 284.369 C 99.171 288.931,99.107 289.523,99.534 291.593 C 99.790 292.833,100.000 294.324,100.000 294.905 C 100.000 296.682,100.844 297.950,102.588 298.794 C 106.121 300.505,107.608 299.502,107.963 295.168 C 108.173 292.599,108.454 291.770,110.055 289.000 C 112.049 285.549,112.649 284.051,114.143 278.800 C 115.584 273.735,116.488 271.596,119.378 266.411 C 123.423 259.154,122.952 258.557,114.062 259.671 " stroke="none" fill="#979b9f" fill-rule="evenodd"></path><path id="path5" d="M355.250 163.489 C 351.887 164.126,348.245 170.114,349.141 173.535 C 350.054 177.022,356.162 188.848,358.688 192.019 C 369.150 205.153,379.195 215.428,386.506 220.476 C 390.637 223.327,393.012 225.998,398.099 233.512 L 399.800 236.023 399.913 231.116 C 399.985 227.997,399.876 226.159,399.613 226.071 C 399.386 225.995,399.200 225.699,399.200 225.413 C 399.200 224.880,396.038 221.600,395.524 221.600 C 392.769 221.600,382.714 209.989,376.724 199.890 C 373.119 193.813,363.329 173.934,361.784 169.554 C 360.497 165.908,358.061 162.992,356.520 163.254 C 356.344 163.284,355.772 163.390,355.250 163.489 M130.970 262.500 C 130.545 262.995,128.877 265.005,127.264 266.967 L 124.332 270.535 124.666 273.367 C 125.169 277.637,125.046 290.158,124.464 293.921 C 124.181 295.747,123.812 300.517,123.642 304.521 L 123.335 311.800 120.647 318.600 C 119.170 322.340,117.759 325.940,117.512 326.600 C 116.971 328.050,114.860 331.038,113.436 332.370 C 111.770 333.929,112.356 336.695,114.890 339.228 C 116.494 340.832,118.238 340.776,121.944 339.000 C 125.821 337.142,127.509 337.153,131.741 339.063 C 134.930 340.504,135.017 340.519,137.191 340.016 C 138.406 339.736,140.610 339.417,142.088 339.308 C 146.529 338.982,146.544 337.733,142.142 334.699 C 137.202 331.293,137.231 331.430,137.209 311.504 C 137.199 302.487,137.112 294.982,137.016 294.826 C 136.920 294.670,136.746 288.278,136.629 280.621 C 136.419 266.785,136.412 266.690,135.447 265.050 C 134.491 263.425,132.704 261.600,132.069 261.600 C 131.890 261.600,131.396 262.005,130.970 262.500 M249.000 280.922 C 245.865 282.171,245.263 282.925,240.853 291.141 C 239.276 294.078,236.575 298.668,234.851 301.341 C 230.499 308.086,228.026 312.713,225.808 318.254 C 220.246 332.154,215.656 338.366,209.595 340.202 C 205.297 341.503,204.103 343.695,205.893 347.000 C 207.124 349.272,208.173 349.734,212.299 349.820 C 216.542 349.909,216.702 349.952,220.185 351.973 L 222.552 353.346 225.176 352.615 C 226.619 352.214,229.133 351.758,230.761 351.603 C 235.409 351.160,235.932 349.213,232.804 344.000 C 230.642 340.396,230.306 339.337,230.615 337.088 C 231.045 333.964,239.172 318.079,246.085 306.849 C 254.916 292.504,256.430 288.705,255.014 284.443 C 254.001 281.391,251.499 279.927,249.000 280.922 M212.533 281.940 C 209.946 282.834,207.956 284.335,206.470 286.512 C 205.153 288.440,205.113 288.526,201.017 298.138 C 197.046 307.455,196.542 308.415,193.168 313.068 C 191.421 315.479,189.161 319.399,187.327 323.200 C 184.686 328.676,181.583 334.243,172.632 349.562 C 168.270 357.027,166.304 358.337,160.503 357.638 C 152.325 356.652,147.000 357.978,147.000 361.000 C 147.000 363.239,148.164 363.927,152.809 364.433 C 158.172 365.017,159.119 365.339,161.990 367.562 C 171.483 374.908,180.621 369.515,189.372 351.400 C 190.754 348.540,192.814 344.582,193.949 342.605 C 195.085 340.627,196.372 338.052,196.810 336.883 C 199.285 330.265,203.563 322.868,208.343 316.939 C 211.459 313.073,213.653 309.268,222.213 292.886 C 226.882 283.950,222.162 278.613,212.533 281.940 M327.770 282.928 C 323.292 285.069,320.498 288.961,315.993 299.332 C 315.053 301.494,313.396 304.734,312.308 306.532 C 309.729 310.797,307.956 314.314,306.192 318.666 C 304.094 323.840,296.607 338.691,294.976 340.915 C 291.989 344.986,289.592 345.335,283.304 342.614 C 274.075 338.621,270.401 339.194,259.279 346.363 C 255.121 349.044,253.997 350.585,254.009 353.593 C 254.034 359.824,258.087 362.564,264.731 360.842 C 270.166 359.433,272.018 359.704,274.897 362.332 C 277.727 364.915,281.204 365.648,285.600 364.590 C 286.150 364.458,289.750 364.211,293.600 364.042 C 302.828 363.638,304.584 362.895,308.147 357.889 C 311.506 353.169,317.900 341.750,320.403 336.000 C 321.121 334.350,322.870 330.480,324.290 327.400 C 325.709 324.320,327.153 321.170,327.499 320.400 C 327.844 319.630,329.106 316.930,330.303 314.400 C 342.327 288.985,342.987 286.061,337.306 283.372 C 333.985 281.800,330.471 281.636,327.770 282.928 M217.691 286.682 C 219.276 288.116,218.565 290.699,214.623 297.828 C 208.532 308.844,207.543 310.509,204.934 314.148 C 199.819 321.280,191.191 336.960,185.585 349.313 C 180.426 360.682,174.733 366.821,171.384 364.626 C 169.399 363.326,170.070 361.791,179.967 345.000 C 183.728 338.620,188.511 330.070,190.596 326.000 C 193.426 320.478,195.154 317.651,197.406 314.862 C 200.765 310.700,201.624 309.216,202.582 305.921 C 203.559 302.560,208.699 290.419,209.864 288.723 C 211.819 285.874,215.684 284.866,217.691 286.682 M333.472 286.604 C 337.751 288.392,337.432 289.764,328.087 309.800 C 305.662 357.883,305.083 358.735,294.400 359.393 C 292.090 359.535,288.695 359.828,286.856 360.043 C 281.557 360.662,280.368 360.029,279.827 356.301 C 279.358 353.067,278.095 352.993,268.800 355.657 C 258.619 358.576,256.472 354.689,264.541 347.946 C 270.909 342.625,276.235 342.351,282.266 347.034 C 285.812 349.788,289.029 350.150,292.768 348.217 C 295.852 346.622,301.428 337.316,307.553 323.542 C 311.223 315.290,311.170 315.388,315.064 309.530 C 317.723 305.529,318.802 303.446,320.183 299.646 C 324.193 288.614,328.400 284.485,333.472 286.604 M249.200 290.360 C 249.200 291.827,247.260 295.613,244.977 298.600 C 243.968 299.920,242.145 302.980,240.926 305.400 C 235.435 316.295,227.820 329.553,227.331 329.065 C 227.121 328.854,229.795 321.243,231.570 317.000 C 233.384 312.663,235.363 309.294,239.206 304.000 C 240.564 302.130,242.721 298.404,243.999 295.720 C 247.009 289.401,249.200 287.143,249.200 290.360 M131.481 315.000 C 133.905 321.957,130.669 331.200,125.810 331.200 C 122.332 331.200,122.371 325.605,125.898 318.600 C 128.647 313.141,130.432 311.990,131.481 315.000 " stroke="none" fill="#8f3d57" fill-rule="evenodd"></path><path id="path6" d="M260.952 158.575 C 254.458 161.401,253.296 175.650,258.433 189.456 C 266.625 211.473,279.334 226.168,304.450 242.662 C 315.136 249.680,315.791 250.483,319.579 261.200 C 322.740 270.144,325.227 272.760,329.647 271.790 C 332.413 271.182,332.519 269.319,330.231 261.520 C 329.502 259.034,328.686 255.380,328.418 253.400 C 326.369 238.259,322.655 228.323,311.299 207.600 C 304.274 194.781,303.141 193.026,296.847 185.200 C 295.520 183.550,293.571 180.711,292.517 178.891 C 287.409 170.075,287.394 170.059,278.437 162.891 C 276.676 161.482,273.648 160.008,272.505 160.004 C 272.013 160.002,269.878 159.550,267.761 159.000 C 263.382 157.862,262.688 157.819,260.952 158.575 M72.900 162.656 C 72.119 162.985,72.308 164.153,73.404 165.767 C 76.669 170.579,77.119 174.483,75.045 180.000 C 70.777 191.355,69.200 198.614,69.200 206.907 C 69.200 214.544,70.457 219.178,73.908 224.267 C 80.784 234.409,80.072 242.643,70.459 264.155 C 66.748 272.457,65.722 276.099,64.387 285.695 C 62.730 297.606,64.006 299.690,71.800 297.808 C 79.141 296.035,83.123 298.831,85.037 307.102 C 86.268 312.422,88.846 312.698,93.400 307.999 C 97.234 304.043,100.519 303.280,104.948 305.319 C 107.946 306.699,108.427 306.678,110.003 305.100 C 111.990 303.111,113.115 300.282,113.591 296.077 C 114.487 288.174,119.290 275.591,122.733 272.128 C 123.787 271.068,125.899 268.672,127.425 266.804 C 128.951 264.937,130.555 262.994,130.988 262.486 C 131.421 261.979,132.445 259.514,133.264 257.008 C 134.082 254.503,135.410 251.046,136.214 249.326 C 140.476 240.220,142.018 229.055,140.622 217.402 C 140.280 214.544,140.000 210.890,140.000 209.283 C 140.000 205.323,139.451 204.425,135.459 201.850 C 133.393 200.517,131.328 198.750,129.973 197.156 C 128.778 195.750,125.440 192.260,122.556 189.400 C 116.561 183.454,115.531 181.738,114.813 176.496 C 113.842 169.403,112.008 167.597,103.889 165.743 C 95.513 163.830,95.728 163.849,92.205 164.736 C 90.442 165.179,88.527 165.643,87.949 165.767 C 86.465 166.083,83.053 165.381,79.574 164.044 C 76.490 162.858,73.765 162.291,72.900 162.656 M129.700 173.865 C 129.027 174.136,129.066 175.390,129.764 175.970 C 130.737 176.777,132.923 176.918,133.800 176.229 C 135.362 175.004,131.869 172.990,129.700 173.865 M168.934 185.158 C 161.576 187.661,156.388 194.634,156.256 202.200 C 156.182 206.426,157.178 208.446,162.084 214.025 C 164.128 216.349,167.629 220.399,169.864 223.025 C 174.004 227.888,177.347 231.244,189.371 242.603 C 197.934 250.694,202.985 256.378,205.681 260.956 C 207.748 264.467,213.645 272.301,215.274 273.700 C 219.361 277.211,225.475 265.794,226.252 253.200 C 226.545 248.453,226.029 246.122,222.861 237.903 C 221.567 234.546,219.944 229.970,219.253 227.734 C 216.476 218.740,213.088 213.647,207.064 209.415 C 205.049 207.999,202.770 206.283,202.000 205.602 C 199.315 203.227,195.772 200.903,191.800 198.913 C 186.319 196.167,184.674 194.986,179.758 190.275 C 173.928 184.686,172.419 183.972,168.934 185.158 M102.158 187.584 C 106.496 189.233,105.209 196.824,98.236 210.729 C 90.008 227.135,88.521 237.932,93.672 243.883 C 95.689 246.213,96.247 247.503,96.580 250.600 C 97.563 259.765,97.690 259.783,121.743 254.030 C 127.930 252.550,129.011 252.500,129.632 253.660 C 130.885 256.001,129.154 259.894,124.710 264.730 C 119.782 270.093,117.574 274.020,115.212 281.625 C 114.500 283.915,113.315 287.246,112.577 289.028 C 111.720 291.098,111.147 293.267,110.991 295.034 C 110.378 301.949,109.016 303.052,102.473 301.930 C 98.675 301.279,96.760 301.864,93.529 304.662 C 89.949 307.762,88.494 307.965,87.429 305.512 C 82.633 294.475,80.961 293.281,72.726 295.017 C 67.061 296.211,65.707 294.517,67.573 288.569 C 67.992 287.232,68.705 284.070,69.158 281.543 C 70.250 275.441,71.169 272.587,74.421 265.200 C 84.463 242.389,84.974 234.969,77.383 222.214 C 73.376 215.480,72.523 207.285,75.027 199.564 C 76.051 196.406,79.199 194.641,80.300 196.608 C 81.308 198.408,87.216 197.656,89.451 195.443 C 95.905 189.051,99.754 186.670,102.158 187.584 M171.400 203.303 C 172.280 203.747,175.070 205.504,177.600 207.206 C 181.908 210.105,186.990 213.200,187.443 213.200 C 187.922 213.200,192.811 216.709,195.093 218.691 C 210.335 231.925,220.484 252.773,214.565 258.692 C 213.112 260.146,212.150 259.425,201.451 248.859 C 197.023 244.486,190.700 238.438,187.400 235.419 C 179.287 227.997,166.052 213.385,163.187 208.686 C 160.262 203.889,165.612 200.382,171.400 203.303 M112.199 215.382 C 120.327 219.359,122.997 223.336,123.467 232.165 C 124.088 243.841,118.086 252.339,108.686 253.094 C 104.106 253.462,102.582 252.132,101.017 246.400 C 100.626 244.970,99.493 242.240,98.498 240.334 C 96.242 236.011,96.008 234.132,97.157 229.564 C 100.494 216.306,105.137 211.927,112.199 215.382 M93.479 281.830 C 90.878 284.431,89.661 288.866,91.478 289.125 C 93.121 289.359,95.880 283.143,94.905 281.402 C 94.594 280.846,94.408 280.902,93.479 281.830 M104.954 313.284 C 101.476 316.996,101.410 320.198,104.849 318.471 C 106.709 317.536,108.068 315.386,107.919 313.613 C 107.756 311.672,106.587 311.543,104.954 313.284 " stroke="none" fill="#737579" fill-rule="evenodd"></path><path id="path7" d="M259.900 26.676 C 259.515 26.776,259.200 27.115,259.200 27.429 C 259.200 28.115,259.001 28.136,257.925 27.560 C 257.344 27.249,257.182 27.247,257.372 27.554 C 257.557 27.853,257.230 27.897,256.320 27.694 C 255.594 27.532,253.802 27.400,252.338 27.400 C 250.874 27.400,249.749 27.282,249.838 27.137 C 249.928 26.993,249.605 26.978,249.122 27.105 C 248.349 27.307,248.328 27.364,248.951 27.583 C 249.341 27.719,249.646 27.959,249.630 28.116 C 249.527 29.103,249.777 29.214,251.908 29.130 C 254.371 29.033,255.377 29.363,254.948 30.128 C 254.769 30.446,254.858 30.437,255.221 30.100 C 255.966 29.409,256.794 29.475,257.737 30.300 C 258.226 30.727,258.407 30.779,258.203 30.432 C 257.950 30.002,258.039 29.929,258.567 30.132 C 258.951 30.279,259.351 30.400,259.456 30.400 C 259.561 30.400,259.512 30.625,259.347 30.900 C 259.133 31.255,259.237 31.245,259.707 30.865 C 260.142 30.512,260.801 30.424,261.637 30.608 C 262.611 30.822,262.778 30.979,262.353 31.281 C 261.949 31.569,262.016 31.598,262.600 31.388 C 263.040 31.230,263.940 30.962,264.600 30.791 L 265.800 30.482 264.400 30.401 C 262.285 30.279,260.524 29.647,262.400 29.684 C 263.170 29.699,264.970 29.674,266.400 29.628 L 269.000 29.546 267.000 28.991 C 264.557 28.312,264.285 28.291,264.600 28.800 C 264.744 29.033,264.345 29.200,263.647 29.200 C 262.987 29.200,262.336 29.020,262.200 28.800 C 262.060 28.574,262.388 28.400,262.953 28.400 C 264.087 28.400,264.688 27.728,264.090 27.130 C 263.852 26.892,263.598 26.879,263.463 27.098 C 263.338 27.301,262.689 27.386,262.022 27.289 C 261.354 27.191,260.907 26.951,261.028 26.755 C 261.257 26.384,261.066 26.371,259.900 26.676 M252.800 28.400 C 252.800 28.909,251.188 28.909,250.400 28.400 C 249.954 28.112,250.184 28.011,251.300 28.006 C 252.125 28.003,252.800 28.180,252.800 28.400 M256.400 28.800 C 256.400 29.301,255.976 29.301,255.200 28.800 C 254.715 28.486,254.772 28.411,255.500 28.406 C 255.995 28.403,256.400 28.580,256.400 28.800 M269.600 30.800 C 269.600 31.020,270.005 31.197,270.500 31.194 C 271.228 31.189,271.285 31.114,270.800 30.800 C 270.024 30.299,269.600 30.299,269.600 30.800 M284.832 33.886 C 284.781 34.661,286.392 35.369,286.943 34.813 C 287.287 34.467,287.227 34.419,286.700 34.619 C 286.281 34.779,286.000 34.698,286.000 34.419 C 286.000 34.163,285.835 34.055,285.634 34.179 C 285.433 34.303,285.177 34.179,285.066 33.902 C 284.914 33.526,284.855 33.522,284.832 33.886 M307.087 48.246 C 306.952 48.381,307.123 48.921,307.467 49.446 C 308.048 50.333,308.040 50.402,307.346 50.432 C 306.936 50.449,306.795 50.544,307.034 50.643 C 307.273 50.742,307.903 50.649,308.434 50.437 C 309.168 50.143,309.226 50.045,308.676 50.025 C 308.278 50.011,308.052 49.839,308.174 49.642 C 308.296 49.445,308.115 49.176,307.772 49.045 C 307.430 48.913,307.261 48.624,307.398 48.403 C 307.673 47.959,307.475 47.859,307.087 48.246 M309.780 50.100 C 309.876 50.943,309.775 51.600,309.551 51.600 C 309.332 51.600,309.264 51.420,309.400 51.200 C 309.536 50.980,309.360 50.800,309.010 50.800 C 308.496 50.800,308.455 50.956,308.800 51.600 C 309.090 52.142,309.095 52.400,308.814 52.400 C 308.586 52.400,308.400 52.574,308.400 52.787 C 308.400 53.001,308.715 53.057,309.100 52.913 C 309.735 52.675,309.744 52.720,309.200 53.400 C 308.654 54.082,308.665 54.125,309.321 53.879 C 309.757 53.716,309.944 53.767,309.795 54.008 C 309.448 54.570,309.980 56.060,310.429 55.782 C 310.633 55.656,310.806 55.878,310.813 56.276 C 310.827 57.085,312.000 58.840,312.000 58.053 C 312.000 57.778,312.172 57.659,312.383 57.789 C 312.593 57.919,312.679 58.250,312.574 58.524 C 312.468 58.799,312.671 59.378,313.024 59.811 C 313.588 60.505,313.638 60.513,313.437 59.879 C 313.304 59.458,313.373 59.260,313.605 59.403 C 313.822 59.537,314.000 59.918,314.000 60.250 C 314.000 61.301,314.849 62.568,315.187 62.022 C 315.376 61.715,315.578 61.988,315.732 62.760 C 315.903 63.615,316.152 63.916,316.559 63.760 C 316.990 63.595,317.085 63.755,316.923 64.374 C 316.752 65.028,316.847 65.157,317.356 64.961 C 317.829 64.780,317.944 64.880,317.774 65.324 C 317.483 66.083,318.302 67.708,318.815 67.390 C 319.028 67.259,319.076 67.457,318.927 67.845 C 318.769 68.258,318.824 68.433,319.065 68.283 C 319.286 68.147,319.467 68.289,319.467 68.600 C 319.467 68.911,319.313 69.070,319.124 68.953 C 318.936 68.837,319.178 69.556,319.661 70.551 C 320.145 71.546,320.719 72.250,320.938 72.115 C 321.173 71.969,321.232 72.141,321.081 72.534 C 320.940 72.900,320.999 73.200,321.213 73.200 C 321.426 73.200,321.603 73.515,321.606 73.900 C 321.611 74.498,321.669 74.513,322.000 74.000 C 322.298 73.539,322.391 73.677,322.400 74.600 C 322.409 75.523,322.502 75.661,322.800 75.200 C 323.103 74.731,323.189 74.834,323.194 75.676 C 323.201 76.848,323.808 77.511,324.134 76.702 C 324.246 76.426,324.351 76.673,324.368 77.251 C 324.386 77.829,324.674 78.530,325.009 78.808 C 325.524 79.235,325.575 79.201,325.341 78.591 C 325.150 78.094,325.210 77.959,325.532 78.158 C 325.789 78.317,326.000 78.876,326.000 79.400 C 326.000 79.924,326.180 80.464,326.400 80.600 C 326.620 80.736,326.800 80.646,326.800 80.400 C 326.800 80.154,326.963 80.054,327.162 80.177 C 327.362 80.300,327.436 80.740,327.328 81.155 C 327.219 81.570,327.326 82.031,327.565 82.178 C 327.804 82.326,328.000 82.235,328.000 81.975 C 328.000 81.624,328.156 81.632,328.605 82.004 C 329.043 82.367,329.093 82.647,328.786 83.017 C 328.490 83.373,328.489 83.608,328.781 83.788 C 329.011 83.931,329.200 83.818,329.200 83.538 C 329.200 83.198,329.433 83.262,329.900 83.729 C 330.515 84.343,330.527 84.481,330.000 84.852 C 329.471 85.225,329.472 85.253,330.013 85.084 C 330.615 84.895,332.537 86.129,332.187 86.480 C 332.089 86.578,332.591 87.185,333.304 87.829 L 334.600 89.000 333.467 87.744 C 332.256 86.400,332.658 85.727,334.200 86.520 C 334.887 86.873,334.930 86.846,334.503 86.329 C 334.230 85.997,334.103 85.630,334.221 85.513 C 334.338 85.395,334.159 85.193,333.822 85.064 C 333.485 84.935,333.252 84.957,333.305 85.114 C 333.357 85.271,333.306 85.490,333.190 85.600 C 332.935 85.843,330.800 84.211,330.800 83.773 C 330.800 83.601,331.215 83.851,331.723 84.327 C 332.422 84.984,332.758 85.082,333.109 84.731 C 333.460 84.380,333.406 84.136,332.886 83.723 C 332.246 83.215,332.251 83.186,332.959 83.289 C 333.376 83.350,333.796 83.175,333.892 82.900 C 333.988 82.625,333.877 82.400,333.646 82.400 C 333.414 82.400,333.329 82.128,333.457 81.795 C 333.611 81.395,333.504 81.262,333.143 81.401 C 332.728 81.560,332.566 81.057,332.470 79.311 C 332.401 78.047,332.153 76.895,331.921 76.751 C 331.688 76.607,331.621 76.289,331.772 76.045 C 331.931 75.788,331.773 75.600,331.400 75.600 C 331.044 75.600,330.865 75.419,331.002 75.197 C 331.139 74.976,330.954 74.681,330.592 74.542 C 330.065 74.339,330.040 74.221,330.466 73.950 C 330.871 73.694,330.825 73.611,330.276 73.606 C 329.878 73.603,329.652 73.439,329.774 73.242 C 329.896 73.045,329.715 72.776,329.372 72.645 C 329.030 72.513,328.856 72.233,328.986 72.023 C 329.116 71.812,328.833 71.432,328.357 71.177 C 327.765 70.860,327.641 70.622,327.965 70.422 C 328.277 70.229,327.403 69.053,325.396 66.965 C 322.173 63.613,321.056 62.054,320.658 60.355 C 320.282 58.753,317.281 54.493,315.992 53.732 C 315.360 53.359,314.934 52.906,315.045 52.727 C 315.156 52.547,314.956 52.400,314.600 52.400 C 314.244 52.400,314.064 52.220,314.200 52.000 C 314.337 51.778,314.036 51.597,313.524 51.594 C 312.763 51.589,312.706 51.513,313.200 51.166 C 313.662 50.841,313.507 50.779,312.528 50.898 C 311.547 51.018,311.165 50.864,310.855 50.227 C 310.571 49.642,310.435 49.575,310.387 50.000 C 310.350 50.330,310.161 50.150,309.966 49.600 C 309.672 48.771,309.640 48.856,309.780 50.100 M139.635 66.958 C 139.378 67.268,138.725 67.633,138.184 67.768 C 137.643 67.904,137.200 68.202,137.200 68.431 C 137.200 68.660,137.028 68.741,136.817 68.611 C 136.606 68.480,136.132 68.965,135.763 69.687 C 135.394 70.409,134.846 71.144,134.546 71.320 C 134.246 71.496,134.000 71.920,134.000 72.263 C 134.000 72.676,133.779 72.801,133.343 72.634 C 132.794 72.423,132.770 72.482,133.192 72.991 C 133.611 73.495,133.582 73.600,133.025 73.600 C 132.655 73.600,132.452 73.761,132.574 73.958 C 132.696 74.155,132.529 74.418,132.204 74.543 C 131.869 74.672,131.715 75.035,131.850 75.385 C 131.980 75.725,131.874 76.000,131.612 76.000 C 131.316 76.000,131.183 76.517,131.257 77.379 C 131.323 78.137,131.218 78.902,131.024 79.079 C 130.825 79.260,130.800 79.139,130.966 78.800 C 131.127 78.470,130.982 78.542,130.642 78.959 C 129.959 79.799,130.128 80.400,131.047 80.400 C 131.377 80.400,131.534 80.583,131.396 80.807 C 131.258 81.030,130.977 81.109,130.772 80.983 C 130.568 80.856,130.400 81.025,130.400 81.357 C 130.400 82.695,133.213 81.752,134.797 79.883 C 135.345 79.236,136.211 78.548,136.721 78.354 C 137.231 78.160,137.537 77.821,137.400 77.601 C 137.264 77.380,137.331 77.200,137.549 77.200 C 137.767 77.200,138.353 76.627,138.851 75.928 C 139.382 75.183,139.517 74.781,139.179 74.957 C 138.714 75.200,138.718 75.155,139.200 74.730 C 140.119 73.918,141.081 72.598,140.497 72.949 C 140.099 73.188,140.090 73.040,140.455 72.238 C 140.709 71.681,141.069 71.319,141.254 71.433 C 141.439 71.548,141.472 71.333,141.327 70.955 C 141.135 70.453,141.206 70.356,141.594 70.596 C 141.932 70.805,142.028 70.768,141.859 70.495 C 141.713 70.260,141.787 69.561,142.022 68.942 C 142.257 68.323,142.330 67.937,142.183 68.084 C 142.036 68.231,141.508 67.910,141.009 67.372 C 140.247 66.550,140.028 66.484,139.635 66.958 M116.014 110.684 C 116.006 110.951,115.631 111.513,115.179 111.934 C 114.727 112.354,114.330 113.069,114.296 113.522 C 114.262 113.974,114.110 114.268,113.959 114.175 C 113.359 113.804,113.181 115.397,113.774 115.830 C 114.312 116.224,114.276 116.337,113.496 116.714 C 112.658 117.118,112.652 117.148,113.400 117.179 C 114.065 117.207,114.099 117.277,113.600 117.600 C 113.250 117.826,113.196 117.990,113.471 117.994 C 113.730 117.997,114.024 118.315,114.124 118.700 C 114.266 119.241,114.318 119.200,114.354 118.524 C 114.379 118.042,114.563 117.546,114.763 117.423 C 114.962 117.300,115.031 117.559,114.916 117.999 C 114.801 118.440,114.896 118.800,115.126 118.800 C 115.597 118.800,116.192 117.318,116.090 116.400 C 116.047 116.009,116.101 115.974,116.245 116.300 C 116.367 116.575,116.758 116.800,117.113 116.800 C 117.616 116.800,117.653 116.693,117.280 116.320 C 116.664 115.704,116.655 115.063,117.268 115.442 C 117.583 115.636,117.652 115.513,117.481 115.066 C 117.340 114.699,117.418 114.400,117.655 114.400 C 117.892 114.400,117.986 114.142,117.865 113.826 C 117.744 113.510,117.860 113.164,118.122 113.057 C 118.477 112.913,118.472 112.855,118.100 112.832 C 117.825 112.814,117.579 112.305,117.554 111.700 C 117.519 110.888,117.455 110.804,117.309 111.378 C 117.126 112.098,117.071 112.083,116.570 111.178 C 116.272 110.640,116.022 110.418,116.014 110.684 M335.380 143.566 C 335.171 143.768,334.568 143.993,334.041 144.066 C 332.854 144.232,330.966 146.558,330.605 148.300 C 330.368 149.445,330.423 149.566,331.068 149.321 C 331.586 149.125,331.497 149.330,330.764 150.022 C 329.920 150.818,329.785 151.206,330.033 152.112 C 330.200 152.724,330.171 153.802,329.969 154.509 C 329.766 155.216,329.621 158.586,329.647 161.997 C 329.682 166.633,329.776 167.710,330.019 166.261 C 330.447 163.713,330.801 163.428,330.798 165.633 C 330.796 166.605,330.503 167.940,330.145 168.600 C 328.532 171.578,329.480 177.681,331.439 176.930 C 331.786 176.797,332.000 176.976,332.000 177.400 C 332.000 177.845,331.790 178.005,331.400 177.855 C 331.035 177.715,330.800 177.855,330.800 178.213 C 330.800 178.894,331.432 178.996,331.815 178.376 C 331.981 178.107,332.264 178.208,332.588 178.652 C 333.051 179.284,333.100 179.249,333.100 178.283 C 333.100 177.695,332.945 177.311,332.755 177.428 C 332.565 177.545,332.516 177.363,332.646 177.023 C 332.777 176.683,333.044 176.504,333.241 176.625 C 333.437 176.746,333.421 176.380,333.205 175.812 C 332.850 174.879,332.884 174.817,333.551 175.174 C 334.125 175.481,334.480 175.366,335.145 174.659 C 336.146 173.593,336.295 172.857,335.352 173.640 C 334.995 173.936,335.175 173.483,335.752 172.633 C 336.328 171.784,336.803 170.708,336.806 170.244 C 336.811 169.553,336.882 169.508,337.200 170.000 C 337.775 170.890,337.726 168.590,337.146 167.474 C 336.896 166.993,336.834 166.733,337.009 166.897 C 337.788 167.624,338.392 166.345,337.805 165.210 C 337.490 164.601,337.348 163.985,337.491 163.843 C 337.878 163.455,337.915 162.005,337.532 162.242 C 336.826 162.679,337.246 161.587,338.100 160.766 C 338.998 159.903,338.998 159.902,338.126 160.351 C 337.646 160.598,337.196 160.800,337.126 160.800 C 336.889 160.800,337.137 150.742,337.390 150.081 C 337.608 149.513,337.694 149.503,338.015 150.011 C 338.318 150.489,338.388 150.449,338.392 149.800 C 338.399 148.300,337.571 146.027,336.596 144.868 C 336.060 144.232,335.737 143.596,335.878 143.456 C 336.281 143.052,335.803 143.158,335.380 143.566 M354.814 145.574 C 354.283 146.567,354.293 146.800,354.867 146.800 C 355.123 146.800,355.220 146.686,355.081 146.547 C 354.942 146.408,355.008 145.958,355.228 145.547 C 355.448 145.136,355.538 144.800,355.428 144.800 C 355.318 144.800,355.042 145.148,354.814 145.574 M353.362 147.261 C 353.192 147.536,353.251 147.616,353.508 147.457 C 353.745 147.310,353.998 147.458,354.070 147.785 C 354.157 148.182,354.383 148.264,354.754 148.032 C 355.197 147.755,355.142 147.597,354.478 147.242 C 353.863 146.913,353.575 146.918,353.362 147.261 M222.471 150.267 C 221.523 152.039,224.262 158.286,225.283 156.679 C 226.023 155.515,225.231 152.146,223.836 150.524 C 222.927 149.467,222.902 149.462,222.471 150.267 M224.387 153.929 C 224.399 154.754,224.333 154.790,223.800 154.257 C 223.470 153.927,223.200 153.160,223.200 152.552 C 223.200 151.495,223.225 151.480,223.787 152.224 C 224.110 152.651,224.380 153.418,224.387 153.929 M54.958 154.300 C 54.839 154.685,54.581 155.302,54.385 155.671 C 54.149 156.116,54.193 156.410,54.514 156.541 C 54.868 156.685,54.837 156.854,54.400 157.163 C 53.884 157.528,53.900 157.589,54.513 157.594 C 54.905 157.597,55.370 157.209,55.547 156.732 C 55.770 156.129,55.960 156.012,56.170 156.351 C 56.637 157.107,57.559 156.131,57.303 155.151 C 57.139 154.524,57.008 154.457,56.745 154.866 C 56.458 155.310,56.341 155.308,56.048 154.855 C 55.752 154.394,55.657 154.394,55.444 154.855 C 55.305 155.155,55.266 154.995,55.358 154.500 C 55.555 153.437,55.270 153.294,54.958 154.300 M338.101 157.000 C 338.105 157.880,338.187 158.193,338.283 157.695 C 338.379 157.198,338.375 156.478,338.275 156.095 C 338.175 155.713,338.096 156.120,338.101 157.000 M55.757 157.833 C 55.891 158.181,56.003 158.676,56.006 158.933 C 56.014 159.556,56.786 158.349,56.794 157.700 C 56.797 157.425,56.511 157.200,56.157 157.200 C 55.735 157.200,55.598 157.418,55.757 157.833 M56.658 159.444 C 56.378 160.298,56.671 161.600,57.143 161.600 C 57.284 161.600,57.389 162.185,57.375 162.900 C 57.347 164.392,57.883 165.316,58.545 164.919 C 58.799 164.767,58.770 164.930,58.479 165.290 C 57.887 166.020,59.160 166.719,60.064 166.160 C 60.389 165.960,60.451 166.090,60.263 166.579 C 60.061 167.107,60.146 167.229,60.595 167.057 C 61.329 166.776,61.385 167.254,60.700 167.944 C 60.299 168.348,60.340 168.394,60.905 168.179 C 61.440 167.975,61.550 168.066,61.362 168.555 C 61.226 168.910,61.314 169.200,61.557 169.200 C 61.801 169.200,62.000 168.765,62.000 168.233 C 62.000 167.702,62.225 167.176,62.500 167.065 C 62.836 166.929,62.799 166.853,62.388 166.832 C 61.709 166.797,60.676 164.647,60.739 163.400 C 60.764 162.918,60.686 162.814,60.544 163.138 C 60.389 163.491,59.973 163.114,59.331 162.038 C 58.794 161.137,58.264 160.400,58.154 160.400 C 58.043 160.400,58.064 160.580,58.200 160.800 C 58.336 161.020,58.262 161.200,58.035 161.200 C 57.808 161.200,57.468 160.615,57.278 159.900 C 56.971 158.742,56.903 158.692,56.658 159.444 M226.643 165.833 C 226.069 167.329,226.771 172.680,227.563 172.851 C 229.470 173.262,229.495 173.226,229.480 170.068 C 229.461 166.366,227.539 163.497,226.643 165.833 M230.811 168.171 C 230.239 169.677,230.298 170.912,230.987 171.824 C 231.310 172.251,231.580 172.386,231.587 172.124 C 231.594 171.862,231.420 171.536,231.200 171.400 C 230.671 171.073,230.690 169.354,231.232 168.339 C 231.470 167.895,231.565 167.432,231.444 167.310 C 231.322 167.189,231.037 167.576,230.811 168.171 M330.505 174.498 C 330.111 176.140,330.096 176.094,330.089 173.200 C 330.083 170.562,330.132 170.357,330.498 171.498 C 330.784 172.389,330.786 173.329,330.505 174.498 M252.500 204.266 C 252.225 204.377,252.000 204.694,252.000 204.972 C 252.000 205.250,251.595 205.673,251.100 205.912 C 250.605 206.151,250.436 206.358,250.724 206.373 C 251.012 206.388,251.137 206.578,251.003 206.795 C 250.862 207.023,251.024 207.089,251.384 206.951 C 251.839 206.776,251.941 206.887,251.761 207.359 C 251.624 207.715,251.830 208.500,252.218 209.103 L 252.924 210.200 251.986 209.400 L 251.049 208.600 251.952 209.900 C 252.448 210.615,253.033 211.200,253.251 211.200 C 253.469 211.200,253.512 211.425,253.347 211.700 C 253.109 212.095,253.177 212.095,253.668 211.697 C 254.207 211.261,254.270 211.341,254.137 212.297 C 253.993 213.328,254.009 213.342,254.379 212.500 C 254.901 211.312,255.135 211.357,254.898 212.600 C 254.684 213.720,255.438 213.994,255.724 212.900 C 255.862 212.373,255.919 212.423,255.954 213.100 C 255.979 213.595,256.165 214.000,256.367 214.000 C 256.569 214.000,257.021 214.110,257.372 214.245 C 257.850 214.428,257.955 214.304,257.792 213.745 C 257.654 213.272,257.748 213.329,258.049 213.900 C 258.549 214.850,259.600 215.135,259.600 214.320 C 259.600 213.947,259.707 213.947,260.080 214.320 C 260.344 214.584,260.803 214.800,261.099 214.800 C 261.703 214.800,262.893 212.318,262.440 212.002 C 262.281 211.891,261.967 211.170,261.742 210.400 C 261.518 209.630,261.142 209.039,260.908 209.086 C 260.669 209.135,260.518 208.652,260.564 207.986 C 260.613 207.267,260.451 206.800,260.152 206.800 C 259.880 206.800,259.297 206.341,258.855 205.779 C 258.414 205.218,257.951 204.768,257.826 204.779 C 257.142 204.842,257.053 204.754,257.507 204.466 C 258.056 204.117,253.341 203.930,252.500 204.266 M231.600 206.400 C 231.160 206.840,230.812 207.425,230.827 207.700 C 230.842 207.975,231.053 207.788,231.296 207.283 C 231.551 206.754,231.970 206.456,232.289 206.579 C 232.593 206.695,232.740 206.627,232.616 206.426 C 232.492 206.225,232.707 205.978,233.095 205.877 C 233.761 205.703,233.761 205.690,233.100 205.646 C 232.715 205.621,232.040 205.960,231.600 206.400 M148.400 207.400 C 148.400 207.730,148.192 207.955,147.937 207.900 C 146.641 207.620,145.439 215.333,146.554 216.777 C 146.911 217.238,146.879 217.283,146.400 217.000 C 145.902 216.707,145.884 216.751,146.297 217.260 C 146.570 217.597,146.684 217.983,146.551 218.116 C 146.418 218.249,146.689 218.842,147.154 219.433 C 147.619 220.024,148.000 220.276,148.000 219.992 C 148.000 219.634,148.236 219.690,148.772 220.175 C 149.512 220.844,149.536 220.840,149.333 220.064 C 149.159 219.400,149.272 219.294,149.960 219.474 C 150.634 219.650,150.806 219.506,150.828 218.747 C 150.854 217.861,150.878 217.851,151.200 218.600 C 151.515 219.334,151.803 218.884,151.647 217.900 C 151.621 217.735,151.735 217.629,151.900 217.664 C 153.028 217.902,154.472 216.103,154.549 214.362 C 154.592 213.397,153.137 210.392,152.744 210.635 C 152.555 210.751,152.400 210.561,152.400 210.210 C 152.400 209.396,149.822 206.800,149.013 206.800 C 148.676 206.800,148.400 207.070,148.400 207.400 M73.200 301.697 C 73.200 301.911,72.899 301.970,72.532 301.829 C 72.165 301.688,71.760 301.741,71.632 301.946 C 71.504 302.152,71.040 302.383,70.600 302.460 C 70.160 302.537,69.562 302.870,69.270 303.200 C 68.979 303.530,68.853 303.577,68.991 303.305 C 69.156 302.978,69.029 302.891,68.621 303.047 C 68.279 303.178,68.000 303.446,68.000 303.643 C 68.000 303.839,67.773 304.000,67.496 304.000 C 67.219 304.000,66.768 304.360,66.493 304.800 C 66.125 305.389,66.116 305.600,66.459 305.600 C 66.758 305.600,66.707 305.850,66.316 306.300 C 65.396 307.358,65.026 309.242,65.795 308.947 C 66.128 308.819,66.400 308.914,66.400 309.157 C 66.400 309.401,66.175 309.606,65.900 309.613 C 65.586 309.621,65.651 309.816,66.075 310.139 C 66.447 310.421,66.807 310.890,66.875 311.180 C 67.051 311.923,68.539 313.482,68.900 313.302 C 69.065 313.220,69.200 313.343,69.200 313.576 C 69.200 313.809,69.335 313.979,69.500 313.953 C 69.665 313.927,69.890 313.942,70.000 313.986 C 70.502 314.189,72.326 314.418,73.600 314.438 C 74.897 314.459,74.927 314.485,74.000 314.802 C 73.307 315.040,73.869 315.112,75.834 315.037 C 78.757 314.926,79.782 314.618,79.383 313.972 C 79.256 313.768,79.343 313.600,79.576 313.600 C 79.809 313.600,80.018 313.105,80.040 312.500 L 80.080 311.400 80.400 312.400 C 80.898 313.956,81.092 308.732,80.648 305.698 C 80.482 304.564,78.011 301.371,77.994 302.269 C 77.991 302.451,77.824 302.341,77.623 302.024 C 77.208 301.367,73.200 301.070,73.200 301.697 " stroke="none" fill="#242c2a" fill-rule="evenodd"></path><path id="path8" d="M194.752 10.170 C 193.736 10.693,191.306 12.271,189.352 13.677 C 184.711 17.018,183.647 17.625,179.662 19.201 C 173.239 21.740,165.147 29.183,159.657 37.600 C 155.126 44.546,154.917 44.846,152.049 48.497 C 150.645 50.283,148.908 52.666,148.188 53.792 C 146.655 56.188,144.552 57.997,140.284 60.588 C 130.580 66.479,123.236 78.744,123.095 89.293 C 123.042 93.258,123.084 93.280,126.131 90.855 C 135.697 83.243,143.168 72.699,146.374 62.285 C 147.785 57.701,148.270 56.756,150.422 54.400 C 151.327 53.410,152.901 51.430,153.920 50.000 C 157.654 44.759,160.709 41.847,164.950 39.486 C 169.267 37.082,171.497 35.305,177.470 29.509 C 186.017 21.217,187.887 21.873,191.982 34.600 C 192.689 36.800,193.819 39.500,194.492 40.600 C 195.446 42.159,195.802 43.349,196.107 46.000 C 197.104 54.656,201.039 55.473,203.567 47.548 C 204.380 45.000,205.123 44.639,209.322 44.751 C 214.939 44.900,216.407 43.929,220.331 37.462 C 223.568 32.128,223.684 32.085,232.457 33.045 C 234.246 33.241,235.523 33.063,238.609 32.187 C 243.145 30.900,247.589 30.949,257.800 32.396 C 260.880 32.833,266.460 33.576,270.200 34.048 C 277.930 35.024,278.323 35.137,284.257 38.111 C 295.736 43.862,303.063 49.469,307.206 55.671 C 308.481 57.581,310.701 60.589,312.140 62.356 C 313.760 64.346,315.763 67.551,317.405 70.780 C 319.108 74.129,321.292 77.600,323.518 80.495 C 342.435 105.099,351.092 127.887,348.767 146.964 C 347.470 157.608,342.009 161.407,341.995 151.674 C 341.978 139.406,332.455 134.738,329.036 145.322 C 327.085 151.364,326.212 174.380,327.699 180.600 C 328.067 182.140,328.739 185.290,329.192 187.600 C 329.644 189.910,330.283 193.159,330.610 194.821 C 331.726 200.486,339.509 218.775,342.177 222.000 C 350.549 232.122,353.308 261.502,346.802 271.260 C 346.164 272.217,344.103 274.157,342.221 275.572 C 340.339 276.986,338.778 278.381,338.750 278.672 C 338.723 278.962,338.667 279.425,338.627 279.700 C 338.587 279.975,339.303 281.100,340.218 282.200 C 342.188 284.568,343.038 286.126,343.389 288.014 C 343.891 290.717,343.939 291.005,343.969 291.500 C 344.027 292.438,345.115 292.002,346.418 290.519 C 348.278 288.400,349.805 284.885,351.161 279.600 C 352.586 274.047,353.012 272.837,355.177 268.200 C 360.960 255.812,361.393 245.031,356.570 233.517 C 355.196 230.236,346.739 213.349,344.793 210.000 C 340.499 202.608,339.773 200.278,339.115 191.765 C 338.068 178.221,341.805 173.569,346.376 182.724 C 348.639 187.258,350.765 189.828,351.400 188.800 C 351.536 188.580,351.479 188.400,351.274 188.400 C 351.068 188.400,350.900 187.950,350.900 187.400 C 350.900 186.462,348.857 182.012,346.601 178.037 C 341.709 169.420,354.849 154.967,361.200 161.979 C 361.605 162.426,363.821 163.862,364.491 164.111 C 366.454 164.841,364.110 151.524,360.539 141.660 C 359.749 139.476,358.751 135.415,358.176 132.040 C 356.045 119.536,353.361 111.196,348.570 102.200 C 343.800 93.243,341.198 87.735,339.010 81.969 C 336.542 75.465,334.617 71.836,331.176 67.200 C 329.625 65.110,327.118 61.420,325.605 59.000 C 319.739 49.616,314.139 44.586,297.600 33.849 C 295.290 32.349,292.259 30.330,290.865 29.362 C 288.055 27.411,287.178 27.126,277.400 24.995 C 273.660 24.179,269.520 23.159,268.200 22.728 C 263.520 21.198,250.560 20.890,244.928 22.174 C 238.443 23.653,236.318 23.159,233.743 19.573 C 230.516 15.082,228.428 15.677,225.172 22.016 C 222.464 27.289,222.038 27.600,217.533 27.600 C 211.845 27.600,210.743 28.375,207.005 35.000 C 204.508 39.425,203.407 40.800,202.363 40.800 C 199.984 40.800,199.264 39.242,198.798 33.089 C 198.584 30.257,198.086 27.133,197.614 25.664 C 196.482 22.139,196.567 20.903,198.100 18.622 C 198.815 17.558,199.895 15.957,200.500 15.064 C 203.487 10.653,199.845 7.553,194.752 10.170 M261.028 26.755 C 260.907 26.951,261.354 27.191,262.022 27.289 C 262.689 27.386,263.338 27.301,263.463 27.098 C 263.598 26.879,263.852 26.892,264.090 27.130 C 264.688 27.728,264.087 28.400,262.953 28.400 C 262.388 28.400,262.060 28.574,262.200 28.800 C 262.336 29.020,262.987 29.200,263.647 29.200 C 264.345 29.200,264.744 29.033,264.600 28.800 C 264.285 28.291,264.557 28.312,267.000 28.991 L 269.000 29.546 266.400 29.628 C 264.970 29.674,263.170 29.699,262.400 29.684 C 260.524 29.647,262.285 30.279,264.400 30.401 L 265.800 30.482 264.600 30.791 C 263.940 30.962,263.040 31.230,262.600 31.388 C 262.016 31.598,261.949 31.569,262.353 31.281 C 262.778 30.979,262.611 30.822,261.637 30.608 C 260.801 30.424,260.142 30.512,259.707 30.865 C 259.237 31.245,259.133 31.255,259.347 30.900 C 259.512 30.625,259.561 30.400,259.456 30.400 C 259.351 30.400,258.951 30.279,258.567 30.132 C 258.039 29.929,257.950 30.002,258.203 30.432 C 258.407 30.779,258.226 30.727,257.737 30.300 C 256.794 29.475,255.966 29.409,255.221 30.100 C 254.858 30.437,254.769 30.446,254.948 30.128 C 255.377 29.363,254.371 29.033,251.908 29.130 C 249.777 29.214,249.527 29.103,249.630 28.116 C 249.646 27.959,249.341 27.719,248.951 27.583 C 248.328 27.364,248.349 27.307,249.122 27.105 C 249.605 26.978,249.928 26.993,249.838 27.137 C 249.749 27.282,250.874 27.400,252.338 27.400 C 253.802 27.400,255.594 27.532,256.320 27.694 C 257.230 27.897,257.557 27.853,257.372 27.554 C 257.182 27.247,257.344 27.249,257.925 27.560 C 259.001 28.136,259.200 28.115,259.200 27.429 C 259.200 26.933,259.761 26.613,260.924 26.446 C 261.102 26.421,261.148 26.560,261.028 26.755 M250.400 28.400 C 251.188 28.909,252.800 28.909,252.800 28.400 C 252.800 28.180,252.125 28.003,251.300 28.006 C 250.184 28.011,249.954 28.112,250.400 28.400 M255.200 28.800 C 255.976 29.301,256.400 29.301,256.400 28.800 C 256.400 28.580,255.995 28.403,255.500 28.406 C 254.772 28.411,254.715 28.486,255.200 28.800 M270.800 30.800 C 271.285 31.114,271.228 31.189,270.500 31.194 C 270.005 31.197,269.600 31.020,269.600 30.800 C 269.600 30.299,270.024 30.299,270.800 30.800 M285.634 34.179 C 285.835 34.055,286.000 34.163,286.000 34.419 C 286.000 34.698,286.281 34.779,286.700 34.619 C 287.227 34.419,287.287 34.467,286.943 34.813 C 286.392 35.369,284.781 34.661,284.832 33.886 C 284.855 33.522,284.914 33.526,285.066 33.902 C 285.177 34.179,285.433 34.303,285.634 34.179 M307.398 48.403 C 307.261 48.624,307.430 48.913,307.772 49.045 C 308.115 49.176,308.296 49.445,308.174 49.642 C 308.052 49.839,308.278 50.011,308.676 50.025 C 309.226 50.045,309.168 50.143,308.434 50.437 C 307.903 50.649,307.273 50.742,307.034 50.643 C 306.795 50.544,306.936 50.449,307.346 50.432 C 308.040 50.402,308.048 50.333,307.467 49.446 C 307.123 48.921,306.952 48.381,307.087 48.246 C 307.475 47.859,307.673 47.959,307.398 48.403 M310.387 50.000 C 310.435 49.575,310.571 49.642,310.855 50.227 C 311.165 50.864,311.547 51.018,312.528 50.898 C 313.507 50.779,313.662 50.841,313.200 51.166 C 312.706 51.513,312.763 51.589,313.524 51.594 C 314.036 51.597,314.337 51.778,314.200 52.000 C 314.064 52.220,314.244 52.400,314.600 52.400 C 314.956 52.400,315.156 52.547,315.045 52.727 C 314.934 52.906,315.360 53.359,315.992 53.732 C 317.281 54.493,320.282 58.753,320.658 60.355 C 321.056 62.054,322.173 63.613,325.396 66.965 C 327.403 69.053,328.277 70.229,327.965 70.422 C 327.641 70.622,327.765 70.860,328.357 71.177 C 328.833 71.432,329.116 71.812,328.986 72.023 C 328.856 72.233,329.030 72.513,329.372 72.645 C 329.715 72.776,329.896 73.045,329.774 73.242 C 329.652 73.439,329.878 73.603,330.276 73.606 C 330.825 73.611,330.871 73.694,330.466 73.950 C 330.040 74.221,330.065 74.339,330.592 74.542 C 330.954 74.681,331.139 74.976,331.002 75.197 C 330.865 75.419,331.044 75.600,331.400 75.600 C 331.773 75.600,331.931 75.788,331.772 76.045 C 331.621 76.289,331.688 76.607,331.921 76.751 C 332.153 76.895,332.401 78.047,332.470 79.311 C 332.566 81.057,332.728 81.560,333.143 81.401 C 333.504 81.262,333.611 81.395,333.457 81.795 C 333.329 82.128,333.414 82.400,333.646 82.400 C 333.877 82.400,333.988 82.625,333.892 82.900 C 333.796 83.175,333.376 83.350,332.959 83.289 C 332.251 83.186,332.246 83.215,332.886 83.723 C 333.406 84.136,333.460 84.380,333.109 84.731 C 332.758 85.082,332.422 84.984,331.723 84.327 C 331.215 83.851,330.800 83.601,330.800 83.773 C 330.800 84.211,332.935 85.843,333.190 85.600 C 333.306 85.490,333.357 85.271,333.305 85.114 C 333.252 84.957,333.485 84.935,333.822 85.064 C 334.159 85.193,334.338 85.395,334.221 85.513 C 334.103 85.630,334.230 85.997,334.503 86.329 C 334.930 86.846,334.887 86.873,334.200 86.520 C 332.658 85.727,332.256 86.400,333.467 87.744 L 334.600 89.000 333.304 87.829 C 332.591 87.185,332.089 86.578,332.187 86.480 C 332.537 86.129,330.615 84.895,330.013 85.084 C 329.472 85.253,329.471 85.225,330.000 84.852 C 330.527 84.481,330.515 84.343,329.900 83.729 C 329.433 83.262,329.200 83.198,329.200 83.538 C 329.200 83.818,329.011 83.931,328.781 83.788 C 328.489 83.608,328.490 83.373,328.786 83.017 C 329.093 82.647,329.043 82.367,328.605 82.004 C 328.156 81.632,328.000 81.624,328.000 81.975 C 328.000 82.235,327.804 82.326,327.565 82.178 C 327.326 82.031,327.219 81.570,327.328 81.155 C 327.436 80.740,327.362 80.300,327.162 80.177 C 326.963 80.054,326.800 80.154,326.800 80.400 C 326.800 80.646,326.620 80.736,326.400 80.600 C 326.180 80.464,326.000 79.924,326.000 79.400 C 326.000 78.876,325.789 78.317,325.532 78.158 C 325.210 77.959,325.150 78.094,325.341 78.591 C 325.575 79.201,325.524 79.235,325.009 78.808 C 324.674 78.530,324.386 77.829,324.368 77.251 C 324.351 76.673,324.246 76.426,324.134 76.702 C 323.808 77.511,323.201 76.848,323.194 75.676 C 323.189 74.834,323.103 74.731,322.800 75.200 C 322.502 75.661,322.409 75.523,322.400 74.600 C 322.391 73.677,322.298 73.539,322.000 74.000 C 321.669 74.513,321.611 74.498,321.606 73.900 C 321.603 73.515,321.426 73.200,321.213 73.200 C 320.999 73.200,320.940 72.900,321.081 72.534 C 321.232 72.141,321.173 71.969,320.938 72.115 C 320.719 72.250,320.145 71.546,319.661 70.551 C 319.178 69.556,318.936 68.837,319.124 68.953 C 319.313 69.070,319.467 68.911,319.467 68.600 C 319.467 68.289,319.286 68.147,319.065 68.283 C 318.824 68.433,318.769 68.258,318.927 67.845 C 319.076 67.457,319.028 67.259,318.815 67.390 C 318.302 67.708,317.483 66.083,317.774 65.324 C 317.944 64.880,317.829 64.780,317.356 64.961 C 316.847 65.157,316.752 65.028,316.923 64.374 C 317.085 63.755,316.990 63.595,316.559 63.760 C 316.152 63.916,315.903 63.615,315.732 62.760 C 315.578 61.988,315.376 61.715,315.187 62.022 C 314.849 62.568,314.000 61.301,314.000 60.250 C 314.000 59.918,313.822 59.537,313.605 59.403 C 313.373 59.260,313.304 59.458,313.437 59.879 C 313.638 60.513,313.588 60.505,313.024 59.811 C 312.671 59.378,312.468 58.799,312.574 58.524 C 312.679 58.250,312.593 57.919,312.383 57.789 C 312.172 57.659,312.000 57.778,312.000 58.053 C 312.000 58.840,310.827 57.085,310.813 56.276 C 310.806 55.878,310.633 55.656,310.429 55.782 C 309.980 56.060,309.448 54.570,309.795 54.008 C 309.944 53.767,309.757 53.716,309.321 53.879 C 308.665 54.125,308.654 54.082,309.200 53.400 C 309.744 52.720,309.735 52.675,309.100 52.913 C 308.715 53.057,308.400 53.001,308.400 52.787 C 308.400 52.574,308.586 52.400,308.814 52.400 C 309.095 52.400,309.090 52.142,308.800 51.600 C 308.455 50.956,308.496 50.800,309.010 50.800 C 309.360 50.800,309.536 50.980,309.400 51.200 C 309.264 51.420,309.332 51.600,309.551 51.600 C 309.775 51.600,309.876 50.943,309.780 50.100 C 309.640 48.856,309.672 48.771,309.966 49.600 C 310.161 50.150,310.350 50.330,310.387 50.000 M142.183 68.084 C 142.330 67.937,142.257 68.323,142.022 68.942 C 141.787 69.561,141.713 70.260,141.859 70.495 C 142.028 70.768,141.932 70.805,141.594 70.596 C 141.206 70.356,141.135 70.453,141.327 70.955 C 141.472 71.333,141.439 71.548,141.254 71.433 C 141.069 71.319,140.709 71.681,140.455 72.238 C 140.090 73.040,140.099 73.188,140.497 72.949 C 141.081 72.598,140.119 73.918,139.200 74.730 C 138.718 75.155,138.714 75.200,139.179 74.957 C 139.517 74.781,139.382 75.183,138.851 75.928 C 138.353 76.627,137.767 77.200,137.549 77.200 C 137.331 77.200,137.264 77.380,137.400 77.601 C 137.537 77.821,137.231 78.160,136.721 78.354 C 136.211 78.548,135.345 79.236,134.797 79.883 C 133.213 81.752,130.400 82.695,130.400 81.357 C 130.400 81.025,130.568 80.856,130.772 80.983 C 130.977 81.109,131.258 81.030,131.396 80.807 C 131.534 80.583,131.377 80.400,131.047 80.400 C 130.128 80.400,129.959 79.799,130.642 78.959 C 130.982 78.542,131.127 78.470,130.966 78.800 C 130.800 79.139,130.825 79.260,131.024 79.079 C 131.218 78.902,131.323 78.137,131.257 77.379 C 131.183 76.517,131.316 76.000,131.612 76.000 C 131.874 76.000,131.980 75.725,131.850 75.385 C 131.715 75.035,131.869 74.672,132.204 74.543 C 132.529 74.418,132.696 74.155,132.574 73.958 C 132.452 73.761,132.655 73.600,133.025 73.600 C 133.582 73.600,133.611 73.495,133.192 72.991 C 132.770 72.482,132.794 72.423,133.343 72.634 C 133.779 72.801,134.000 72.676,134.000 72.263 C 134.000 71.920,134.246 71.496,134.546 71.320 C 134.846 71.144,135.394 70.409,135.763 69.687 C 136.132 68.965,136.606 68.480,136.817 68.611 C 137.028 68.741,137.200 68.660,137.200 68.431 C 137.200 68.202,137.643 67.904,138.184 67.768 C 138.725 67.633,139.378 67.268,139.635 66.958 C 140.028 66.484,140.247 66.550,141.009 67.372 C 141.508 67.910,142.036 68.231,142.183 68.084 M121.107 98.800 C 120.832 99.240,120.443 99.600,120.242 99.600 C 120.042 99.600,118.942 100.455,117.798 101.500 C 116.654 102.545,114.677 104.289,113.403 105.375 C 110.490 107.858,109.543 109.873,108.216 116.400 C 106.486 124.909,106.769 126.344,110.000 125.449 C 116.602 123.619,120.726 115.443,121.399 102.844 C 121.522 100.558,121.718 98.533,121.834 98.344 C 121.951 98.155,121.948 98.000,121.827 98.000 C 121.706 98.000,121.382 98.360,121.107 98.800 M117.309 111.378 C 117.455 110.804,117.519 110.888,117.554 111.700 C 117.579 112.305,117.825 112.814,118.100 112.832 C 118.472 112.855,118.477 112.913,118.122 113.057 C 117.860 113.164,117.744 113.510,117.865 113.826 C 117.986 114.142,117.892 114.400,117.655 114.400 C 117.418 114.400,117.340 114.699,117.481 115.066 C 117.652 115.513,117.583 115.636,117.268 115.442 C 116.655 115.063,116.664 115.704,117.280 116.320 C 117.653 116.693,117.616 116.800,117.113 116.800 C 116.758 116.800,116.367 116.575,116.245 116.300 C 116.101 115.974,116.047 116.009,116.090 116.400 C 116.192 117.318,115.597 118.800,115.126 118.800 C 114.896 118.800,114.801 118.440,114.916 117.999 C 115.031 117.559,114.962 117.300,114.763 117.423 C 114.563 117.546,114.379 118.042,114.354 118.524 C 114.318 119.200,114.266 119.241,114.124 118.700 C 114.024 118.315,113.730 117.997,113.471 117.994 C 113.196 117.990,113.250 117.826,113.600 117.600 C 114.099 117.277,114.065 117.207,113.400 117.179 C 112.652 117.148,112.658 117.118,113.496 116.714 C 114.276 116.337,114.312 116.224,113.774 115.830 C 113.181 115.397,113.359 113.804,113.959 114.175 C 114.110 114.268,114.262 113.974,114.296 113.522 C 114.330 113.069,114.727 112.354,115.179 111.934 C 115.631 111.513,116.006 110.951,116.014 110.684 C 116.022 110.418,116.272 110.640,116.570 111.178 C 117.071 112.083,117.126 112.098,117.309 111.378 M214.939 125.118 C 214.027 126.031,214.456 132.209,215.779 137.200 C 216.332 139.290,217.259 143.700,217.837 147.000 C 218.507 150.825,219.522 154.801,220.637 157.966 C 221.710 161.012,222.630 164.569,223.015 167.166 C 224.059 174.205,225.691 180.278,227.194 182.713 C 228.582 184.962,229.275 184.052,231.592 176.948 C 234.316 168.592,234.348 168.234,232.786 163.600 C 232.082 161.510,231.067 158.115,230.532 156.055 C 229.997 153.995,229.047 150.935,228.421 149.255 C 222.473 133.285,221.123 130.187,218.619 126.756 C 217.105 124.681,215.909 124.149,214.939 125.118 M101.381 136.783 C 100.930 136.965,99.519 138.500,98.244 140.193 C 91.009 149.806,84.729 153.029,77.542 150.818 C 71.888 149.078,69.931 148.760,62.400 148.352 C 50.469 147.706,49.186 147.891,47.610 150.476 C 46.284 152.652,46.561 153.930,49.789 160.509 C 53.220 167.501,53.175 167.440,57.298 170.756 C 60.869 173.629,61.994 174.983,63.345 178.037 C 65.001 181.782,66.251 182.095,67.608 179.106 C 69.114 175.788,68.570 173.408,64.964 167.545 C 59.506 158.672,59.142 156.492,62.804 154.598 C 65.186 153.366,74.334 154.115,79.763 155.986 C 83.545 157.289,85.664 157.090,89.228 155.095 C 97.786 150.304,99.471 149.264,101.220 147.698 C 104.004 145.207,104.579 142.224,103.149 137.700 C 102.709 136.310,102.638 136.273,101.381 136.783 M335.878 143.456 C 335.737 143.596,336.060 144.232,336.596 144.868 C 337.571 146.027,338.399 148.300,338.392 149.800 C 338.388 150.449,338.318 150.489,338.015 150.011 C 337.694 149.503,337.608 149.513,337.390 150.081 C 337.137 150.742,336.889 160.800,337.126 160.800 C 337.196 160.800,337.646 160.598,338.126 160.351 C 338.998 159.902,338.998 159.903,338.100 160.766 C 337.246 161.587,336.826 162.679,337.532 162.242 C 337.915 162.005,337.878 163.455,337.491 163.843 C 337.348 163.985,337.490 164.601,337.805 165.210 C 338.392 166.345,337.788 167.624,337.009 166.897 C 336.834 166.733,336.896 166.993,337.146 167.474 C 337.726 168.590,337.775 170.890,337.200 170.000 C 336.882 169.508,336.811 169.553,336.806 170.244 C 336.803 170.708,336.328 171.784,335.752 172.633 C 335.175 173.483,334.995 173.936,335.352 173.640 C 336.295 172.857,336.146 173.593,335.145 174.659 C 334.480 175.366,334.125 175.481,333.551 175.174 C 332.884 174.817,332.850 174.879,333.205 175.812 C 333.421 176.380,333.437 176.746,333.241 176.625 C 333.044 176.504,332.777 176.683,332.646 177.023 C 332.516 177.363,332.565 177.545,332.755 177.428 C 332.945 177.311,333.100 177.695,333.100 178.283 C 333.100 179.249,333.051 179.284,332.588 178.652 C 332.264 178.208,331.981 178.107,331.815 178.376 C 331.432 178.996,330.800 178.894,330.800 178.213 C 330.800 177.855,331.035 177.715,331.400 177.855 C 331.790 178.005,332.000 177.845,332.000 177.400 C 332.000 176.976,331.786 176.797,331.439 176.930 C 329.480 177.681,328.532 171.578,330.145 168.600 C 330.503 167.940,330.796 166.605,330.798 165.633 C 330.801 163.428,330.447 163.713,330.019 166.261 C 329.776 167.710,329.682 166.633,329.647 161.997 C 329.621 158.586,329.766 155.216,329.969 154.509 C 330.171 153.802,330.200 152.724,330.033 152.112 C 329.785 151.206,329.920 150.818,330.764 150.022 C 331.497 149.330,331.586 149.125,331.068 149.321 C 330.423 149.566,330.368 149.445,330.605 148.300 C 330.966 146.558,332.854 144.232,334.041 144.066 C 334.568 143.993,335.171 143.768,335.380 143.566 C 335.803 143.158,336.281 143.052,335.878 143.456 M355.228 145.547 C 355.008 145.958,354.942 146.408,355.081 146.547 C 355.220 146.686,355.123 146.800,354.867 146.800 C 354.610 146.800,354.400 146.698,354.400 146.574 C 354.400 146.201,355.212 144.800,355.428 144.800 C 355.538 144.800,355.448 145.136,355.228 145.547 M354.754 148.032 C 354.383 148.264,354.157 148.182,354.070 147.785 C 353.998 147.458,353.745 147.310,353.508 147.457 C 353.251 147.616,353.192 147.536,353.362 147.261 C 353.575 146.918,353.863 146.913,354.478 147.242 C 355.142 147.597,355.197 147.755,354.754 148.032 M225.179 153.101 C 226.208 156.807,225.086 158.330,223.484 155.400 C 221.647 152.042,221.918 148.295,223.836 150.524 C 224.346 151.117,224.950 152.276,225.179 153.101 M223.200 152.552 C 223.200 153.160,223.470 153.927,223.800 154.257 C 224.636 155.093,224.625 153.331,223.787 152.224 C 223.225 151.480,223.200 151.495,223.200 152.552 M240.603 152.100 C 237.994 159.708,238.891 169.502,242.639 174.330 C 247.435 180.507,248.612 177.114,246.386 163.532 C 245.190 156.230,241.612 149.158,240.603 152.100 M55.358 154.500 C 55.266 154.995,55.305 155.155,55.444 154.855 C 55.657 154.394,55.752 154.394,56.048 154.855 C 56.341 155.308,56.458 155.310,56.745 154.866 C 57.008 154.457,57.139 154.524,57.303 155.151 C 57.559 156.131,56.637 157.107,56.170 156.351 C 55.960 156.012,55.770 156.129,55.547 156.732 C 55.370 157.209,54.905 157.597,54.513 157.594 C 53.900 157.589,53.884 157.528,54.400 157.163 C 54.837 156.854,54.868 156.685,54.514 156.541 C 54.193 156.410,54.149 156.116,54.385 155.671 C 54.581 155.302,54.839 154.685,54.958 154.300 C 55.270 153.294,55.555 153.437,55.358 154.500 M338.283 157.695 C 338.187 158.193,338.105 157.880,338.101 157.000 C 338.096 156.120,338.175 155.713,338.275 156.095 C 338.375 156.478,338.379 157.198,338.283 157.695 M56.794 157.700 C 56.786 158.349,56.014 159.556,56.006 158.933 C 56.003 158.676,55.891 158.181,55.757 157.833 C 55.598 157.418,55.735 157.200,56.157 157.200 C 56.511 157.200,56.797 157.425,56.794 157.700 M58.035 161.200 C 58.262 161.200,58.336 161.020,58.200 160.800 C 58.064 160.580,58.043 160.400,58.154 160.400 C 58.264 160.400,58.794 161.137,59.331 162.038 C 59.973 163.114,60.389 163.491,60.544 163.138 C 60.686 162.814,60.764 162.918,60.739 163.400 C 60.676 164.647,61.709 166.797,62.388 166.832 C 62.799 166.853,62.836 166.929,62.500 167.065 C 62.225 167.176,62.000 167.702,62.000 168.233 C 62.000 168.765,61.801 169.200,61.557 169.200 C 61.314 169.200,61.226 168.910,61.362 168.555 C 61.550 168.066,61.440 167.975,60.905 168.179 C 60.340 168.394,60.299 168.348,60.700 167.944 C 61.385 167.254,61.329 166.776,60.595 167.057 C 60.146 167.229,60.061 167.107,60.263 166.579 C 60.451 166.090,60.389 165.960,60.064 166.160 C 59.160 166.719,57.887 166.020,58.479 165.290 C 58.770 164.930,58.799 164.767,58.545 164.919 C 57.883 165.316,57.347 164.392,57.375 162.900 C 57.389 162.185,57.284 161.600,57.143 161.600 C 56.671 161.600,56.378 160.298,56.658 159.444 C 56.903 158.692,56.971 158.742,57.278 159.900 C 57.468 160.615,57.808 161.200,58.035 161.200 M228.660 166.125 C 229.310 166.872,229.467 167.632,229.480 170.068 C 229.495 173.226,229.470 173.262,227.563 172.851 C 227.137 172.759,226.400 169.742,226.400 168.086 C 226.400 165.107,227.184 164.427,228.660 166.125 M231.232 168.339 C 230.690 169.354,230.671 171.073,231.200 171.400 C 231.420 171.536,231.594 171.862,231.587 172.124 C 231.564 172.997,230.400 171.062,230.400 170.150 C 230.400 169.035,231.144 167.011,231.444 167.310 C 231.565 167.432,231.470 167.895,231.232 168.339 M330.089 173.200 C 330.096 176.094,330.111 176.140,330.505 174.498 C 330.786 173.329,330.784 172.389,330.498 171.498 C 330.132 170.357,330.083 170.562,330.089 173.200 M135.600 188.502 C 135.600 188.832,135.870 189.326,136.200 189.600 C 136.688 190.005,136.800 189.986,136.800 189.498 C 136.800 189.168,136.530 188.674,136.200 188.400 C 135.712 187.995,135.600 188.014,135.600 188.502 M144.358 189.655 C 143.125 190.318,141.370 190.961,140.458 191.083 C 139.546 191.205,138.800 191.401,138.800 191.518 C 138.800 192.390,141.201 195.454,143.389 197.375 C 147.546 201.025,147.821 201.989,146.234 207.342 C 144.503 213.183,144.613 216.385,146.849 225.200 C 147.814 229.005,148.602 229.717,150.000 228.044 C 153.745 223.562,154.713 222.638,156.665 221.680 C 160.010 220.040,159.729 218.368,155.003 211.792 C 153.741 210.036,151.916 207.250,150.948 205.600 L 149.186 202.600 149.445 197.000 C 149.846 188.317,149.032 187.142,144.358 189.655 M354.566 195.773 C 356.750 200.086,364.104 207.661,364.328 205.827 C 364.573 203.815,356.360 194.000,354.431 194.000 C 353.701 194.000,353.707 194.076,354.566 195.773 M229.293 200.500 C 226.147 204.379,227.356 217.385,231.289 221.979 C 231.623 222.368,232.073 223.208,232.290 223.844 C 232.626 224.827,232.690 224.581,232.720 222.198 C 232.829 213.331,240.014 206.289,245.153 210.012 C 248.502 212.438,249.400 215.245,248.057 219.095 C 246.235 224.314,246.789 229.795,249.110 229.525 C 250.422 229.372,252.358 224.940,252.384 222.028 C 252.431 216.743,254.780 216.097,261.424 219.544 C 264.172 220.970,265.131 221.791,267.579 224.807 C 270.784 228.759,274.842 232.320,277.300 233.338 C 280.389 234.617,278.346 231.760,271.460 225.166 C 266.680 220.589,266.198 219.847,264.606 214.600 C 262.828 208.741,260.748 205.311,257.547 202.961 L 255.677 201.588 247.738 202.065 C 236.664 202.731,236.073 202.697,233.076 201.237 C 230.240 199.856,229.873 199.784,229.293 200.500 M257.507 204.466 C 257.053 204.754,257.142 204.842,257.826 204.779 C 257.951 204.768,258.414 205.218,258.855 205.779 C 259.297 206.341,259.880 206.800,260.152 206.800 C 260.451 206.800,260.613 207.267,260.564 207.986 C 260.518 208.652,260.669 209.135,260.908 209.086 C 261.142 209.039,261.518 209.630,261.742 210.400 C 261.967 211.170,262.281 211.891,262.440 212.002 C 262.893 212.318,261.703 214.800,261.099 214.800 C 260.803 214.800,260.344 214.584,260.080 214.320 C 259.707 213.947,259.600 213.947,259.600 214.320 C 259.600 215.135,258.549 214.850,258.049 213.900 C 257.748 213.329,257.654 213.272,257.792 213.745 C 257.955 214.304,257.850 214.428,257.372 214.245 C 257.021 214.110,256.569 214.000,256.367 214.000 C 256.165 214.000,255.979 213.595,255.954 213.100 C 255.919 212.423,255.862 212.373,255.724 212.900 C 255.438 213.994,254.684 213.720,254.898 212.600 C 255.135 211.357,254.901 211.312,254.379 212.500 C 254.009 213.342,253.993 213.328,254.137 212.297 C 254.270 211.341,254.207 211.261,253.668 211.697 C 253.177 212.095,253.109 212.095,253.347 211.700 C 253.512 211.425,253.469 211.200,253.251 211.200 C 253.033 211.200,252.448 210.615,251.952 209.900 L 251.049 208.600 251.986 209.400 L 252.924 210.200 252.218 209.103 C 251.830 208.500,251.624 207.715,251.761 207.359 C 251.941 206.887,251.839 206.776,251.384 206.951 C 251.024 207.089,250.862 207.023,251.003 206.795 C 251.137 206.578,251.012 206.388,250.724 206.373 C 250.436 206.358,250.605 206.151,251.100 205.912 C 251.595 205.673,252.000 205.250,252.000 204.972 C 252.000 204.694,252.225 204.377,252.500 204.266 C 253.341 203.930,258.056 204.117,257.507 204.466 M233.095 205.877 C 232.707 205.978,232.492 206.225,232.616 206.426 C 232.740 206.627,232.593 206.695,232.289 206.579 C 231.970 206.456,231.551 206.754,231.296 207.283 C 231.053 207.788,230.842 207.975,230.827 207.700 C 230.787 206.957,232.296 205.593,233.100 205.646 C 233.761 205.690,233.761 205.703,233.095 205.877 M386.417 206.900 C 386.444 207.722,388.969 210.332,390.183 210.794 C 391.305 211.220,391.309 211.217,390.652 210.312 C 390.289 209.810,389.830 209.026,389.632 208.570 C 389.007 207.126,386.379 205.761,386.417 206.900 M151.013 208.187 C 151.776 208.949,152.400 209.860,152.400 210.210 C 152.400 210.561,152.555 210.751,152.744 210.635 C 153.137 210.392,154.592 213.397,154.549 214.362 C 154.472 216.103,153.028 217.902,151.900 217.664 C 151.735 217.629,151.621 217.735,151.647 217.900 C 151.803 218.884,151.515 219.334,151.200 218.600 C 150.878 217.851,150.854 217.861,150.828 218.747 C 150.806 219.506,150.634 219.650,149.960 219.474 C 149.272 219.294,149.159 219.400,149.333 220.064 C 149.536 220.840,149.512 220.844,148.772 220.175 C 148.236 219.690,148.000 219.634,148.000 219.992 C 148.000 220.276,147.619 220.024,147.154 219.433 C 146.689 218.842,146.418 218.249,146.551 218.116 C 146.684 217.983,146.570 217.597,146.297 217.260 C 145.884 216.751,145.902 216.707,146.400 217.000 C 146.879 217.283,146.911 217.238,146.554 216.777 C 145.439 215.333,146.641 207.620,147.937 207.900 C 148.192 207.955,148.400 207.730,148.400 207.400 C 148.400 206.384,149.559 206.733,151.013 208.187 M394.205 216.700 C 395.033 218.713,399.195 224.800,399.744 224.800 C 401.231 224.800,399.789 221.186,397.151 218.300 C 394.003 214.856,393.289 214.468,394.205 216.700 M384.279 225.054 C 383.847 225.486,385.151 227.522,386.537 228.579 C 388.204 229.851,388.400 229.851,388.400 228.577 C 388.400 227.615,386.106 224.961,385.659 225.407 C 385.557 225.509,385.260 225.416,385.000 225.200 C 384.740 224.984,384.415 224.918,384.279 225.054 M111.048 226.093 C 106.429 227.316,103.834 233.112,104.767 240.122 C 105.734 247.386,108.344 249.404,112.424 246.041 C 117.645 241.738,119.094 228.359,114.572 226.213 C 113.123 225.526,113.184 225.528,111.048 226.093 M68.258 228.599 C 66.884 229.973,67.252 233.818,69.100 237.395 C 71.285 241.622,74.690 239.408,73.661 234.429 C 72.856 230.531,69.715 227.142,68.258 228.599 M392.073 232.227 C 391.475 232.904,393.523 236.075,396.959 239.791 C 397.972 240.886,398.800 241.921,398.800 242.091 C 398.800 242.261,399.089 242.400,399.443 242.400 C 399.897 242.400,400.002 242.194,399.801 241.700 C 398.922 239.537,398.815 238.623,399.403 238.294 C 400.349 237.765,400.150 237.400,397.564 234.928 C 394.088 231.606,393.065 231.103,392.073 232.227 M283.067 237.867 C 282.920 238.013,282.800 238.996,282.800 240.050 C 282.800 241.228,282.261 243.477,281.401 245.881 C 277.904 255.666,279.956 257.958,285.878 250.882 C 286.929 249.627,288.556 247.726,289.494 246.657 C 291.645 244.206,291.768 242.675,289.976 240.634 C 288.403 238.843,283.896 237.037,283.067 237.867 M233.762 260.790 C 229.714 262.426,224.526 274.709,226.132 278.851 C 226.768 280.490,229.107 283.600,229.704 283.600 C 230.854 283.600,236.512 275.999,237.233 273.485 C 238.160 270.253,237.415 263.289,235.941 261.416 C 235.071 260.310,234.999 260.289,233.762 260.790 M309.989 265.013 C 308.301 267.047,309.605 272.483,312.155 274.038 C 314.406 275.410,315.200 275.107,315.200 272.873 C 315.200 267.694,311.898 262.713,309.989 265.013 M204.092 273.602 C 203.268 274.921,204.280 280.115,205.448 280.563 C 206.774 281.072,208.800 279.251,208.800 277.552 C 208.800 274.355,205.402 271.504,204.092 273.602 M318.015 277.783 C 317.335 278.602,319.364 282.326,320.669 282.653 C 323.139 283.273,325.434 281.227,324.266 279.444 C 323.192 277.806,318.935 276.674,318.015 277.783 M262.846 280.502 C 259.852 282.023,258.736 283.664,259.522 285.389 C 260.815 288.227,268.549 283.184,267.726 280.040 C 267.407 278.820,265.866 278.966,262.846 280.502 M70.200 301.621 C 62.290 303.622,61.545 304.033,60.800 306.802 C 60.075 309.494,61.147 312.278,64.163 315.535 C 66.558 318.121,68.771 318.834,77.262 319.755 C 81.980 320.267,82.494 320.409,84.809 321.838 C 89.527 324.750,92.718 323.851,95.333 318.875 C 96.128 317.362,97.600 315.066,98.604 313.773 C 103.062 308.032,100.459 306.093,95.400 311.387 C 87.748 319.394,81.600 318.598,81.600 309.600 C 81.600 302.020,78.155 299.608,70.200 301.621 M77.623 302.024 C 77.824 302.341,77.991 302.451,77.994 302.269 C 78.011 301.371,80.482 304.564,80.648 305.698 C 81.092 308.732,80.898 313.956,80.400 312.400 L 80.080 311.400 80.040 312.500 C 80.018 313.105,79.809 313.600,79.576 313.600 C 79.343 313.600,79.256 313.768,79.383 313.972 C 79.782 314.618,78.757 314.926,75.834 315.037 C 73.869 315.112,73.307 315.040,74.000 314.802 C 74.927 314.485,74.897 314.459,73.600 314.438 C 72.326 314.418,70.502 314.189,70.000 313.986 C 69.890 313.942,69.665 313.927,69.500 313.953 C 69.335 313.979,69.200 313.809,69.200 313.576 C 69.200 313.343,69.065 313.220,68.900 313.302 C 68.539 313.482,67.051 311.923,66.875 311.180 C 66.807 310.890,66.447 310.421,66.075 310.139 C 65.651 309.816,65.586 309.621,65.900 309.613 C 66.175 309.606,66.400 309.401,66.400 309.157 C 66.400 308.914,66.128 308.819,65.795 308.947 C 65.026 309.242,65.396 307.358,66.316 306.300 C 66.707 305.850,66.758 305.600,66.459 305.600 C 66.116 305.600,66.125 305.389,66.493 304.800 C 66.768 304.360,67.219 304.000,67.496 304.000 C 67.773 304.000,68.000 303.839,68.000 303.643 C 68.000 303.446,68.279 303.178,68.621 303.047 C 69.029 302.891,69.156 302.978,68.991 303.305 C 68.853 303.577,68.979 303.530,69.270 303.200 C 69.562 302.870,70.160 302.537,70.600 302.460 C 71.040 302.383,71.504 302.152,71.632 301.946 C 71.760 301.741,72.165 301.688,72.532 301.829 C 72.899 301.970,73.200 301.911,73.200 301.697 C 73.200 301.070,77.208 301.367,77.623 302.024 M335.198 311.377 C 332.838 312.662,329.406 318.708,323.831 331.400 C 320.326 339.379,318.371 343.229,314.228 350.314 C 306.210 364.027,304.683 365.199,294.827 365.202 C 292.062 365.202,288.180 365.469,286.200 365.795 C 279.319 366.925,276.908 366.508,273.806 363.648 C 271.105 361.159,270.012 360.978,265.040 362.199 C 258.379 363.836,255.639 362.887,253.244 358.113 C 250.413 352.474,251.572 348.790,257.136 345.737 C 258.601 344.933,261.510 343.328,263.600 342.169 C 271.482 337.800,275.011 337.710,284.280 341.640 C 291.527 344.713,292.598 343.912,299.414 330.314 C 304.831 319.507,305.909 314.670,303.200 313.322 C 302.045 312.748,290.398 312.882,270.400 313.701 C 254.131 314.367,252.237 314.342,249.758 313.433 C 245.146 311.741,242.976 313.939,236.579 326.780 C 231.259 337.458,231.175 338.230,234.732 343.701 C 238.819 349.987,237.578 353.595,231.326 353.605 C 229.338 353.608,227.278 353.899,225.667 354.404 C 222.660 355.347,221.886 355.212,218.425 353.141 C 215.918 351.640,215.750 351.600,212.025 351.599 C 206.776 351.596,204.350 349.954,203.008 345.492 C 201.941 341.948,203.630 339.893,208.645 338.633 C 213.412 337.435,215.235 335.810,218.999 329.400 C 224.151 320.627,223.754 317.302,217.446 316.407 C 209.823 315.324,204.310 321.195,198.018 337.095 C 197.301 338.907,196.087 341.427,195.319 342.695 C 193.462 345.762,191.972 348.741,190.410 352.504 C 188.721 356.573,183.261 364.807,180.360 367.660 C 175.115 372.817,166.432 373.430,161.053 369.022 C 158.498 366.929,156.710 366.340,152.211 366.109 C 146.296 365.807,144.400 364.535,144.400 360.869 C 144.400 356.774,146.918 355.827,157.079 356.097 C 167.145 356.365,167.474 356.181,172.254 347.600 C 173.296 345.730,176.129 340.870,178.550 336.800 C 186.324 323.731,186.578 320.274,179.673 321.535 C 178.203 321.803,171.600 322.818,165.000 323.791 C 139.268 327.582,139.824 327.313,145.550 333.200 C 151.176 338.985,150.597 342.136,143.942 341.935 C 142.104 341.880,139.250 341.976,137.600 342.149 C 134.629 342.461,134.568 342.449,131.270 340.832 C 127.010 338.744,125.852 338.740,121.800 340.800 C 117.155 343.161,115.084 342.920,112.810 339.754 C 109.499 335.144,101.923 333.503,93.727 335.621 C 91.127 336.293,82.790 338.192,75.200 339.840 C 67.610 341.489,55.820 344.075,49.000 345.588 C 42.180 347.100,33.900 348.903,30.600 349.593 C 14.700 352.920,3.182 355.984,1.820 357.247 C 1.611 357.441,1.116 357.600,0.720 357.600 C 0.117 357.600,0.001 357.942,0.005 359.700 C 0.012 362.392,0.379 363.872,0.855 363.134 C 1.138 362.697,1.271 362.709,1.594 363.200 C 1.811 363.530,1.991 363.600,1.994 363.355 C 2.001 362.807,4.062 363.135,4.530 363.760 C 4.766 364.073,4.920 364.055,5.065 363.698 C 5.177 363.421,5.433 363.297,5.634 363.421 C 5.835 363.545,6.003 363.412,6.006 363.124 C 6.011 362.739,6.125 362.759,6.437 363.200 C 6.755 363.651,6.911 363.676,7.064 363.301 C 7.182 363.010,7.632 362.893,8.143 363.021 C 8.625 363.142,12.255 362.432,16.210 361.443 C 20.164 360.455,27.270 358.832,32.000 357.839 C 42.097 355.718,81.075 347.180,85.991 346.012 C 88.018 345.530,90.190 344.693,91.391 343.929 C 96.391 340.750,99.056 340.363,104.175 342.073 C 106.946 342.999,106.951 343.004,108.375 345.733 C 110.109 349.057,110.996 349.616,114.200 349.397 C 117.982 349.139,118.935 348.776,124.000 345.663 C 125.961 344.458,127.200 344.583,129.312 346.195 C 132.829 348.880,136.486 350.329,139.046 350.049 C 139.970 349.948,140.136 352.621,139.240 353.175 C 137.045 354.532,137.297 364.966,139.599 368.084 C 140.040 368.680,140.400 369.323,140.400 369.513 C 140.400 371.483,145.742 372.503,150.117 371.370 C 153.305 370.544,154.623 370.850,156.800 372.922 C 160.523 376.466,160.876 376.608,165.741 376.523 C 178.714 376.297,181.339 375.135,187.576 366.857 C 192.535 360.276,193.006 359.502,194.001 356.298 C 196.136 349.420,197.679 348.234,199.598 351.996 C 201.834 356.380,203.613 357.357,209.400 357.381 C 213.852 357.400,215.004 357.712,217.245 359.508 C 218.942 360.867,223.655 361.125,226.881 360.036 C 228.758 359.402,230.353 359.200,233.491 359.200 C 239.171 359.200,242.063 357.785,242.679 354.703 C 242.803 354.087,243.060 353.486,243.252 353.368 C 244.375 352.674,241.674 342.932,239.854 341.112 C 237.166 338.423,237.362 335.835,240.775 328.934 C 243.695 323.032,244.580 322.019,246.600 322.265 C 250.993 322.799,254.488 322.793,265.475 322.232 C 272.283 321.884,280.811 321.596,284.427 321.592 C 288.042 321.588,292.169 321.415,293.597 321.209 C 299.056 320.420,299.112 321.049,294.422 330.530 C 290.381 338.702,289.744 339.258,286.149 337.751 C 275.677 333.359,272.893 333.212,263.134 336.532 C 259.468 337.779,256.085 338.800,255.618 338.800 C 248.979 338.800,243.187 349.379,245.946 356.467 C 250.116 367.178,255.476 370.389,264.520 367.596 C 267.433 366.696,268.411 366.865,270.509 368.630 C 274.071 371.627,278.355 372.145,285.000 370.381 C 287.951 369.597,289.321 369.452,292.600 369.575 C 301.311 369.903,302.429 369.819,305.047 368.640 C 307.538 367.519,310.267 365.114,311.511 362.946 C 313.458 359.550,319.157 350.208,320.995 347.400 C 323.567 343.468,324.216 342.198,326.560 336.504 C 332.706 321.571,334.080 319.846,338.336 321.719 C 340.158 322.521,341.771 322.808,346.600 323.187 C 349.900 323.447,355.899 324.006,359.930 324.430 C 368.410 325.321,372.488 325.386,378.426 324.726 C 381.548 324.379,383.907 324.364,387.244 324.670 C 390.555 324.973,391.882 324.966,392.100 324.643 C 392.308 324.336,392.522 324.383,392.800 324.800 C 393.156 325.333,393.244 325.333,393.594 324.800 C 393.944 324.267,393.989 324.267,394.000 324.800 C 394.010 325.292,394.075 325.301,394.358 324.855 C 394.649 324.394,394.737 324.394,394.921 324.855 C 395.074 325.238,395.237 325.269,395.470 324.960 C 395.938 324.335,397.999 324.007,398.006 324.555 C 398.009 324.800,398.189 324.730,398.406 324.400 C 398.729 323.909,398.862 323.897,399.145 324.334 C 399.618 325.068,399.987 323.597,399.995 320.946 L 400.000 318.892 397.900 318.204 C 396.745 317.826,395.440 317.450,395.000 317.368 C 394.560 317.286,393.312 317.009,392.227 316.752 C 389.847 316.189,380.078 316.083,373.200 316.546 C 369.156 316.818,366.708 316.725,360.400 316.057 C 356.110 315.603,351.070 315.126,349.200 314.998 C 343.026 314.575,340.949 314.052,338.684 312.350 C 336.350 310.596,336.537 310.648,335.198 311.377 M213.711 323.959 C 217.614 325.469,213.302 332.359,207.657 333.632 C 203.696 334.526,203.750 330.246,207.757 325.682 C 209.727 323.438,211.236 323.001,213.711 323.959 M176.134 331.597 C 176.006 332.149,174.764 334.310,173.375 336.400 C 171.985 338.490,169.824 342.180,168.573 344.600 C 164.845 351.810,164.461 352.061,157.004 352.146 C 152.531 352.196,152.000 352.118,149.300 351.014 C 146.590 349.905,145.502 348.807,147.100 348.794 C 148.732 348.781,153.381 346.733,155.012 345.309 C 157.364 343.256,157.850 340.383,156.412 337.028 C 155.354 334.559,155.807 333.202,157.690 333.196 C 159.992 333.188,169.315 331.620,171.800 330.822 C 175.986 329.477,176.600 329.587,176.134 331.597 " stroke="none" fill="#2c2c24" fill-rule="evenodd"></path></g></svg>